{
.appVersion = "1339";
DisplayStrings = (
"The/space quick/space brown/space fox\012jumps/space over/space the/space lazy/space dog.\012Hasta/space la/space vista,/space baby!\012Velvet/space Underground"
);
classes = (
{
code = "A  Agrave Aacute Acircumflex Atilde Adieresis Aring Amacron Abreve Aogonek Aringacute Acaron";
name = _LAT_A_LEFT;
},
{
code = "A  Agrave Aacute Acircumflex Atilde Adieresis Aring AE Amacron Abreve Aogonek Aringacute Acaron";
name = _LAT_A_RIGHT;
},
{
code = "B  Bdotaccent";
name = _LAT_B;
},
{
code = "C  Ccedilla Cacute Ccircumflex Cdotaccent Ccaron";
name = _LAT_C;
},
{
code = "D  Eth Dcaron Dcroat Ddotaccent";
name = _LAT_D_LEFT;
},
{
code = "E  Egrave Eacute Ecircumflex Edieresis OE AE Emacron Ebreve Edotaccent Eogonek Ecaron Esh";
name = _LAT_E_LEFT;
},
{
code = "E  Egrave Eacute Ecircumflex Edieresis Emacron Ebreve Edotaccent Eogonek Ecaron";
name = _LAT_E_RIGHT;
},
{
code = "F  Fdotaccent";
name = _LAT_F;
},
{
code = "G  Gcircumflex Gbreve Gdotaccent Gcommaaccent";
name = _LAT_G;
},
{
code = "I  bar Igrave Iacute Icircumflex Idieresis Idotaccent Itilde Imacron Ibreve Iogonek Icaron";
name = _LAT_I;
},
{
code = "J  Jcircumflex";
name = _LAT_J;
},
{
code = "K  Kcommaaccent";
name = _LAT_K_LEFT;
},
{
code = "L  Lslash Lacute Lcommaaccent Lcaron Ldot Ldotbelow";
name = _LAT_L;
},
{
code = "O  Ograve Oacute Ocircumflex Otilde Odieresis Oslash OE Omacron Obreve Ohungarumlaut Odieresis_grave Ocaron";
name = _LAT_O_RIGHT;
},
{
code = "O  Ograve Oacute Ocircumflex Otilde Odieresis Oslash Omacron Obreve Ohungarumlaut Odieresis_grave Ocaron";
name = _LAT_O_LEFT;
},
{
code = "P  Thorn Pdotaccent";
name = _LAT_P;
},
{
code = "R  Racute Rcommaaccent Rcaron";
name = _LAT_R_LEFT;
},
{
code = "S  Scaron Sacute Scircumflex Scedilla Scommaaccent";
name = _LAT_S;
},
{
code = "T  Tcedilla Tcaron Tbar Tcommaaccent Tdotaccent";
name = _LAT_T;
},
{

glyphs = (
{
color = 4;
glyphname = A;
layers = (
{
anchors = (
{
name = bottom;
position = "{321, 0}";
},
{
name = top;
position = "{365, 725}";
}
);
layerId = master01;
paths = (
{
closed = 1;
nodes = (
"-7 -32 OFFCURVE",
"93 -43 OFFCURVE",
"112 21 CURVE SMOOTH",
"173 230 OFFCURVE",
"257 438 OFFCURVE",
"357 646 CURVE",
"335 644 LINE",
"376 549 OFFCURVE",
"411 451 OFFCURVE",
"441 348 CURVE SMOOTH",
"476 229 OFFCURVE",
"511 93 OFFCURVE",
"540 -8 CURVE SMOOTH",
"556 -65 OFFCURVE",
"643 -45 OFFCURVE",
"632 18 CURVE SMOOTH",
"617 104 OFFCURVE",
"575 251 OFFCURVE",
"538 374 CURVE SMOOTH",
"509 471 OFFCURVE",
"470 577 OFFCURVE",
"433 660 CURVE",
"421 698 OFFCURVE",
"397 722 OFFCURVE",
"351 722 CURVE SMOOTH",
"321 722 OFFCURVE",
"283 706 OFFCURVE",
"268 661 CURVE",
"165 471 OFFCURVE",
"74 255 OFFCURVE",
"15 46 CURVE SMOOTH"
);
},
{
closed = 1;
nodes = (
"270 208 OFFCURVE",
"402 216 OFFCURVE",
"537 221 CURVE",
"521 311 LINE",
"395 306 OFFCURVE",
"268 298 OFFCURVE",
"145 283 CURVE",
"139 193 LINE"
);
}
);
userData = {
com.typemytype.robofont.mark = (
0.619,
1,
0.6,
1
);
};
width = 652;
},
{
anchors = (
{
name = bottom;
position = "{321, 0}";
},
{
name = top;
position = "{365, 725}";
}
);
layerId = "8E39700C-2F6D-4A17-B4B3-161F49A69C4C";
paths = (
{
closed = 1;
nodes = (
"154 149 OFFCURVE",
"125 67 OFFCURVE",
"111 19 QCURVE",
"104 -2 OFFCURVE",
"77 -22 OFFCURVE",
"62 -22 QCURVE {name = ab01;}",
"43 -22 OFFCURVE",
"13 7 OFFCURVE",
"13 34 QCURVE",
"13 49 OFFCURVE",
"24 89 OFFCURVE",
"41 136 OFFCURVE",
"59 184 OFFCURVE",
"66 207 QCURVE",
"81 256 OFFCURVE",
"120 350 OFFCURVE",
"138 398 QCURVE",
"153 439 OFFCURVE",
"181 519 OFFCURVE",
"201 557 QCURVE",
"217 588 OFFCURVE",
"245 647 OFFCURVE",
"281 693 OFFCURVE",
"331 721 OFFCURVE",
"368 721 QCURVE {name = at01;}",
"394 721 OFFCURVE",
"433 688 OFFCURVE",
"463 639 OFFCURVE",
"484 584 OFFCURVE",
"491 563 QCURVE",
"505 519 OFFCURVE",
"526 429 OFFCURVE",
"544 338 OFFCURVE",
"561 246 OFFCURVE",
"572 201 QCURVE",
"580 168 OFFCURVE",
"602 112 OFFCURVE",
"619 83 QCURVE",
"627 69 OFFCURVE",
"651 28 OFFCURVE",
"651 11 QCURVE",
"651 -12 OFFCURVE",
"622 -40 OFFCURVE",
"603 -40 QCURVE {name = ab02;}",
"582 -40 OFFCURVE",
"557 -11 OFFCURVE",
"544 14 QCURVE",
"533 35 OFFCURVE",
"506 74 OFFCURVE",
"498 96 QCURVE",
"487 124 OFFCURVE",
"473 182 OFFCURVE",
"467 211 QCURVE",
"439 211 LINE",
"410 211 OFFCURVE",
"339 208 OFFCURVE",
"267 203 OFFCURVE",
"196 197 OFFCURVE",
"167 194 QCURVE {name = dv01;}"
);
},
{
closed = 1;
nodes = (
"220 330 OFFCURVE",
"213 311 OFFCURVE",
"208 301 QCURVE {name = dv02;}",
"254 301 OFFCURVE",
"313 305 OFFCURVE",
"358 308 OFFCURVE",
"400 311 OFFCURVE",
"430 311 QCURVE",
"447 311 LINE",
"442 343 OFFCURVE",
"430 401 OFFCURVE",
"424 430 QCURVE",
"419 451 OFFCURVE",
"408 502 OFFCURVE",
"391 553 OFFCURVE",
"370 600 OFFCURVE",
"355 617 QCURVE {name = sv01;}",
"329 590 OFFCURVE",
"291 522 OFFCURVE",
"262 450 OFFCURVE",
"237 375 OFFCURVE",
"224 340 QCURVE"
);
}
);
width = 652;
},
{
anchors = (
{
name = bottom;
position = "{321, 0}";
},
{
name = top;
position = "{365, 725}";
}
);
background = {
paths = (
{
closed = 1;
nodes = (
"617 104 OFFCURVE",
"575 251 OFFCURVE",
"538 374 CURVE SMOOTH",
"509 471 OFFCURVE",
"470 577 OFFCURVE",
"433 660 CURVE",
"421 698 OFFCURVE",
"397 722 OFFCURVE",
"351 722 CURVE SMOOTH",
"321 722 OFFCURVE",
"283 706 OFFCURVE",
"268 661 CURVE",
"165 471 OFFCURVE",
"74 255 OFFCURVE",
"15 46 CURVE SMOOTH",
"3 2 OFFCURVE",
"29 -21 OFFCURVE",
"58 -21 CURVE SMOOTH",
"81 -21 OFFCURVE",
"104 -7 OFFCURVE",
"112 21 CURVE SMOOTH",
"129 79 OFFCURVE",
"148 138 OFFCURVE",
"168 196 CURVE",
"271 207 OFFCURVE",
"373 214 OFFCURVE",
"478 219 CURVE",
"500 138 OFFCURVE",
"521 58 OFFCURVE",
"540 -8 CURVE SMOOTH",
"546 -31 OFFCURVE",
"565 -42 OFFCURVE",
"583 -42 CURVE SMOOTH",
"610 -42 OFFCURVE",
"639 -20 OFFCURVE",
"632 18 CURVE SMOOTH"
);
},
{
closed = 1;
nodes = (
"245 400 OFFCURVE",
"293 510 OFFCURVE",
"345 621 CURVE",
"382 533 OFFCURVE",
"413 443 OFFCURVE",
"441 348 CURVE SMOOTH",
"453 308 LINE",
"369 304 OFFCURVE",
"285 298 OFFCURVE",
"203 290 CURVE"
);
}
);
};
hints = (
{
horizontal = 1;
origin = "{0, 14}";
type = Anchor;
},
{
horizontal = 1;
origin = "{0, 36}";
type = Anchor;
},
{
horizontal = 1;
origin = "{0, 23}";
target = "{1, 5}";
type = Align;
options = 4;
},
{
horizontal = 1;
origin = "{0, 36}";
target = "{0, 23}";
other1 = "{0, 5}";
type = Interpolate;
options = 8;
},
{
horizontal = 1;
origin = "{0, 5}";
target = "{1, 1}";
type = TTStem;
options = 4;
}
);
layerId = "92936CB7-D294-4857-B41D-63B9425360A1";
paths = (
{
closed = 1;
nodes = (
"568 -42 OFFCURVE",
"544 -24 OFFCURVE",
"540 -8 QCURVE",
"527 39 OFFCURVE",
"484 195 OFFCURVE",
"478 219 QCURVE {name = dv01;}",
"391 215 OFFCURVE",
"239 204 OFFCURVE",
"168 196 QCURVE",
"152 151 OFFCURVE",
"124 63 OFFCURVE",
"112 21 QCURVE",
"106 1 OFFCURVE",
"76 -21 OFFCURVE",
"58 -21 QCURVE {name = ab01;}",
"33 -21 OFFCURVE",
"7 16 OFFCURVE",
"15 46 QCURVE",
"58 197 OFFCURVE",
"188 513 OFFCURVE",
"268 661 QCURVE",
"278 690 OFFCURVE",
"323 722 OFFCURVE",
"351 722 QCURVE {name = at01;}",
"414 722 OFFCURVE",
"433 660 QCURVE",
"461 597 OFFCURVE",
"516 446 OFFCURVE",
"538 374 QCURVE",
"557 311 OFFCURVE",
"588 204 OFFCURVE",
"611 115 OFFCURVE",
"627 44 OFFCURVE",
"632 18 QCURVE",
"637 -8 OFFCURVE",
"606 -42 OFFCURVE",
"583 -42 QCURVE {name = ab02;}"
);
},
{
closed = 1;
nodes = (
"325 302 OFFCURVE",
"453 308 QCURVE {name = dv02;}",
"441 348 LINE",
"419 424 OFFCURVE",
"371 559 OFFCURVE",
"345 621 QCURVE {name = sv01;}",
"302 530 OFFCURVE",
"232 366 OFFCURVE",
"203 290 QCURVE"
);
}
);
userData = {
com.typemytype.robofont.mark = (
0.656,
1,
0.6,
1
);
};
width = 652;
}
);
leftKerningGroup = A;
rightKerningGroup = A;
unicode = 0041;
},
{
glyphname = Aacute;
layers = (
{
color = 6;
components = (
{
name = Adieresis.comp;
transform = "{1, 0, 0, 1, -28, 13}";
},
{
name = acutecomb.case;
transform = "{1, 0, 0, 1, 712, 24}";
}
);
layerId = master01;
userData = {
com.typemytype.robofont.mark = (
0.6,
0.741,
1,
1
);
};
width = 675;
},
{
layerId = "8E39700C-2F6D-4A17-B4B3-161F49A69C4C";
paths = (
{
closed = 1;
nodes = (
"182 193 OFFCURVE",
"178 193 QCURVE",
"173 193 OFFCURVE",
"170 195 QCURVE",
"150 151 OFFCURVE",
"121 61 OFFCURVE",
"117 12 QCURVE",
"113 -14 OFFCURVE",
"83 -38 OFFCURVE",
"66 -38 QCURVE {name = ab01;}",
"47 -38 OFFCURVE",
"17 -9 OFFCURVE",
"17 20 QCURVE",
"21 66 OFFCURVE",
"45 151 OFFCURVE",
"78 233 OFFCURVE",
"116 312 OFFCURVE",
"136 353 QCURVE",
"159 402 OFFCURVE",
"205 497 OFFCURVE",
"234 542 QCURVE",
"257 578 OFFCURVE",
"310 646 OFFCURVE",
"336 681 QCURVE",
"343 690 OFFCURVE",
"354 707 OFFCURVE",
"365 719 OFFCURVE",
"378 726 OFFCURVE",
"388 726 QCURVE {name = at01;}",
"409 726 OFFCURVE",
"428 707 QCURVE",
"522 560 OFFCURVE",
"638 218 OFFCURVE",
"652 44 QCURVE",
"648 19 OFFCURVE",
"620 -6 OFFCURVE",
"603 -6 QCURVE {name = ab02;}",
"588 -6 OFFCURVE",
"560 14 OFFCURVE",
"552 36 QCURVE",
"547 86 OFFCURVE",
"532 184 OFFCURVE",
"520 233 QCURVE {name = dv01;}",
"439 233 OFFCURVE",
"267 217 OFFCURVE",
"188 195 QCURVE"
);
},
{
closed = 1;
nodes = (
"290 319 OFFCURVE",
"425 329 OFFCURVE",
"493 331 QCURVE {name = dv02;}",
"450 464 OFFCURVE",
"386 582 QCURVE {name = sv01;}",
"363 553 OFFCURVE",
"319 491 OFFCURVE",
"300 459 QCURVE",
"279 424 OFFCURVE",
"245 351 OFFCURVE",
"227 313 QCURVE",
"224 306 LINE"
);
},
{
closed = 1;
nodes = (
"400 741 OFFCURVE",
"384 741 QCURVE {name = sv02;}",
"365 741 OFFCURVE",
"338 768 OFFCURVE",
"338 788 QCURVE",
"339 797 OFFCURVE",
"345 818 OFFCURVE",
"353 828 QCURVE",
"366 843 OFFCURVE",
"408 879 OFFCURVE",
"454 911 OFFCURVE",
"500 933 OFFCURVE",
"516 933 QCURVE {name = sv03;}",
"539 933 OFFCURVE",
"566 907 OFFCURVE",
"566 888 QCURVE",
"566 877 OFFCURVE",
"555 854 OFFCURVE",
"544 843 QCURVE",
"514 829 OFFCURVE",
"459 786 OFFCURVE",
"433 766 QCURVE",
"417 753 LINE"
);
}
);
width = 675;
},
{
color = 6;
components = (
{
name = Adieresis.comp;
transform = "{1, 0, 0, 1, -28, 13}";
},
{
name = acutecomb.case;
transform = "{1, 0, 0, 1, 712, 24}";
}
);
layerId = "92936CB7-D294-4857-B41D-63B9425360A1";
userData = {
com.typemytype.robofont.mark = (
0.6,
0.986,
1,
1
);
};
width = 675;
}
);
leftKerningGroup = A;
rightKerningGroup = A;
unicode = 00C1;
},
{
glyphname = Adieresis;
layers = (
{
color = 6;
components = (
{
name = dieresiscomb.case;
transform = "{1, 0, 0, 1, 513, -45}";
},
{
name = Adieresis.comp;
}
);
layerId = master01;
userData = {
com.typemytype.robofont.mark = (
0.6,
0.741,
1,
1
);
};
width = 712;
},
{
layerId = "8E39700C-2F6D-4A17-B4B3-161F49A69C4C";
paths = (
{
closed = 1;
nodes = (
"118 -36 OFFCURVE",
"88 -60 OFFCURVE",
"71 -60 QCURVE {name = av01;}",
"52 -60 OFFCURVE",
"22 -31 OFFCURVE",
"22 -2 QCURVE",
"30 52 OFFCURVE",
"71 156 OFFCURVE",
"89 207 QCURVE",
"99 235 OFFCURVE",
"113 291 OFFCURVE",
"124 318 QCURVE",
"153 397 OFFCURVE",
"229 541 OFFCURVE",
"274 611 QCURVE",
"284 627 OFFCURVE",
"306 669 OFFCURVE",
"331 706 OFFCURVE",
"361 732 OFFCURVE",
"381 732 QCURVE {name = at01;}",
"392 732 OFFCURVE",
"413 723 OFFCURVE",
"427 715 QCURVE",
"446 702 OFFCURVE",
"480 639 OFFCURVE",
"508 565 OFFCURVE",
"528 494 OFFCURVE",
"534 474 QCURVE",
"539 457 OFFCURVE",
"550 413 OFFCURVE",
"560 369 OFFCURVE",
"568 333 OFFCURVE",
"570 323 QCURVE",
"577 286 OFFCURVE",
"600 223 OFFCURVE",
"627 165 OFFCURVE",
"656 109 OFFCURVE",
"669 78 QCURVE",
"685 59 OFFCURVE",
"685 39 QCURVE",
"685 20 OFFCURVE",
"658 -5 OFFCURVE",
"635 -5 QCURVE {name = ab01;}",
"630 -5 OFFCURVE",
"621 -5 OFFCURVE",
"616 -3 QCURVE",
"600 6 OFFCURVE",
"566 58 OFFCURVE",
"536 119 OFFCURVE",
"511 179 OFFCURVE",
"504 196 QCURVE",
"494 226 LINE",
"421 227 OFFCURVE",
"276 233 OFFCURVE",
"203 235 QCURVE {name = dv01;}",
"192 200 LINE",
"175 147 OFFCURVE",
"135 44 OFFCURVE",
"122 -10 QCURVE"
);
},
{
closed = 1;
nodes = (
"300 469 OFFCURVE",
"256 381 OFFCURVE",
"238 334 QCURVE {name = dv02;}",
"296 332 OFFCURVE",
"411 328 OFFCURVE",
"468 326 QCURVE",
"459 386 OFFCURVE",
"424 506 OFFCURVE",
"403 560 QCURVE",
"399 570 OFFCURVE",
"391 594 OFFCURVE",
"385 605 QCURVE {name = sv01;}",
"380 595 LINE",
"368 573 OFFCURVE",
"341 532 OFFCURVE",
"327 511 QCURVE"
);
},
{
closed = 1;
nodes = (
"145 953 OFFCURVE",
"173 973 OFFCURVE",
"188 973 QCURVE {name = sv02;}",
"205 973 OFFCURVE",
"233 949 OFFCURVE",
"235 926 QCURVE",
"235 922 OFFCURVE",
"237 916 QCURVE",
"248 892 OFFCURVE",
"272 843 OFFCURVE",
"272 817 QCURVE",
"272 793 OFFCURVE",
"244 765 OFFCURVE",
"225 765 QCURVE {name = at02;}",
"213 765 OFFCURVE",
"190 776 OFFCURVE",
"180 789 QCURVE",
"174 802 OFFCURVE",
"168 826 OFFCURVE",
"165 839 QCURVE",
"156 858 OFFCURVE",
"135 896 OFFCURVE",
"135 917 QCURVE",
"135 921 OFFCURVE",
"136 927 OFFCURVE",
"137 931 QCURVE"
);
},
{
closed = 1;
nodes = (
"427 930 OFFCURVE",
"458 959 OFFCURVE",
"477 959 QCURVE {name = sv04;}",
"500 959 OFFCURVE",
"523 926 OFFCURVE",
"531 893 QCURVE",
"535 876 OFFCURVE",
"548 837 OFFCURVE",
"548 826 QCURVE",
"548 802 OFFCURVE",
"520 774 OFFCURVE",
"501 774 QCURVE {name = sv03;}",
"489 774 OFFCURVE",
"466 785 OFFCURVE",
"456 798 QCURVE",
"445 822 OFFCURVE",
"432 875 OFFCURVE",
"427 901 QCURVE"
);
}
);
width = 712;
},
{
color = 6;
components = (
{
name = dieresiscomb.case;
transform = "{1, 0, 0, 1, 513, -45}";
},
{
name = Adieresis.comp;
}
);
layerId = "92936CB7-D294-4857-B41D-63B9425360A1";
userData = {
com.typemytype.robofont.mark = (
0.6,
0.986,
1,
1
);
};
width = 712;
}
);
leftKerningGroup = A;
rightKerningGroup = A;
unicode = 00C4;
},
{
glyphname = Agrave;
layers = (
{
color = 6;
components = (
{
name = A;
transform = "{1, 0, 0, 1, -7, 0}";
},
{
name = gravecomb.case;
transform = "{1, 0, 0, 1, 699, 11}";
}
);
layerId = master01;
userData = {
com.typemytype.robofont.mark = (
0.6,
0.741,
1,
1
);
};
width = 653;
},
{
layerId = "8E39700C-2F6D-4A17-B4B3-161F49A69C4C";
paths = (
{
closed = 1;
nodes = (
"109 -2 OFFCURVE",
"79 -26 OFFCURVE",
"62 -26 QCURVE {name = ab01;}",
"43 -26 OFFCURVE",
"13 3 OFFCURVE",
"13 32 QCURVE",
"24 107 OFFCURVE",
"79 248 OFFCURVE",
"152 381 OFFCURVE",
"239 506 OFFCURVE",
"283 565 QCURVE",
"297 584 OFFCURVE",
"328 639 OFFCURVE",
"361 691 OFFCURVE",
"397 728 OFFCURVE",
"416 728 QCURVE {name = at01;}",
"444 728 OFFCURVE",
"486 681 OFFCURVE",
"516 614 OFFCURVE",
"536 542 OFFCURVE",
"542 518 QCURVE",
"571 405 OFFCURVE",
"611 173 OFFCURVE",
"619 56 QCURVE",
"615 31 OFFCURVE",
"587 6 OFFCURVE",
"570 6 QCURVE {name = ab02;}",
"555 6 OFFCURVE",
"527 26 OFFCURVE",
"519 48 QCURVE",
"516 86 OFFCURVE",
"508 162 OFFCURVE",
"502 200 QCURVE",
"417 199 OFFCURVE",
"250 195 OFFCURVE",
"165 194 QCURVE {name = dv01;}",
"146 153 OFFCURVE",
"120 69 OFFCURVE",
"113 24 QCURVE"
);
},
{
closed = 1;
nodes = (
"371 514 OFFCURVE",
"266 370 OFFCURVE",
"220 294 QCURVE {name = dv02;}",
"286 296 OFFCURVE",
"419 299 OFFCURVE",
"486 300 QCURVE",
"469 388 LINE",
"465 410 OFFCURVE",
"455 461 OFFCURVE",
"442 514 OFFCURVE",
"426 566 OFFCURVE",
"416 589 QCURVE {name = sv01;}"
);
},
{
closed = 1;
nodes = (
"230 898 OFFCURVE",
"224 918 OFFCURVE",
"224 927 QCURVE",
"224 947 OFFCURVE",
"251 974 OFFCURVE",
"272 974 QCURVE {name = sv03;}",
"285 974 OFFCURVE",
"299 968 QCURVE",
"343 937 OFFCURVE",
"413 856 OFFCURVE",
"449 818 QCURVE",
"458 801 OFFCURVE",
"458 787 QCURVE",
"458 767 OFFCURVE",
"430 740 OFFCURVE",
"410 740 QCURVE {name = sv02;}",
"402 740 OFFCURVE",
"385 745 OFFCURVE",
"376 751 QCURVE",
"342 786 OFFCURVE",
"278 861 OFFCURVE",
"238 889 QCURVE"
);
}
);
width = 653;
},
{
color = 6;
components = (
{
name = A;
transform = "{1, 0, 0, 1, -7, 0}";
},
{
name = gravecomb.case;
transform = "{1, 0, 0, 1, 699, 11}";
}
);
layerId = "92936CB7-D294-4857-B41D-63B9425360A1";
userData = {
com.typemytype.robofont.mark = (
0.6,
0.986,
1,
1
);
};
width = 653;
}
);
leftKerningGroup = A;
rightKerningGroup = A;
unicode = 00C0;
},
{
glyphname = Aring;
layers = (
{
anchors = (
{
name = bottom;
position = "{314, 0}";
},
{
name = top;
position = "{372, 799}";
}
);
layerId = master01;
paths = (
{
closed = 1;
nodes = (
"311 811 OFFCURVE",
"259 786 OFFCURVE",
"259 698 CURVE SMOOTH",
"259 654 OFFCURVE",
"272 601 OFFCURVE",
"303 570 CURVE",
"276 550 OFFCURVE",
"257 518 OFFCURVE",
"238 493 CURVE SMOOTH",
"195 437 OFFCURVE",
"168 378 OFFCURVE",
"136 318 CURVE",
"83 223 OFFCURVE",
"18 126 OFFCURVE",
"-6 20 CURVE",
"-6 -17 OFFCURVE",
"17 -38 OFFCURVE",
"41 -38 CURVE SMOOTH",
"60 -38 OFFCURVE",
"78 -27 OFFCURVE",
"91 -4 CURVE",
"106 60 OFFCURVE",
"133 117 OFFCURVE",
"166 176 CURVE",
"262 176 OFFCURVE",
"359 178 OFFCURVE",
"456 178 CURVE",
"468 145 LINE SMOOTH",
"489 89 OFFCURVE",
"519 -27 OFFCURVE",
"583 -27 CURVE SMOOTH",
"610 -27 OFFCURVE",
"631 -7 OFFCURVE",
"631 20 CURVE SMOOTH",
"631 29 OFFCURVE",
"628 40 OFFCURVE",
"622 51 CURVE",
"589 87 OFFCURVE",
"576 140 OFFCURVE",
"560 185 CURVE SMOOTH",
"515 307 OFFCURVE",
"483 444 OFFCURVE",
"403 548 CURVE",
"466 563 OFFCURVE",
"505 612 OFFCURVE",
"505 684 CURVE SMOOTH",
"505 727 OFFCURVE",
"489 769 OFFCURVE",
"457 792 CURVE SMOOTH",
"445 800 OFFCURVE",
"430 806 OFFCURVE",
"422 806 CURVE SMOOTH",
"417 806 LINE",
"407 818 OFFCURVE",
"393 825 OFFCURVE",
"374 827 CURVE"
);
},
{
closed = 1;
nodes = (
"287 396 OFFCURVE",
"313 431 OFFCURVE",
"341 462 CURVE",
"377 406 OFFCURVE",
"400 342 OFFCURVE",
"423 278 CURVE",
"356 278 OFFCURVE",
"291 276 OFFCURVE",
"224 276 CURVE",
"268 357 LINE"
);
},
{
closed = 1;
nodes = (
"401 708 OFFCURVE",
"405 697 OFFCURVE",
"405 685 CURVE SMOOTH",
"405 666 OFFCURVE",
"393 647 OFFCURVE",
"372 647 CURVE",
"361 662 OFFCURVE",
"356 676 OFFCURVE",
"356 690 CURVE SMOOTH",
"356 705 OFFCURVE",
"363 716 OFFCURVE",
"376 723 CURVE",
"380 719 OFFCURVE",
"383 715 OFFCURVE",
"390 712 CURVE SMOOTH"
);
}
);
width = 654;
},
{
anchors = (
{
name = bottom;
position = "{314, 0}";
},
{
name = top;
position = "{372, 799}";
}
);
layerId = "8E39700C-2F6D-4A17-B4B3-161F49A69C4C";
paths = (
{
closed = 1;
nodes = (
"402 824 OFFCURVE",
"417 806 QCURVE",
"422 806 LINE",
"428 806 OFFCURVE",
"448 798 OFFCURVE",
"457 792 QCURVE",
"481 775 OFFCURVE",
"505 716 OFFCURVE",
"505 684 QCURVE",
"505 630 OFFCURVE",
"450 559 OFFCURVE",
"403 548 QCURVE",
"433 509 OFFCURVE",
"477 420 OFFCURVE",
"513 326 OFFCURVE",
"543 231 OFFCURVE",
"560 185 QCURVE",
"572 151 OFFCURVE",
"597 78 OFFCURVE",
"622 51 QCURVE",
"631 34 OFFCURVE",
"631 20 QCURVE",
"631 0 OFFCURVE",
"603 -27 OFFCURVE",
"583 -27 QCURVE {name = ab02;}",
"559 -27 OFFCURVE",
"523 11 OFFCURVE",
"496 65 OFFCURVE",
"476 124 OFFCURVE",
"468 145 QCURVE",
"456 178 LINE",
"383 178 OFFCURVE",
"238 176 OFFCURVE",
"166 176 QCURVE {name = dv03;}",
"141 132 OFFCURVE",
"102 44 OFFCURVE",
"91 -4 QCURVE",
"81 -21 OFFCURVE",
"55 -38 OFFCURVE",
"41 -38 QCURVE {name = ab01;}",
"23 -38 OFFCURVE",
"-6 -8 OFFCURVE",
"-6 20 QCURVE",
"3 60 OFFCURVE",
"35 136 OFFCURVE",
"74 210 OFFCURVE",
"116 282 OFFCURVE",
"136 318 QCURVE",
"160 363 OFFCURVE",
"206 451 OFFCURVE",
"238 493 QCURVE",
"252 512 OFFCURVE",
"283 555 OFFCURVE",
"303 570 QCURVE",
"280 593 OFFCURVE",
"259 665 OFFCURVE",
"259 698 QCURVE",
"259 731 OFFCURVE",
"277 775 OFFCURVE",
"309 804 OFFCURVE",
"350 821 OFFCURVE",
"374 827 QCURVE {name = dv02;}"
);
},
{
closed = 1;
nodes = (
"257 337 OFFCURVE",
"235 296 OFFCURVE",
"224 276 QCURVE {name = dv04;}",
"274 276 OFFCURVE",
"373 278 OFFCURVE",
"423 278 QCURVE",
"406 326 OFFCURVE",
"368 420 OFFCURVE",
"341 462 QCURVE {name = sv01;}",
"320 439 OFFCURVE",
"282 386 OFFCURVE",
"268 357 QCURVE"
);
},
{
closed = 1;
nodes = (
"385 714 OFFCURVE",
"379 720 OFFCURVE",
"376 723 QCURVE {name = dv01;}",
"356 713 OFFCURVE",
"356 690 QCURVE",
"356 669 OFFCURVE",
"372 647 QCURVE {name = av01;}",
"388 647 OFFCURVE",
"405 671 OFFCURVE",
"405 685 QCURVE",
"405 694 OFFCURVE",
"398 709 OFFCURVE",
"390 712 QCURVE"
);
}
);
width = 654;
},
{
anchors = (
{
name = bottom;
position = "{314, 0}";
},
{
name = top;
position = "{372, 799}";
}
);
layerId = "92936CB7-D294-4857-B41D-63B9425360A1";
paths = (
{
closed = 1;
nodes = (
"23 -38 OFFCURVE",
"-6 -8 OFFCURVE",
"-6 20 QCURVE",
"3 60 OFFCURVE",
"35 136 OFFCURVE",
"74 210 OFFCURVE",
"116 282 OFFCURVE",
"136 318 QCURVE",
"160 363 OFFCURVE",
"206 451 OFFCURVE",
"238 493 QCURVE",
"252 512 OFFCURVE",
"283 555 OFFCURVE",
"303 570 QCURVE",
"280 593 OFFCURVE",
"259 665 OFFCURVE",
"259 698 QCURVE",
"259 731 OFFCURVE",
"277 775 OFFCURVE",
"309 804 OFFCURVE",
"350 821 OFFCURVE",
"374 827 QCURVE {name = dv02;}",
"402 824 OFFCURVE",
"417 806 QCURVE",
"422 806 LINE",
"428 806 OFFCURVE",
"448 798 OFFCURVE",
"457 792 QCURVE",
"481 775 OFFCURVE",
"505 716 OFFCURVE",
"505 684 QCURVE",
"505 630 OFFCURVE",
"450 559 OFFCURVE",
"403 548 QCURVE",
"433 509 OFFCURVE",
"477 420 OFFCURVE",
"513 326 OFFCURVE",
"543 231 OFFCURVE",
"560 185 QCURVE",
"572 151 OFFCURVE",
"597 78 OFFCURVE",
"622 51 QCURVE",
"631 34 OFFCURVE",
"631 20 QCURVE",
"631 0 OFFCURVE",
"603 -27 OFFCURVE",
"583 -27 QCURVE {name = ab02;}",
"559 -27 OFFCURVE",
"523 11 OFFCURVE",
"496 65 OFFCURVE",
"476 124 OFFCURVE",
"468 145 QCURVE",
"456 178 LINE",
"383 178 OFFCURVE",
"238 176 OFFCURVE",
"166 176 QCURVE {name = dv03;}",
"141 132 OFFCURVE",
"102 44 OFFCURVE",
"91 -4 QCURVE",
"81 -21 OFFCURVE",
"55 -38 OFFCURVE",
"41 -38 QCURVE {name = ab01;}"
);
},
{
closed = 1;
nodes = (
"274 276 OFFCURVE",
"373 278 OFFCURVE",
"423 278 QCURVE",
"406 326 OFFCURVE",
"368 420 OFFCURVE",
"341 462 QCURVE {name = sv01;}",
"320 439 OFFCURVE",
"282 386 OFFCURVE",
"268 357 QCURVE",
"257 337 OFFCURVE",
"235 296 OFFCURVE",
"224 276 QCURVE {name = dv04;}"
);
},
{
closed = 1;
nodes = (
"388 647 OFFCURVE",
"405 671 OFFCURVE",
"405 685 QCURVE",
"405 694 OFFCURVE",
"398 709 OFFCURVE",
"390 712 QCURVE",
"385 714 OFFCURVE",
"379 720 OFFCURVE",
"376 723 QCURVE {name = dv01;}",
"356 713 OFFCURVE",
"356 690 QCURVE",
"356 669 OFFCURVE",
"372 647 QCURVE {name = av01;}"
);
}
);
width = 654;
}
);
leftKerningGroup = A;
rightKerningGroup = A;
unicode = 00C5;
},
{
glyphname = AE;
layers = (
{
layerId = master01;
paths = (
{
closed = 1;
nodes = (
"245 146 OFFCURVE",
"322 149 OFFCURVE",
"401 150 CURVE",
"401 107 OFFCURVE",
"401 67 OFFCURVE",
"404 24 CURVE",
"413 -1 OFFCURVE",
"423 -11 OFFCURVE",
"450 -18 CURVE",
"558 -13 OFFCURVE",
"666 -1 OFFCURVE",
"775 3 CURVE",
"811 6 OFFCURVE",
"829 30 OFFCURVE",
"829 53 CURVE SMOOTH",
"829 76 OFFCURVE",
"811 99 OFFCURVE",
"775 103 CURVE",
"683 100 OFFCURVE",
"594 92 OFFCURVE",
"502 85 CURVE",
"499 161 OFFCURVE",
"501 238 OFFCURVE",
"498 315 CURVE",
"555 318 OFFCURVE",
"610 325 OFFCURVE",
"669 326 CURVE",
"705 329 OFFCURVE",
"723 353 OFFCURVE",
"723 376 CURVE SMOOTH",
"723 399 OFFCURVE",
"705 422 OFFCURVE",
"669 426 CURVE",
"609 425 OFFCURVE",
"552 418 OFFCURVE",
"492 415 CURVE",
"485 487 OFFCURVE",
"478 557 OFFCURVE",
"463 628 CURVE",
"486 632 OFFCURVE",
"508 633 OFFCURVE",
"533 633 CURVE SMOOTH",
"606 633 OFFCURVE",
"685 621 OFFCURVE",
"745 618 CURVE",
"781 621 OFFCURVE",
"799 645 OFFCURVE",
"799 668 CURVE SMOOTH",
"799 691 OFFCURVE",
"781 714 OFFCURVE",
"745 718 CURVE",
"674 721 OFFCURVE",
"601 733 OFFCURVE",
"528 733 CURVE SMOOTH",
"476 733 OFFCURVE",
"421 725 OFFCURVE",
"374 705 CURVE SMOOTH",
"353 696 OFFCURVE",
"340 682 OFFCURVE",
"335 665 CURVE",
"314 632 OFFCURVE",
"299 588 OFFCURVE",
"288 568 CURVE SMOOTH",
"225 456 OFFCURVE",
"164 348 OFFCURVE",
"104 236 CURVE SMOOTH",
"64 161 OFFCURVE",
"12 96 OFFCURVE",
"-23 19 CURVE",
"-26 9 OFFCURVE",
"-28 1 OFFCURVE",
"-28 -6 CURVE SMOOTH",
"-28 -37 OFFCURVE",
"-6 -55 OFFCURVE",
"18 -55 CURVE SMOOTH",
"35 -55 OFFCURVE",
"57 -45 OFFCURVE",
"68 -21 CURVE SMOOTH",
"96 38 OFFCURVE",
"131 90 OFFCURVE",
"166 146 CURVE"
);
},
{
closed = 1;
nodes = (
"397 440 OFFCURVE",
"399 342 OFFCURVE",
"400 250 CURVE",
"223 246 LINE",
"254 303 OFFCURVE",
"281 359 OFFCURVE",
"314 415 CURVE SMOOTH",
"382 532 LINE"
);
}
);
width = 858;
},
{
layerId = "8E39700C-2F6D-4A17-B4B3-161F49A69C4C";
paths = (
{
closed = 1;
nodes = (
"140 104 OFFCURVE",
"89 23 OFFCURVE",
"68 -21 QCURVE",
"60 -39 OFFCURVE",
"31 -55 OFFCURVE",
"18 -55 QCURVE {name = av01;}",
"0 -55 OFFCURVE",
"-28 -29 OFFCURVE",
"-28 -6 QCURVE",
"-28 4 OFFCURVE",
"-23 19 QCURVE",
"3 77 OFFCURVE",
"74 180 OFFCURVE",
"104 236 QCURVE",
"149 320 OFFCURVE",
"241 484 OFFCURVE",
"288 568 QCURVE",
"296 583 OFFCURVE",
"319 640 OFFCURVE",
"335 665 QCURVE",
"342 691 OFFCURVE",
"374 705 QCURVE",
"409 720 OFFCURVE",
"489 733 OFFCURVE",
"528 733 QCURVE {name = at01;}",
"583 733 OFFCURVE",
"692 720 OFFCURVE",
"745 718 QCURVE",
"772 715 OFFCURVE",
"799 685 OFFCURVE",
"799 668 QCURVE",
"799 651 OFFCURVE",
"772 620 OFFCURVE",
"745 618 QCURVE",
"700 620 OFFCURVE",
"588 633 OFFCURVE",
"533 633 QCURVE {name = sv01;}",
"514 633 OFFCURVE",
"480 631 OFFCURVE",
"463 628 QCURVE",
"474 575 OFFCURVE",
"487 469 OFFCURVE",
"492 415 QCURVE {name = dv02;}",
"537 417 OFFCURVE",
"624 425 OFFCURVE",
"669 426 QCURVE",
"696 423 OFFCURVE",
"723 393 OFFCURVE",
"723 376 QCURVE",
"723 359 OFFCURVE",
"696 328 OFFCURVE",
"669 326 QCURVE",
"625 325 OFFCURVE",
"541 317 OFFCURVE",
"498 315 QCURVE {name = dv01;}",
"500 257 OFFCURVE",
"500 142 OFFCURVE",
"502 85 QCURVE {name = sv02;}",
"571 90 OFFCURVE",
"706 101 OFFCURVE",
"775 103 QCURVE",
"802 100 OFFCURVE",
"829 70 OFFCURVE",
"829 53 QCURVE",
"829 36 OFFCURVE",
"802 5 OFFCURVE",
"775 3 QCURVE",
"693 0 OFFCURVE",
"531 -14 OFFCURVE",
"450 -18 QCURVE {name = ab01;}",
"430 -13 OFFCURVE",
"411 5 OFFCURVE",
"404 24 QCURVE",
"402 56 OFFCURVE",
"401 118 OFFCURVE",
"401 150 QCURVE {name = dv03;}",
"342 149 OFFCURVE",
"225 146 OFFCURVE",
"166 146 QCURVE"
);
},
{
closed = 1;
nodes = (
"289 373 OFFCURVE",
"246 289 OFFCURVE",
"223 246 QCURVE",
"400 250 LINE {name = dv04;}",
"399 319 OFFCURVE",
"393 463 OFFCURVE",
"382 532 QCURVE {name = sv03;}",
"365 503 OFFCURVE",
"331 444 OFFCURVE",
"314 415 QCURVE"
);
}
);
width = 858;
},
{
layerId = "92936CB7-D294-4857-B41D-63B9425360A1";
paths = (
{
closed = 1;
nodes = (
"0 -55 OFFCURVE",
"-28 -29 OFFCURVE",
"-28 -6 QCURVE",
"-28 4 OFFCURVE",
"-23 19 QCURVE",
"3 77 OFFCURVE",
"74 180 OFFCURVE",
"104 236 QCURVE",
"149 320 OFFCURVE",
"241 484 OFFCURVE",
"288 568 QCURVE",
"296 583 OFFCURVE",
"319 640 OFFCURVE",
"335 665 QCURVE",
"342 691 OFFCURVE",
"374 705 QCURVE",
"409 720 OFFCURVE",
"489 733 OFFCURVE",
"528 733 QCURVE {name = at01;}",
"583 733 OFFCURVE",
"692 720 OFFCURVE",
"745 718 QCURVE",
"772 715 OFFCURVE",
"799 685 OFFCURVE",
"799 668 QCURVE",
"799 651 OFFCURVE",
"772 620 OFFCURVE",
"745 618 QCURVE",
"700 620 OFFCURVE",
"588 633 OFFCURVE",
"533 633 QCURVE {name = sv01;}",
"514 633 OFFCURVE",
"480 631 OFFCURVE",
"463 628 QCURVE",
"474 575 OFFCURVE",
"487 469 OFFCURVE",
"492 415 QCURVE {name = dv02;}",
"537 417 OFFCURVE",
"624 425 OFFCURVE",
"669 426 QCURVE",
"696 423 OFFCURVE",
"723 393 OFFCURVE",
"723 376 QCURVE",
"723 359 OFFCURVE",
"696 328 OFFCURVE",
"669 326 QCURVE",
"625 325 OFFCURVE",
"541 317 OFFCURVE",
"498 315 QCURVE {name = dv01;}",
"500 257 OFFCURVE",
"500 142 OFFCURVE",
"502 85 QCURVE {name = sv02;}",
"571 90 OFFCURVE",
"706 101 OFFCURVE",
"775 103 QCURVE",
"802 100 OFFCURVE",
"829 70 OFFCURVE",
"829 53 QCURVE",
"829 36 OFFCURVE",
"802 5 OFFCURVE",
"775 3 QCURVE",
"693 0 OFFCURVE",
"531 -14 OFFCURVE",
"450 -18 QCURVE {name = ab01;}",
"430 -13 OFFCURVE",
"411 5 OFFCURVE",
"404 24 QCURVE",
"402 56 OFFCURVE",
"401 118 OFFCURVE",
"401 150 QCURVE {name = dv03;}",
"342 149 OFFCURVE",
"225 146 OFFCURVE",
"166 146 QCURVE",
"140 104 OFFCURVE",
"89 23 OFFCURVE",
"68 -21 QCURVE",
"60 -39 OFFCURVE",
"31 -55 OFFCURVE",
"18 -55 QCURVE {name = av01;}"
);
},
{
closed = 1;
nodes = (
"400 250 LINE {name = dv04;}",
"399 319 OFFCURVE",
"393 463 OFFCURVE",
"382 532 QCURVE {name = sv03;}",
"365 503 OFFCURVE",
"331 444 OFFCURVE",
"314 415 QCURVE",
"289 373 OFFCURVE",
"246 289 OFFCURVE",
"223 246 QCURVE"
);
}
);
width = 858;
}
);
leftKerningGroup = A;
rightKerningGroup = E;
unicode = 00C6;
},
{
color = 4;
glyphname = B;
layers = (
{
anchors = (
{
name = bottom;
position = "{341, -13}";
},
{
name = top;
position = "{337, 725}";
}
);
background = {
paths = (
{
closed = 1;
nodes = (
"475 -32 OFFCURVE",
"600 49 OFFCURVE",
"617 172 CURVE SMOOTH",
"636 310 OFFCURVE",
"530 398 OFFCURVE",
"350 423 CURVE",
"348 397 LINE",
"502 405 OFFCURVE",
"590 460 OFFCURVE",
"600 548 CURVE SMOOTH",
"616 695 OFFCURVE",
"481 747 OFFCURVE",
"354 747 CURVE SMOOTH",
"221 747 OFFCURVE",
"103 707 OFFCURVE",
"55 664 CURVE SMOOTH",
"20 633 OFFCURVE",
"39 588 OFFCURVE",
"100 607 CURVE SMOOTH",
"172 630 OFFCURVE",
"249 653 OFFCURVE",
"335 653 CURVE SMOOTH",
"435 653 OFFCURVE",
"497 627 OFFCURVE",
"493 558 CURVE SMOOTH",
"489 495 OFFCURVE",
"419 459 OFFCURVE",
"322 446 CURVE SMOOTH",
"268 439 OFFCURVE",
"261 373 OFFCURVE",
"321 358 CURVE SMOOTH",
"465 322 OFFCURVE",
"516 277 OFFCURVE",
"506 188 CURVE SMOOTH",
"497 106 OFFCURVE",
"413 60 OFFCURVE",
"337 60 CURVE SMOOTH",
"282 60 OFFCURVE",
"242 81 OFFCURVE",
"227 86 CURVE SMOOTH",
"166 107 OFFCURVE",
"136 56 OFFCURVE",
"178 20 CURVE SMOOTH",
"212 -9 OFFCURVE",
"276 -32 OFFCURVE",
"348 -32 CURVE SMOOTH"
);
},
{
closed = 1;
nodes = (
"144 440 OFFCURVE",
"132 236 OFFCURVE",
"122 79 CURVE SMOOTH",
"118 14 OFFCURVE",
"214 11 OFFCURVE",
"222 84 CURVE SMOOTH",
"237 222 OFFCURVE",
"252 474 OFFCURVE",
"246 658 CURVE",
"143 634 LINE"
);
}
);
};
layerId = master01;
paths = (
{
closed = 1;
nodes = (
"475 -32 OFFCURVE",
"600 49 OFFCURVE",
"617 172 CURVE SMOOTH",
"636 310 OFFCURVE",
"530 398 OFFCURVE",
"350 423 CURVE",
"348 397 LINE",
"502 405 OFFCURVE",
"590 460 OFFCURVE",
"600 548 CURVE SMOOTH",
"616 695 OFFCURVE",
"481 747 OFFCURVE",
"354 747 CURVE SMOOTH",
"221 747 OFFCURVE",
"103 707 OFFCURVE",
"55 664 CURVE SMOOTH",
"20 633 OFFCURVE",
"39 588 OFFCURVE",
"100 607 CURVE SMOOTH",
"172 630 OFFCURVE",
"249 653 OFFCURVE",
"335 653 CURVE SMOOTH",
"435 653 OFFCURVE",
"497 627 OFFCURVE",
"493 558 CURVE SMOOTH",
"489 495 OFFCURVE",
"419 454 OFFCURVE",
"291 442 CURVE SMOOTH",
"230 436 OFFCURVE",
"206 416 OFFCURVE",
"206 388 CURVE SMOOTH",
"206 358 OFFCURVE",
"235 338 OFFCURVE",
"321 358 CURVE",
"465 322 OFFCURVE",
"516 277 OFFCURVE",
"506 188 CURVE SMOOTH",
"497 106 OFFCURVE",
"413 60 OFFCURVE",
"337 60 CURVE SMOOTH",
"282 60 OFFCURVE",
"242 81 OFFCURVE",
"227 86 CURVE SMOOTH",
"166 107 OFFCURVE",
"136 56 OFFCURVE",
"178 20 CURVE SMOOTH",
"212 -9 OFFCURVE",
"276 -32 OFFCURVE",
"348 -32 CURVE SMOOTH"
);
},
{
closed = 1;
nodes = (
"144 440 OFFCURVE",
"132 236 OFFCURVE",
"122 79 CURVE SMOOTH",
"118 14 OFFCURVE",
"214 11 OFFCURVE",
"222 84 CURVE SMOOTH",
"237 222 OFFCURVE",
"252 474 OFFCURVE",
"246 658 CURVE",
"143 634 LINE"
);
}
);
userData = {
com.typemytype.robofont.mark = (
0.619,
1,
0.6,
1
);
};
width = 666;
},
{
anchors = (
{
name = bottom;
position = "{341, -13}";
},
{
name = top;
position = "{337, 725}";
}
);
layerId = "8E39700C-2F6D-4A17-B4B3-161F49A69C4C";
paths = (
{
closed = 1;
nodes = (
"497 601 OFFCURVE",
"461 626 OFFCURVE",
"408 641 OFFCURVE",
"350 648 OFFCURVE",
"329 648 QCURVE {name = sv01;}",
"289 648 OFFCURVE",
"243 640 QCURVE",
"249 601 OFFCURVE",
"249 562 QCURVE",
"249 514 OFFCURVE",
"238 420 OFFCURVE",
"238 372 QCURVE",
"238 364 OFFCURVE",
"239 336 OFFCURVE",
"239 301 OFFCURVE",
"240 262 OFFCURVE",
"240 243 QCURVE",
"240 176 OFFCURVE",
"222 114 OFFCURVE",
"187 114 QCURVE",
"163 114 OFFCURVE",
"137 143 OFFCURVE",
"125 183 OFFCURVE",
"120 225 OFFCURVE",
"116 239 QCURVE",
"108 268 OFFCURVE",
"86 324 OFFCURVE",
"77 353 QCURVE",
"71 372 OFFCURVE",
"52 427 OFFCURVE",
"35 488 OFFCURVE",
"23 551 OFFCURVE",
"23 579 QCURVE",
"23 599 OFFCURVE",
"31 635 OFFCURVE",
"40 649 QCURVE",
"57 676 OFFCURVE",
"130 713 OFFCURVE",
"217 737 OFFCURVE",
"306 748 OFFCURVE",
"341 748 QCURVE {name = at01;}",
"395 748 OFFCURVE",
"490 721 OFFCURVE",
"559 674 OFFCURVE",
"599 611 OFFCURVE",
"599 575 QCURVE",
"599 533 OFFCURVE",
"538 444 OFFCURVE",
"475 414 QCURVE",
"493 404 LINE",
"544 373 OFFCURVE",
"615 280 OFFCURVE",
"615 220 QCURVE",
"615 171 OFFCURVE",
"566 79 OFFCURVE",
"488 7 OFFCURVE",
"390 -36 OFFCURVE",
"341 -36 QCURVE {name = ab01;}",
"323 -36 OFFCURVE",
"261 -30 OFFCURVE",
"202 -11 OFFCURVE",
"158 23 OFFCURVE",
"158 51 QCURVE",
"158 74 OFFCURVE",
"186 101 OFFCURVE",
"205 101 QCURVE",
"216 101 OFFCURVE",
"241 89 OFFCURVE",
"249 79 QCURVE",
"269 71 OFFCURVE",
"310 63 OFFCURVE",
"326 63 QCURVE {name = sv02;}",
"365 63 OFFCURVE",
"435 93 OFFCURVE",
"486 140 OFFCURVE",
"516 197 OFFCURVE",
"516 224 QCURVE",
"516 253 OFFCURVE",
"485 292 OFFCURVE",
"438 320 OFFCURVE",
"383 342 OFFCURVE",
"336 366 OFFCURVE",
"305 396 OFFCURVE",
"305 418 QCURVE",
"305 437 OFFCURVE",
"333 462 OFFCURVE",
"376 482 OFFCURVE",
"426 501 OFFCURVE",
"469 525 OFFCURVE",
"497 558 OFFCURVE",
"497 583 QCURVE"
);
},
{
closed = 1;
nodes = (
"147 484 OFFCURVE",
"151 533 OFFCURVE",
"151 557 QCURVE",
"151 582 OFFCURVE",
"148 608 QCURVE",
"134 602 OFFCURVE",
"124 588 OFFCURVE",
"124 569 QCURVE",
"124 546 OFFCURVE",
"136 489 OFFCURVE",
"145 460 QCURVE"
);
}
);
width = 666;
},
{
anchors = (
{
name = bottom;
position = "{341, -13}";
},
{
name = top;
position = "{337, 725}";
}
);
background = {
paths = (
{
closed = 1;
nodes = (
"475 -32 OFFCURVE",
"600 49 OFFCURVE",
"617 172 CURVE SMOOTH",
"633 288 OFFCURVE",
"560 369 OFFCURVE",
"429 407 CURVE {name = iv02;}",
"533 427 OFFCURVE",
"592 477 OFFCURVE",
"600 548 CURVE SMOOTH",
"616 695 OFFCURVE",
"481 747 OFFCURVE",
"354 747 CURVE SMOOTH",
"221 747 OFFCURVE",
"103 707 OFFCURVE",
"55 664 CURVE SMOOTH",
"20 633 OFFCURVE",
"39 588 OFFCURVE",
"100 607 CURVE",
"114 612 OFFCURVE",
"128 616 OFFCURVE",
"143 620 CURVE {name = sv02;}",
"143 430 OFFCURVE",
"132 232 OFFCURVE",
"122 79 CURVE SMOOTH",
"120 46 OFFCURVE",
"144 29 OFFCURVE",
"169 30 CURVE",
"171 26 OFFCURVE",
"174 23 OFFCURVE",
"178 20 CURVE",
"212 -9 OFFCURVE",
"276 -32 OFFCURVE",
"348 -32 CURVE SMOOTH"
);
},
{
closed = 1;
nodes = (
"282 60 OFFCURVE",
"242 81 OFFCURVE",
"227 86 CURVE",
"225 87 OFFCURVE",
"224 87 OFFCURVE",
"222 87 CURVE",
"230 156 OFFCURVE",
"237 251 OFFCURVE",
"242 352 CURVE",
"260 348 OFFCURVE",
"286 350 OFFCURVE",
"321 358 CURVE",
"465 322 OFFCURVE",
"516 277 OFFCURVE",
"506 188 CURVE SMOOTH",
"497 106 OFFCURVE",
"413 60 OFFCURVE",
"337 60 CURVE SMOOTH"
);
},
{
closed = 1;
nodes = (
"247 506 OFFCURVE",
"248 580 OFFCURVE",
"246 645 CURVE",
"275 650 OFFCURVE",
"304 653 OFFCURVE",
"335 653 CURVE SMOOTH",
"435 653 OFFCURVE",
"497 627 OFFCURVE",
"493 558 CURVE SMOOTH",
"489 495 OFFCURVE",
"419 454 OFFCURVE",
"291 442 CURVE SMOOTH",
"272 440 OFFCURVE",
"257 437 OFFCURVE",
"245 433 CURVE"
);
}
);
};
hints = (
{
horizontal = 1;
origin = "{0, 31}";
target = "{1, 13}";
type = TTStem;
options = 4;
},
{
horizontal = 1;
origin = "{0, 19}";
target = "{2, 6}";
type = TTStem;
options = 4;
},
{
horizontal = 1;
origin = "{2, 6}";
target = "{0, 9}";
type = Align;
options = 4;
},
{
horizontal = 1;
origin = "{0, 31}";
target = "{0, 19}";
other1 = "{1, 5}";
type = Interpolate;
options = 4;
},
{
horizontal = 1;
origin = "{1, 5}";
target = "{2, 1}";
type = TTStem;
options = 4;
},
{
horizontal = 1;
origin = "{1, 5}";
target = "{2, 1}";
other1 = "{0, 25}";
type = Interpolate;
options = 4;
}
);
layerId = "92936CB7-D294-4857-B41D-63B9425360A1";
paths = (
{
closed = 1;
nodes = (
"297 -32 OFFCURVE",
"205 -3 OFFCURVE",
"178 20 QCURVE",
"172 25 OFFCURVE",
"169 30 QCURVE",
"148 29 OFFCURVE",
"120 56 OFFCURVE",
"122 79 QCURVE SMOOTH",
"143 400 OFFCURVE",
"143 620 QCURVE {name = sv02;}",
"117 613 OFFCURVE",
"100 607 QCURVE",
"78 600 OFFCURVE",
"47 607 OFFCURVE",
"35 628 OFFCURVE",
"43 653 OFFCURVE",
"55 664 QCURVE SMOOTH",
"95 700 OFFCURVE",
"262 747 OFFCURVE",
"354 747 QCURVE SMOOTH",
"474 747 OFFCURVE",
"610 642 OFFCURVE",
"600 548 QCURVE SMOOTH",
"594 494 OFFCURVE",
"507 422 OFFCURVE",
"429 407 QCURVE {name = iv02;}",
"531 377 OFFCURVE",
"629 256 OFFCURVE",
"617 172 QCURVE SMOOTH",
"604 84 OFFCURVE",
"449 -32 OFFCURVE",
"348 -32 QCURVE SMOOTH"
);
},
{
closed = 1;
nodes = (
"401 60 OFFCURVE",
"500 132 OFFCURVE",
"506 188 QCURVE SMOOTH",
"513 254 OFFCURVE",
"430 331 OFFCURVE",
"321 358 QCURVE",
"269 346 OFFCURVE",
"242 352 QCURVE",
"234 191 OFFCURVE",
"222 87 QCURVE",
"229 86 OFFCURVE",
"267 70 OFFCURVE",
"314 60 OFFCURVE",
"337 60 QCURVE SMOOTH"
);
},
{
closed = 1;
nodes = (
"263 439 OFFCURVE",
"291 442 QCURVE SMOOTH",
"387 451 OFFCURVE",
"490 511 OFFCURVE",
"493 558 QCURVE SMOOTH",
"499 653 OFFCURVE",
"335 653 QCURVE SMOOTH",
"292 653 OFFCURVE",
"246 645 QCURVE",
"249 562 OFFCURVE",
"245 433 QCURVE"
);
}
);
userData = {
com.typemytype.robofont.mark = (
0.656,
1,
0.6,
1
);
};
width = 666;
}
);
leftKerningGroup = B;
rightKerningGroup = B;
unicode = 0042;
},
{
color = 4;
glyphname = C;
layers = (
{
anchors = (
{
name = bottom;
position = "{336, 0}";
},
{
name = top;
position = "{341, 725}";
}
);
layerId = master01;
paths = (
{
closed = 1;
nodes = (
"34 102 OFFCURVE",
"209 -27 OFFCURVE",
"404 -27 CURVE SMOOTH",
"436 -27 OFFCURVE",
"473 -22 OFFCURVE",
"503 -7 CURVE SMOOTH",
"550 16 OFFCURVE",
"554 76 OFFCURVE",
"492 72 CURVE SMOOTH",
"467 70 OFFCURVE",
"437 67 OFFCURVE",
"412 67 CURVE SMOOTH",
"262 67 OFFCURVE",
"145 160 OFFCURVE",
"145 314 CURVE SMOOTH",
"145 400 OFFCURVE",
"178 473 OFFCURVE",
"234 521 CURVE SMOOTH",
"286 565 OFFCURVE",
"358 591 OFFCURVE",
"439 609 CURVE SMOOTH",
"504 623 OFFCURVE",
"495 697 OFFCURVE",
"423 697 CURVE SMOOTH",
"346 697 OFFCURVE",
"245 666 OFFCURVE",
"166 601 CURVE SMOOTH",
"88 537 OFFCURVE",
"34 438 OFFCURVE",
"34 317 CURVE SMOOTH"
);
}
);
userData = {
com.typemytype.robofont.mark = (
0.619,
1,
0.6,
1
);
};
width = 576;
},
{
anchors = (
{
name = bottom;
position = "{336, 0}";
},
{
name = top;
position = "{341, 725}";
}
);
layerId = "8E39700C-2F6D-4A17-B4B3-161F49A69C4C";
paths = (
{
closed = 1;
nodes = (
"456 702 OFFCURVE",
"484 670 OFFCURVE",
"484 653 QCURVE",
"484 639 OFFCURVE",
"468 606 OFFCURVE",
"446 603 QCURVE {name = sv01;}",
"399 597 OFFCURVE",
"328 579 OFFCURVE",
"271 553 OFFCURVE",
"224 517 OFFCURVE",
"202 492 QCURVE",
"174 460 OFFCURVE",
"138 368 OFFCURVE",
"138 327 QCURVE",
"138 263 OFFCURVE",
"182 167 OFFCURVE",
"257 104 OFFCURVE",
"356 73 OFFCURVE",
"411 73 QCURVE {name = sv02;}",
"483 73 LINE",
"510 73 OFFCURVE",
"537 40 OFFCURVE",
"537 23 QCURVE",
"537 6 OFFCURVE",
"508 -27 OFFCURVE",
"483 -27 QCURVE",
"411 -27 LINE {name = ab01;}",
"335 -27 OFFCURVE",
"199 20 OFFCURVE",
"97 110 OFFCURVE",
"37 240 OFFCURVE",
"37 322 QCURVE",
"37 403 OFFCURVE",
"113 556 OFFCURVE",
"185 613 QCURVE",
"242 657 OFFCURVE",
"374 701 OFFCURVE",
"430 702 QCURVE {name = av01;}"
);
}
);
width = 576;
},
{
anchors = (
{
name = bottom;
position = "{336, 0}";
},
{
name = top;
position = "{341, 725}";
}
);
background = {
paths = (
{
closed = 1;
nodes = (
"34 102 OFFCURVE",
"209 -27 OFFCURVE",
"404 -27 CURVE SMOOTH",
"436 -27 OFFCURVE",
"473 -22 OFFCURVE",
"503 -7 CURVE SMOOTH",
"550 16 OFFCURVE",
"554 76 OFFCURVE",
"492 72 CURVE SMOOTH",
"467 70 OFFCURVE",
"437 67 OFFCURVE",
"412 67 CURVE SMOOTH",
"262 67 OFFCURVE",
"145 160 OFFCURVE",
"145 314 CURVE SMOOTH",
"145 400 OFFCURVE",
"178 473 OFFCURVE",
"234 521 CURVE SMOOTH",
"286 565 OFFCURVE",
"358 591 OFFCURVE",
"439 609 CURVE SMOOTH",
"504 623 OFFCURVE",
"495 697 OFFCURVE",
"423 697 CURVE SMOOTH",
"346 697 OFFCURVE",
"245 666 OFFCURVE",
"166 601 CURVE SMOOTH",
"88 537 OFFCURVE",
"34 438 OFFCURVE",
"34 317 CURVE SMOOTH"
);
}
);
};
hints = (
{
horizontal = 1;
origin = "{0, 32}";
target = "{0, 22}";
type = TTStem;
options = 4;
},
{
horizontal = 1;
origin = "{0, 8}";
target = "{0, 13}";
type = TTStem;
options = 4;
}
);
layerId = "92936CB7-D294-4857-B41D-63B9425360A1";
paths = (
{
closed = 1;
nodes = (
"246 -27 OFFCURVE",
"34 166 OFFCURVE",
"34 317 QCURVE",
"34 402 OFFCURVE",
"103 549 OFFCURVE",
"166 601 QCURVE",
"220 646 OFFCURVE",
"359 697 OFFCURVE",
"423 697 QCURVE {name = av01;}",
"449 697 OFFCURVE",
"481 674 OFFCURVE",
"484 640 OFFCURVE",
"461 614 OFFCURVE",
"439 609 QCURVE {name = sv01;}",
"369 593 OFFCURVE",
"268 550 OFFCURVE",
"234 521 QCURVE",
"191 484 OFFCURVE",
"145 377 OFFCURVE",
"145 314 QCURVE",
"145 203 OFFCURVE",
"294 67 OFFCURVE",
"412 67 QCURVE {name = sv02;}",
"432 67 OFFCURVE",
"487 72 OFFCURVE",
"492 72 QCURVE",
"514 73 OFFCURVE",
"538 57 OFFCURVE",
"539 28 OFFCURVE",
"519 1 OFFCURVE",
"503 -7 QCURVE",
"463 -27 OFFCURVE",
"404 -27 QCURVE SMOOTH {name = ab01;}"
);
}
);
userData = {
com.typemytype.robofont.mark = (
0.656,
1,
0.6,
1
);
};
width = 576;
}
);
leftKerningGroup = C;
rightKerningGroup = C;
unicode = 0043;
},
{
glyphname = Ccedilla;
layers = (
{
color = 6;
components = (
{
name = C;
},
{
name = cedillacomb;
transform = "{1, 0, 0, 1, 469, 0}";
}
);
layerId = master01;
userData = {
com.typemytype.robofont.mark = (
0.6,
0.741,
1,
1
);
};
width = 577;
},
{
layerId = "8E39700C-2F6D-4A17-B4B3-161F49A69C4C";
paths = (
{
closed = 1;
nodes = (
"456 702 OFFCURVE",
"484 670 OFFCURVE",
"484 653 QCURVE",
"484 639 OFFCURVE",
"466 611 OFFCURVE",
"446 603 QCURVE {name = sv01;}",
"410 599 OFFCURVE",
"343 586 OFFCURVE",
"283 561 OFFCURVE",
"227 522 OFFCURVE",
"202 492 QCURVE",
"171 457 OFFCURVE",
"141 372 OFFCURVE",
"141 327 QCURVE",
"141 252 OFFCURVE",
"203 141 OFFCURVE",
"269 104 QCURVE",
"304 84 OFFCURVE",
"388 73 OFFCURVE",
"430 73 QCURVE {name = sv02;}",
"483 73 LINE",
"510 70 OFFCURVE",
"537 40 OFFCURVE",
"537 23 QCURVE",
"537 6 OFFCURVE",
"510 -27 OFFCURVE",
"483 -27 QCURVE",
"442 -27 LINE {name = ab01;}",
"422 -27 OFFCURVE",
"380 -26 OFFCURVE",
"359 -24 QCURVE {name = sv03;}",
"357 -29 OFFCURVE",
"356 -41 OFFCURVE",
"355 -47 QCURVE {name = dv01;}",
"396 -58 OFFCURVE",
"437 -104 OFFCURVE",
"437 -132 QCURVE",
"437 -178 OFFCURVE",
"387 -219 QCURVE",
"367 -236 OFFCURVE",
"320 -245 OFFCURVE",
"296 -245 QCURVE {name = sv05;}",
"287 -245 OFFCURVE",
"270 -244 OFFCURVE",
"261 -244 QCURVE",
"238 -239 OFFCURVE",
"217 -210 OFFCURVE",
"217 -194 QCURVE",
"217 -178 OFFCURVE",
"238 -150 OFFCURVE",
"261 -144 QCURVE",
"275 -145 OFFCURVE",
"303 -145 OFFCURVE {name = sv04;}",
"317 -145 QCURVE",
"323 -142 LINE",
"309 -138 OFFCURVE {name = dv02;}",
"284 -129 OFFCURVE",
"264 -111 OFFCURVE",
"252 -83 OFFCURVE",
"252 -61 QCURVE",
"252 -32 OFFCURVE",
"261 -3 QCURVE {name = sv06;}",
"152 45 OFFCURVE",
"37 217 OFFCURVE",
"37 322 QCURVE",
"37 393 OFFCURVE",
"99 529 OFFCURVE",
"205 636 OFFCURVE",
"349 702 OFFCURVE",
"430 702 QCURVE {name = av01;}"
);
}
);
width = 577;
},
{
color = 6;
components = (
{
name = C;
},
{
name = cedillacomb;
transform = "{1, 0, 0, 1, 469, 0}";
}
);
layerId = "92936CB7-D294-4857-B41D-63B9425360A1";
userData = {
com.typemytype.robofont.mark = (
0.6,
0.986,
1,
1
);
};
width = 577;
}
);
leftKerningGroup = C;
rightKerningGroup = C;
unicode = 00C7;
},
{
color = 4;
glyphname = D;
layers = (
{
anchors = (
{
name = bottom;
position = "{316, 0}";
},
{
name = top;
position = "{389, 725}";
}
);
layerId = master01;
paths = (
{
closed = 1;
nodes = (
"544 628 OFFCURVE",
"642 537 OFFCURVE",
"626 363 CURVE SMOOTH",
"608 172 OFFCURVE",
"435 84 OFFCURVE",
"173 65 CURVE SMOOTH",
"137 62 OFFCURVE",
"124 46 OFFCURVE",
"124 25 CURVE SMOOTH",
"124 -2 OFFCURVE",
"145 -24 OFFCURVE",
"184 -24 CURVE SMOOTH",
"360 -24 OFFCURVE",
"716 63 OFFCURVE",
"739 362 CURVE SMOOTH",
"756 584 OFFCURVE",
"599 725 OFFCURVE",
"333 725 CURVE SMOOTH",
"224 725 OFFCURVE",
"130 705 OFFCURVE",
"80 680 CURVE SMOOTH",
"50 665 OFFCURVE",
"36 650 OFFCURVE",
"36 628 CURVE SMOOTH",
"36 600 OFFCURVE",
"57 580 OFFCURVE",
"98 593 CURVE SMOOTH",
"179 618 OFFCURVE",
"259 628 OFFCURVE",
"341 628 CURVE SMOOTH"
);
},
{
closed = 1;
nodes = (
"154 505 OFFCURVE",
"147 286 OFFCURVE",
"158 116 CURVE SMOOTH",
"161 65 OFFCURVE",
"181 50 OFFCURVE",
"203 50 CURVE SMOOTH",
"245 50 OFFCURVE",
"257 85 OFFCURVE",
"259 117 CURVE SMOOTH",
"262 173 OFFCURVE",
"254 224 OFFCURVE",
"256 335 CURVE SMOOTH",
"258 426 OFFCURVE",
"261 534 OFFCURVE",
"269 664 CURVE",
"167 654 LINE"
);
}
);
userData = {
com.typemytype.robofont.mark = (
0.619,
1,
0.6,
1
);
};
width = 782;
},
{
anchors = (
{
name = bottom;
position = "{316, 0}";
},
{
name = top;
position = "{389, 725}";
}
);
layerId = "8E39700C-2F6D-4A17-B4B3-161F49A69C4C";
paths = (
{
closed = 1;
nodes = (
"445 619 OFFCURVE",
"376 628 OFFCURVE",
"341 628 QCURVE {name = sv01;}",
"328 628 OFFCURVE",
"303 627 OFFCURVE",
"290 626 QCURVE",
"291 624 OFFCURVE",
"291 620 QCURVE",
"287 547 OFFCURVE",
"281 401 OFFCURVE",
"281 328 QCURVE",
"281 312 OFFCURVE",
"283 281 OFFCURVE",
"283 265 QCURVE",
"283 246 OFFCURVE",
"277 209 OFFCURVE",
"268 192 QCURVE",
"268 161 LINE",
"268 148 OFFCURVE",
"265 121 OFFCURVE",
"255 99 OFFCURVE",
"237 85 OFFCURVE",
"221 85 QCURVE {name = sv03;}",
"188 85 OFFCURVE",
"152 132 OFFCURVE",
"131 187 QCURVE",
"114 231 OFFCURVE",
"89 326 OFFCURVE",
"81 361 QCURVE",
"73 393 OFFCURVE",
"63 458 OFFCURVE",
"58 491 QCURVE",
"52 534 LINE",
"49 552 OFFCURVE",
"44 577 OFFCURVE",
"39 596 OFFCURVE",
"36 613 OFFCURVE",
"36 624 QCURVE",
"36 675 OFFCURVE",
"181 725 OFFCURVE",
"333 725 QCURVE {name = at01;}",
"417 725 OFFCURVE",
"574 684 OFFCURVE",
"633 635 QCURVE",
"681 595 OFFCURVE",
"741 481 OFFCURVE",
"741 406 QCURVE",
"741 331 OFFCURVE",
"685 217 OFFCURVE",
"644 172 QCURVE",
"595 118 OFFCURVE",
"474 43 OFFCURVE",
"349 -3 OFFCURVE",
"231 -24 OFFCURVE",
"184 -24 QCURVE {name = ab01;}",
"155 -24 OFFCURVE",
"124 5 OFFCURVE",
"124 25 QCURVE",
"124 42 OFFCURVE",
"147 74 OFFCURVE",
"173 76 QCURVE {name = sv02;}",
"208 78 OFFCURVE",
"271 85 OFFCURVE",
"333 99 OFFCURVE",
"394 120 OFFCURVE",
"427 136 QCURVE",
"473 158 OFFCURVE",
"551 218 OFFCURVE",
"607 287 OFFCURVE",
"638 362 OFFCURVE",
"638 400 QCURVE",
"638 468 OFFCURVE",
"553 580 OFFCURVE",
"477 608 QCURVE"
);
},
{
closed = 1;
nodes = (
"185 421 OFFCURVE",
"186 550 OFFCURVE",
"190 616 QCURVE",
"179 614 OFFCURVE",
"152 608 OFFCURVE",
"142 605 QCURVE",
"153 542 OFFCURVE",
"168 419 OFFCURVE",
"184 355 QCURVE"
);
}
);
width = 782;
},
{
anchors = (
{
name = bottom;
position = "{316, 0}";
},
{
name = top;
position = "{389, 725}";
}
);
background = {
paths = (
{
closed = 1;
nodes = (
"360 -24 OFFCURVE",
"716 63 OFFCURVE",
"739 362 CURVE SMOOTH",
"756 584 OFFCURVE",
"599 725 OFFCURVE",
"333 725 CURVE SMOOTH",
"224 725 OFFCURVE",
"130 705 OFFCURVE",
"80 680 CURVE SMOOTH",
"50 665 OFFCURVE",
"36 650 OFFCURVE",
"36 628 CURVE SMOOTH",
"36 600 OFFCURVE",
"57 580 OFFCURVE",
"98 593 CURVE SMOOTH",
"120 600 OFFCURVE",
"142 605 OFFCURVE",
"163 610 CURVE {name = sv03;}",
"153 464 OFFCURVE",
"148 270 OFFCURVE",
"158 116 CURVE SMOOTH",
"159 91 OFFCURVE",
"165 75 OFFCURVE",
"173 65 CURVE",
"137 62 OFFCURVE",
"124 46 OFFCURVE",
"124 25 CURVE SMOOTH",
"124 -2 OFFCURVE",
"145 -24 OFFCURVE",
"184 -24 CURVE SMOOTH"
);
},
{
closed = 1;
nodes = (
"255 85 OFFCURVE",
"258 101 OFFCURVE",
"259 117 CURVE SMOOTH",
"262 173 OFFCURVE",
"254 224 OFFCURVE",
"256 335 CURVE SMOOTH",
"258 417 OFFCURVE",
"260 512 OFFCURVE",
"267 625 CURVE",
"291 627 OFFCURVE",
"316 628 OFFCURVE",
"341 628 CURVE SMOOTH",
"544 628 OFFCURVE",
"642 537 OFFCURVE",
"626 363 CURVE SMOOTH",
"610 191 OFFCURVE",
"467 102 OFFCURVE",
"247 73 CURVE {name = sv04;}"
);
}
);
};
hints = (
{
horizontal = 1;
origin = "{0, 28}";
target = "{0, 4}";
type = TTStem;
options = 4;
},
{
horizontal = 1;
origin = "{0, 20}";
target = "{1, 5}";
type = TTStem;
options = 4;
},
{
horizontal = 1;
origin = "{1, 5}";
target = "{0, 9}";
type = Align;
options = 4;
},
{
horizontal = 1;
origin = "{0, 4}";
target = "{1, 14}";
type = Align;
options = 4;
}
);
layerId = "92936CB7-D294-4857-B41D-63B9425360A1";
paths = (
{
closed = 1;
nodes = (
"157 -24 OFFCURVE",
"124 3 OFFCURVE",
"124 25 QCURVE SMOOTH",
"124 61 OFFCURVE",
"173 65 QCURVE",
"160 82 OFFCURVE",
"158 116 QCURVE SMOOTH",
"151 218 OFFCURVE",
"154 482 OFFCURVE",
"163 610 QCURVE {name = sv03;}",
"125 601 OFFCURVE",
"98 593 QCURVE SMOOTH",
"70 585 OFFCURVE",
"36 604 OFFCURVE",
"36 628 QCURVE SMOOTH",
"36 644 OFFCURVE",
"57 669 OFFCURVE",
"80 680 QCURVE SMOOTH",
"121 700 OFFCURVE",
"257 725 OFFCURVE",
"333 725 QCURVE SMOOTH",
"464 725 OFFCURVE",
"654 637 OFFCURVE",
"748 472 OFFCURVE",
"739 362 QCURVE SMOOTH",
"730 247 OFFCURVE",
"581 75 OFFCURVE",
"316 -24 OFFCURVE",
"184 -24 QCURVE SMOOTH"
);
},
{
closed = 1;
nodes = (
"424 96 OFFCURVE",
"615 242 OFFCURVE",
"626 363 QCURVE SMOOTH",
"638 493 OFFCURVE",
"493 628 OFFCURVE",
"341 628 QCURVE SMOOTH",
"303 628 OFFCURVE",
"267 625 QCURVE",
"259 520 OFFCURVE",
"256 335 QCURVE SMOOTH",
"255 277 OFFCURVE",
"260 144 OFFCURVE",
"259 117 QCURVE SMOOTH",
"258 88 OFFCURVE",
"247 73 QCURVE {name = sv04;}"
);
}
);
userData = {
com.typemytype.robofont.mark = (
0.656,
1,
0.6,
1
);
};
width = 782;
}
);
rightKerningGroup = D;
unicode = 0044;
},
{
color = 4;
glyphname = Eth;
layers = (
{
anchors = (
{
name = bottom;
position = "{334, 0}";
},
{
name = top;
position = "{407, 725}";
}
);
background = {
paths = (
{
closed = 1;
nodes = (
"94 321 OFFCURVE",
"130 322 OFFCURVE",
"166 324 CURVE",
"163 264 OFFCURVE",
"162 205 OFFCURVE",
"162 145 CURVE SMOOTH",
"162 132 OFFCURVE",
"165 121 OFFCURVE",
"170 112 CURVE",
"151 117 OFFCURVE",
"136 126 OFFCURVE",
"121 126 CURVE SMOOTH",
"92 126 OFFCURVE",
"72 104 OFFCURVE",
"72 80 CURVE SMOOTH",
"72 18 OFFCURVE",
"182 5 OFFCURVE",
"242 5 CURVE SMOOTH",
"339 5 OFFCURVE",
"497 19 OFFCURVE",
"585 75 CURVE SMOOTH",
"669 128 OFFCURVE",
"710 206 OFFCURVE",
"710 321 CURVE SMOOTH",
"710 604 OFFCURVE",
"534 767 OFFCURVE",
"147 767 CURVE SMOOTH",
"84 767 OFFCURVE",
"32 752 OFFCURVE",
"32 709 CURVE SMOOTH",
"32 684 OFFCURVE",
"51 661 OFFCURVE",
"87 661 CURVE SMOOTH",
"108 661 OFFCURVE",
"128 667 OFFCURVE",
"149 667 CURVE SMOOTH",
"166 667 OFFCURVE",
"188 666 OFFCURVE",
"199 665 CURVE",
"188 658 OFFCURVE",
"174 640 OFFCURVE",
"174 628 CURVE SMOOTH",
"173 559 OFFCURVE",
"170 493 OFFCURVE",
"169 424 CURVE",
"107 421 OFFCURVE",
"14 434 OFFCURVE",
"14 371 CURVE SMOOTH",
"14 350 OFFCURVE",
"27 328 OFFCURVE",
"58 321 CURVE"
);
},
{
closed = 1;
nodes = (
"262 201 OFFCURVE",
"263 264 OFFCURVE",
"266 328 CURVE",
"336 331 OFFCURVE",
"442 318 OFFCURVE",
"442 382 CURVE SMOOTH",
"442 405 OFFCURVE",
"424 428 OFFCURVE",
"388 432 CURVE",
"348 431 OFFCURVE",
"309 431 OFFCURVE",
"270 428 CURVE",
"273 493 OFFCURVE",
"273 558 OFFCURVE",
"274 623 CURVE",
"271 642 OFFCURVE",
"262 656 OFFCURVE",
"251 664 CURVE",
"495 651 OFFCURVE",
"610 521 OFFCURVE",
"610 312 CURVE SMOOTH",
"610 130 OFFCURVE",
"419 108 OFFCURVE",
"247 103 CURVE",
"255 112 OFFCURVE",
"260 124 OFFCURVE",
"262 137 CURVE"
);
}
);
};
layerId = master01;
paths = (
{
closed = 1;
nodes = (
"369 -24 OFFCURVE",
"708 63 OFFCURVE",
"730 362 CURVE SMOOTH",
"746 584 OFFCURVE",
"599 725 OFFCURVE",
"351 725 CURVE SMOOTH",
"242 725 OFFCURVE",
"148 705 OFFCURVE",
"98 680 CURVE SMOOTH",
"68 665 OFFCURVE",
"54 650 OFFCURVE",
"54 628 CURVE SMOOTH",
"54 600 OFFCURVE",
"75 580 OFFCURVE",
"116 593 CURVE SMOOTH",
"197 619 OFFCURVE",
"277 628 OFFCURVE",
"359 628 CURVE SMOOTH",
"543 628 OFFCURVE",
"631 537 OFFCURVE",
"617 363 CURVE SMOOTH",
"602 172 OFFCURVE",
"437 85 OFFCURVE",
"191 65 CURVE SMOOTH",
"155 62 OFFCURVE",
"142 46 OFFCURVE",
"142 25 CURVE SMOOTH",
"142 -2 OFFCURVE",
"163 -24 OFFCURVE",
"202 -24 CURVE SMOOTH"
);
},
{
closed = 1;
nodes = (
"257 50 OFFCURVE",
"269 85 OFFCURVE",
"271 117 CURVE SMOOTH",
"274 173 OFFCURVE",
"266 224 OFFCURVE",
"268 335 CURVE SMOOTH",
"270 426 OFFCURVE",
"273 534 OFFCURVE",
"281 664 CURVE",
"179 654 LINE",
"166 505 OFFCURVE",
"160 286 OFFCURVE",
"170 116 CURVE SMOOTH",
"173 65 OFFCURVE",
"193 50 OFFCURVE",
"215 50 CURVE SMOOTH"
);
},
{
closed = 1;
nodes = (
"138 322 OFFCURVE",
"288 333 OFFCURVE",
"401 338 CURVE SMOOTH",
"469 341 OFFCURVE",
"459 433 OFFCURVE",
"391 433 CURVE SMOOTH",
"293 433 OFFCURVE",
"173 420 OFFCURVE",
"75 407 CURVE SMOOTH",
"0 397 OFFCURVE",
"10 311 OFFCURVE",
"80 317 CURVE SMOOTH"
);
}
);
width = 758;
},
{
layerId = "8E39700C-2F6D-4A17-B4B3-161F49A69C4C";
paths = (
{
closed = 1;
nodes = (
"35 326 OFFCURVE",
"14 355 OFFCURVE",
"14 371 QCURVE",
"14 395 OFFCURVE",
"45 416 OFFCURVE",
"91 424 OFFCURVE",
"146 423 OFFCURVE",
"169 424 QCURVE {name = sv01;}",
"170 476 OFFCURVE",
"173 576 OFFCURVE",
"174 628 QCURVE",
"174 637 OFFCURVE",
"191 660 OFFCURVE",
"199 665 QCURVE",
"191 666 OFFCURVE",
"162 667 OFFCURVE",
"149 667 QCURVE {name = sv02;}",
"133 667 OFFCURVE",
"103 661 OFFCURVE",
"87 661 QCURVE",
"60 661 OFFCURVE",
"32 690 OFFCURVE",
"32 709 QCURVE",
"32 725 OFFCURVE",
"50 747 OFFCURVE",
"82 761 OFFCURVE",
"123 767 OFFCURVE",
"147 767 QCURVE {name = at01;}",
"292 767 OFFCURVE",
"504 707 OFFCURVE",
"643 593 OFFCURVE",
"710 427 OFFCURVE",
"710 321 QCURVE",
"710 235 OFFCURVE",
"648 115 OFFCURVE",
"585 75 QCURVE",
"552 54 OFFCURVE",
"464 27 OFFCURVE",
"370 11 OFFCURVE",
"278 5 OFFCURVE",
"242 5 QCURVE {name = ab01;}",
"219 5 OFFCURVE",
"161 11 OFFCURVE",
"108 27 OFFCURVE",
"72 57 OFFCURVE",
"72 80 QCURVE",
"72 98 OFFCURVE",
"99 126 OFFCURVE",
"121 126 QCURVE",
"132 126 OFFCURVE",
"156 116 OFFCURVE",
"170 112 QCURVE {name = sv04;}",
"162 126 OFFCURVE",
"162 145 QCURVE",
"162 190 OFFCURVE",
"164 279 OFFCURVE",
"166 324 QCURVE {name = sv05;}",
"112 321 OFFCURVE",
"58 321 QCURVE"
);
},
{
closed = 1;
nodes = (
"259 117 OFFCURVE",
"247 103 QCURVE {name = sv03;}",
"311 105 OFFCURVE",
"441 120 OFFCURVE",
"545 163 OFFCURVE",
"610 243 OFFCURVE",
"610 312 QCURVE",
"610 469 OFFCURVE",
"434 654 OFFCURVE",
"251 664 QCURVE {name = sv06;}",
"259 658 OFFCURVE",
"272 637 OFFCURVE",
"274 623 QCURVE",
"273 574 OFFCURVE",
"272 477 OFFCURVE",
"270 428 QCURVE {name = dv02;}",
"299 430 OFFCURVE",
"358 431 OFFCURVE",
"388 432 QCURVE",
"415 429 OFFCURVE",
"442 399 OFFCURVE",
"442 382 QCURVE",
"442 358 OFFCURVE",
"407 336 OFFCURVE",
"354 328 OFFCURVE",
"292 329 OFFCURVE",
"266 328 QCURVE {name = dv01;}",
"264 280 OFFCURVE",
"262 185 OFFCURVE",
"262 137 QCURVE"
);
}
);
width = 758;
},
{
background = {
paths = (
{
closed = 1;
nodes = (
"369 -24 OFFCURVE",
"708 63 OFFCURVE",
"730 362 CURVE SMOOTH",
"746 584 OFFCURVE",
"599 725 OFFCURVE",
"351 725 CURVE SMOOTH",
"242 725 OFFCURVE",
"148 705 OFFCURVE",
"98 680 CURVE SMOOTH",
"68 665 OFFCURVE",
"54 650 OFFCURVE",
"54 628 CURVE SMOOTH",
"54 600 OFFCURVE",
"75 580 OFFCURVE",
"116 593 CURVE SMOOTH",
"136 599 OFFCURVE",
"156 605 OFFCURVE",
"175 609 CURVE",
"171 551 OFFCURVE",
"168 486 OFFCURVE",
"166 418 CURVE",
"135 415 OFFCURVE",
"104 411 OFFCURVE",
"75 407 CURVE SMOOTH",
"0 397 OFFCURVE",
"10 311 OFFCURVE",
"80 317 CURVE SMOOTH",
"100 319 OFFCURVE",
"130 321 OFFCURVE",
"165 324 CURVE {name = sv05;}",
"165 252 OFFCURVE",
"166 180 OFFCURVE",
"170 116 CURVE SMOOTH",
"171 91 OFFCURVE",
"177 75 OFFCURVE",
"185 64 CURVE",
"154 60 OFFCURVE",
"142 45 OFFCURVE",
"142 25 CURVE SMOOTH",
"142 -2 OFFCURVE",
"163 -24 OFFCURVE",
"202 -24 CURVE SMOOTH"
);
},
{
closed = 1;
nodes = (
"267 85 OFFCURVE",
"270 101 OFFCURVE",
"271 117 CURVE SMOOTH",
"274 172 OFFCURVE",
"266 223 OFFCURVE",
"268 331 CURVE",
"313 334 OFFCURVE",
"360 336 OFFCURVE",
"401 338 CURVE SMOOTH",
"469 341 OFFCURVE",
"459 433 OFFCURVE",
"391 433 CURVE SMOOTH",
"353 433 OFFCURVE",
"312 431 OFFCURVE",
"270 428 CURVE {name = dv02;}",
"272 487 OFFCURVE",
"275 552 OFFCURVE",
"279 625 CURVE",
"305 627 OFFCURVE",
"332 628 OFFCURVE",
"359 628 CURVE SMOOTH",
"543 628 OFFCURVE",
"631 537 OFFCURVE",
"617 363 CURVE SMOOTH",
"603 190 OFFCURVE",
"467 102 OFFCURVE",
"259 73 CURVE"
);
}
);
};
hints = (
{
horizontal = 1;
origin = "{0, 37}";
target = "{0, 4}";
type = TTStem;
options = 4;
},
{
horizontal = 1;
origin = "{0, 4}";
target = "{1, 22}";
type = Align;
options = 4;
},
{
horizontal = 1;
origin = "{0, 29}";
target = "{1, 4}";
type = TTStem;
options = 4;
},
{
horizontal = 1;
origin = "{0, 37}";
target = "{0, 29}";
other1 = "{1, 16}";
type = Interpolate;
options = 8;
},
{
horizontal = 1;
origin = "{1, 16}";
target = "{1, 8}";
type = TTStem;
options = 4;
},
{
horizontal = 1;
origin = "{1, 16}";
target = "{0, 8}";
type = Align;
options = 4;
},
{
horizontal = 1;
origin = "{1, 8}";
target = "{0, 16}";
type = Align;
options = 4;
},
{
horizontal = 1;
origin = "{1, 4}";
target = "{0, 18}";
type = Align;
options = 4;
}
);
layerId = "92936CB7-D294-4857-B41D-63B9425360A1";
paths = (
{
closed = 1;
nodes = (
"175 -24 OFFCURVE",
"142 3 OFFCURVE",
"142 25 QCURVE SMOOTH",
"142 58 OFFCURVE",
"185 64 QCURVE",
"171 83 OFFCURVE",
"170 116 QCURVE SMOOTH",
"165 196 OFFCURVE",
"165 324 QCURVE {name = sv05;}",
"80 317 LINE SMOOTH",
"55 315 OFFCURVE",
"24 339 OFFCURVE",
"22 377 OFFCURVE",
"51 404 OFFCURVE",
"75 407 QCURVE SMOOTH",
"128 414 OFFCURVE",
"166 418 QCURVE",
"169 523 OFFCURVE",
"175 609 QCURVE",
"156 606 OFFCURVE",
"116 593 QCURVE SMOOTH",
"88 584 OFFCURVE",
"54 604 OFFCURVE",
"54 628 QCURVE SMOOTH",
"54 644 OFFCURVE",
"75 669 OFFCURVE",
"98 680 QCURVE SMOOTH",
"139 700 OFFCURVE",
"275 725 OFFCURVE",
"351 725 QCURVE SMOOTH",
"473 725 OFFCURVE",
"651 636 OFFCURVE",
"738 472 OFFCURVE",
"730 362 QCURVE SMOOTH",
"722 247 OFFCURVE",
"580 76 OFFCURVE",
"328 -24 OFFCURVE",
"202 -24 QCURVE SMOOTH"
);
},
{
closed = 1;
nodes = (
"597 120 OFFCURVE",
"617 363 QCURVE SMOOTH",
"628 494 OFFCURVE",
"497 628 OFFCURVE",
"359 628 QCURVE SMOOTH",
"318 628 OFFCURVE",
"279 625 QCURVE",
"273 514 OFFCURVE",
"270 428 QCURVE {name = dv02;}",
"340 433 OFFCURVE",
"391 433 QCURVE SMOOTH",
"415 433 OFFCURVE",
"446 405 OFFCURVE",
"449 365 OFFCURVE",
"423 339 OFFCURVE",
"401 338 QCURVE SMOOTH",
"268 331 LINE",
"266 291 OFFCURVE",
"270 199 QCURVE SMOOTH",
"273 140 OFFCURVE",
"271 117 QCURVE SMOOTH",
"269 88 OFFCURVE",
"259 73 QCURVE"
);
}
);
width = 758;
}
);
rightKerningGroup = D;
unicode = 00D0;
},
{
color = 4;
glyphname = E;
layers = (
{
anchors = (
{
name = bottom;
position = "{291, 0}";
},
{
name = top;
position = "{300, 725}";
}
);
layerId = master01;
paths = (
{
closed = 1;
nodes = (
"121 649 LINE",
"224 648 OFFCURVE",
"370 641 OFFCURVE",
"475 641 CURVE SMOOTH",
"512 641 OFFCURVE",
"529 661 OFFCURVE",
"529 687 CURVE SMOOTH",
"529 715 OFFCURVE",
"507 735 OFFCURVE",
"475 737 CURVE SMOOTH",
"395 743 OFFCURVE",
"216 743 OFFCURVE",
"151 743 CURVE SMOOTH",
"106 743 OFFCURVE",
"73 727 OFFCURVE",
"70 678 CURVE SMOOTH",
"60 491 OFFCURVE",
"56 223 OFFCURVE",
"59 75 CURVE SMOOTH",
"60 33 OFFCURVE",
"67 -8 OFFCURVE",
"134 -8 CURVE SMOOTH",
"245 -8 OFFCURVE",
"383 -6 OFFCURVE",
"458 -2 CURVE SMOOTH",
"495 0 OFFCURVE",
"518 20 OFFCURVE",
"518 50 CURVE SMOOTH",
"518 80 OFFCURVE",
"495 96 OFFCURVE",
"457 96 CURVE SMOOTH",
"391 96 OFFCURVE",
"254 92 OFFCURVE",
"118 85 CURVE",
"164 32 LINE",
"153 224 OFFCURVE",
"167 486 OFFCURVE",
"172 684 CURVE"
);
},
{
closed = 1;
nodes = (
"393 338 OFFCURVE",
"416 357 OFFCURVE",
"416 385 CURVE SMOOTH",
"416 411 OFFCURVE",
"396 429 OFFCURVE",
"362 431 CURVE SMOOTH",
"296 435 OFFCURVE",
"187 436 OFFCURVE",
"117 432 CURVE",
"117 341 LINE",
"199 339 OFFCURVE",
"286 335 OFFCURVE",
"362 337 CURVE SMOOTH"
);
}
);
userData = {
com.typemytype.robofont.mark = (
0.619,
1,
0.6,
1
);
};
width = 566;
},
{
anchors = (
{
name = bottom;
position = "{291, 0}";
},
{
name = top;
position = "{300, 725}";
}
);
layerId = "8E39700C-2F6D-4A17-B4B3-161F49A69C4C";
paths = (
{
closed = 1;
nodes = (
"70 715 OFFCURVE",
"136 744 OFFCURVE",
"208 744 QCURVE {name = at01;}",
"274 744 OFFCURVE",
"407 737 OFFCURVE",
"475 737 QCURVE {name = at02;}",
"499 737 OFFCURVE",
"529 704 OFFCURVE",
"529 687 QCURVE",
"529 670 OFFCURVE",
"499 637 OFFCURVE",
"475 637 QCURVE {name = sv01;}",
"396 637 OFFCURVE",
"247 643 OFFCURVE",
"170 644 QCURVE {name = sv02;}",
"168 592 OFFCURVE",
"163 489 OFFCURVE",
"161 437 QCURVE {name = dv02;}",
"211 436 OFFCURVE",
"311 435 OFFCURVE",
"362 435 QCURVE",
"385 435 OFFCURVE",
"416 406 OFFCURVE",
"416 385 QCURVE",
"416 364 OFFCURVE",
"385 335 OFFCURVE",
"362 335 QCURVE",
"311 335 OFFCURVE",
"209 336 OFFCURVE",
"158 337 QCURVE {name = dv01;}",
"156 296 OFFCURVE",
"156 216 OFFCURVE",
"156 175 QCURVE",
"156 154 OFFCURVE",
"158 112 OFFCURVE",
"160 91 QCURVE {name = sv03;}",
"198 91 OFFCURVE",
"280 93 OFFCURVE",
"360 96 OFFCURVE",
"434 98 OFFCURVE",
"464 98 QCURVE {name = sv04;}",
"487 98 OFFCURVE",
"518 69 OFFCURVE",
"518 48 QCURVE",
"518 27 OFFCURVE",
"487 -2 OFFCURVE",
"464 -2 QCURVE {name = ab01;}",
"433 -2 OFFCURVE",
"353 -4 OFFCURVE",
"262 -6 OFFCURVE",
"165 -8 OFFCURVE",
"117 -8 QCURVE {name = ab02;}",
"78 -8 OFFCURVE",
"56 85 OFFCURVE",
"56 170 QCURVE",
"56 232 OFFCURVE",
"60 365 OFFCURVE",
"66 497 OFFCURVE",
"70 623 OFFCURVE",
"70 678 QCURVE"
);
}
);
width = 566;
},
{
anchors = (
{
name = bottom;
position = "{291, 0}";
},
{
name = top;
position = "{300, 725}";
}
);
background = {
paths = (
{
closed = 1;
nodes = (
"245 -8 OFFCURVE",
"383 -6 OFFCURVE",
"458 -2 CURVE SMOOTH",
"495 0 OFFCURVE",
"518 20 OFFCURVE",
"518 50 CURVE SMOOTH",
"518 80 OFFCURVE",
"495 96 OFFCURVE",
"457 96 CURVE SMOOTH",
"398 96 OFFCURVE",
"282 93 OFFCURVE",
"162 87 CURVE {name = sv02;}",
"159 165 OFFCURVE",
"160 252 OFFCURVE",
"162 340 CURVE",
"230 338 OFFCURVE",
"300 335 OFFCURVE",
"362 337 CURVE SMOOTH",
"393 338 OFFCURVE",
"416 357 OFFCURVE",
"416 385 CURVE SMOOTH",
"416 411 OFFCURVE",
"396 429 OFFCURVE",
"362 431 CURVE SMOOTH",
"309 434 OFFCURVE",
"230 435 OFFCURVE",
"164 434 CURVE",
"166 508 OFFCURVE",
"169 581 OFFCURVE",
"171 648 CURVE {name = sv01;}",
"268 646 OFFCURVE",
"386 641 OFFCURVE",
"475 641 CURVE SMOOTH",
"512 641 OFFCURVE",
"529 661 OFFCURVE",
"529 687 CURVE SMOOTH",
"529 715 OFFCURVE",
"507 735 OFFCURVE",
"475 737 CURVE SMOOTH",
"395 743 OFFCURVE",
"216 743 OFFCURVE",
"151 743 CURVE SMOOTH",
"106 743 OFFCURVE",
"73 727 OFFCURVE",
"70 678 CURVE SMOOTH",
"60 491 OFFCURVE",
"56 223 OFFCURVE",
"59 75 CURVE SMOOTH",
"60 33 OFFCURVE",
"67 -8 OFFCURVE",
"134 -8 CURVE SMOOTH"
);
}
);
};
hints = (
{
horizontal = 1;
origin = "{0, 38}";
target = "{0, 32}";
type = TTStem;
options = 4;
},
{
horizontal = 1;
origin = "{0, 7}";
target = "{0, 17}";
type = TTStem;
options = 4;
},
{
horizontal = 1;
origin = "{0, 38}";
target = "{0, 7}";
other1 = "{0, 26}";
type = Interpolate;
options = 8;
},
{
horizontal = 1;
origin = "{0, 26}";
target = "{0, 20}";
type = TTStem;
options = 4;
}
);
layerId = "92936CB7-D294-4857-B41D-63B9425360A1";
paths = (
{
closed = 1;
nodes = (
"96 -8 OFFCURVE",
"60 28 OFFCURVE",
"59 75 QCURVE SMOOTH",
"57 193 OFFCURVE",
"63 545 OFFCURVE",
"70 678 QCURVE SMOOTH",
"73 743 OFFCURVE",
"151 743 QCURVE SMOOTH",
"395 743 OFFCURVE",
"475 737 QCURVE SMOOTH",
"499 735 OFFCURVE",
"529 708 OFFCURVE",
"529 687 QCURVE SMOOTH",
"529 666 OFFCURVE",
"501 641 OFFCURVE",
"475 641 QCURVE SMOOTH",
"387 641 OFFCURVE",
"171 648 QCURVE {name = sv01;}",
"164 434 LINE",
"278 437 OFFCURVE",
"362 431 QCURVE SMOOTH",
"387 429 OFFCURVE",
"416 405 OFFCURVE",
"416 385 QCURVE SMOOTH",
"416 364 OFFCURVE",
"385 338 OFFCURVE",
"362 337 QCURVE SMOOTH",
"264 334 OFFCURVE",
"162 340 QCURVE",
"158 181 OFFCURVE",
"162 87 QCURVE {name = sv02;}",
"342 96 OFFCURVE",
"457 96 QCURVE SMOOTH",
"486 96 OFFCURVE",
"518 72 OFFCURVE",
"518 50 QCURVE SMOOTH",
"518 27 OFFCURVE",
"486 -1 OFFCURVE",
"458 -2 QCURVE SMOOTH",
"346 -8 OFFCURVE",
"134 -8 QCURVE SMOOTH"
);
}
);
userData = {
com.typemytype.robofont.mark = (
0.656,
1,
0.6,
1
);
};
width = 566;
}
);
leftKerningGroup = E;
rightKerningGroup = E;
unicode = 0045;
},
{
color = 4;
glyphname = Eacute;
layers = (
{
background = {
paths = (
{
closed = 1;
nodes = (
"255 -5 OFFCURVE",
"327 4 OFFCURVE",
"395 5 CURVE",
"431 8 OFFCURVE",
"449 32 OFFCURVE",
"449 55 CURVE SMOOTH",
"449 78 OFFCURVE",
"431 101 OFFCURVE",
"395 105 CURVE",
"308 102 OFFCURVE",
"225 99 OFFCURVE",
"138 99 CURVE",
"142 163 OFFCURVE",
"147 227 OFFCURVE",
"154 291 CURVE",
"333 291 LINE",
"369 294 OFFCURVE",
"387 318 OFFCURVE",
"387 341 CURVE SMOOTH",
"387 364 OFFCURVE",
"369 387 OFFCURVE",
"333 391 CURVE",
"164 391 LINE",
"171 451 OFFCURVE",
"175 509 OFFCURVE",
"178 569 CURVE",
"195 569 OFFCURVE",
"211 571 OFFCURVE",
"228 571 CURVE SMOOTH",
"469 572 LINE",
"505 575 OFFCURVE",
"523 599 OFFCURVE",
"523 622 CURVE SMOOTH",
"523 645 OFFCURVE",
"505 668 OFFCURVE",
"469 672 CURVE",
"192 671 LINE SMOOTH",
"155 671 OFFCURVE",
"76 667 OFFCURVE",
"76 611 CURVE SMOOTH",
"76 606 OFFCURVE",
"77 601 OFFCURVE",
"79 596 CURVE",
"71 428 OFFCURVE",
"37 257 OFFCURVE",
"37 90 CURVE SMOOTH",
"37 75 OFFCURVE",
"37 60 OFFCURVE",
"38 45 CURVE",
"47 20 OFFCURVE",
"57 10 OFFCURVE",
"84 3 CURVE SMOOTH",
"116 -4 OFFCURVE",
"149 -5 OFFCURVE",
"184 -5 CURVE SMOOTH"
);
},
{
closed = 1;
nodes = (
"309 691 OFFCURVE",
"336 723 OFFCURVE",
"353 735 CURVE",
"409 767 OFFCURVE",
"500 784 OFFCURVE",
"500 835 CURVE SMOOTH",
"500 860 OFFCURVE",
"480 882 OFFCURVE",
"449 882 CURVE SMOOTH",
"442 882 OFFCURVE",
"437 883 OFFCURVE",
"430 880 CURVE SMOOTH",
"367 855 OFFCURVE",
"311 831 OFFCURVE",
"260 788 CURVE",
"253 786 LINE",
"233 773 OFFCURVE",
"225 756 OFFCURVE",
"225 739 CURVE SMOOTH",
"225 714 OFFCURVE",
"245 691 OFFCURVE",
"272 691 CURVE SMOOTH"
);
}
);
};
layerId = master01;
paths = (
{
closed = 1;
nodes = (
"153 243 OFFCURVE",
"171 409 OFFCURVE",
"178 576 CURVE",
"463 576 LINE SMOOTH",
"505 576 OFFCURVE",
"523 599 OFFCURVE",
"523 622 CURVE SMOOTH",
"523 645 OFFCURVE",
"510 672 OFFCURVE",
"459 672 CURVE SMOOTH",
"377 672 OFFCURVE",
"253 672 OFFCURVE",
"150 668 CURVE SMOOTH",
"102 666 OFFCURVE",
"68 646 OFFCURVE",
"79 596 CURVE",
"70 426 OFFCURVE",
"54 259 OFFCURVE",
"36 75 CURVE SMOOTH",
"32 38 OFFCURVE",
"45 7 OFFCURVE",
"98 -1 CURVE SMOOTH",
"119 -4 OFFCURVE",
"149 -5 OFFCURVE",
"184 -5 CURVE SMOOTH",
"255 -5 OFFCURVE",
"332 0 OFFCURVE",
"395 5 CURVE SMOOTH",
"431 8 OFFCURVE",
"449 32 OFFCURVE",
"449 55 CURVE SMOOTH",
"449 78 OFFCURVE",
"431 100 OFFCURVE",
"395 100 CURVE SMOOTH",
"336 100 OFFCURVE",
"188 93 OFFCURVE",
"89 86 CURVE",
"134 76 LINE"
);
},
{
closed = 1;
nodes = (
"252 689 OFFCURVE",
"307 715 CURVE SMOOTH",
"411 764 OFFCURVE",
"500 784 OFFCURVE",
"500 838 CURVE SMOOTH",
"500 870 OFFCURVE",
"473 895 OFFCURVE",
"430 880 CURVE SMOOTH",
"359 855 OFFCURVE",
"302 824 OFFCURVE",
"253 786 CURVE SMOOTH",
"234 771 OFFCURVE",
"225 756 OFFCURVE",
"225 739 CURVE SMOOTH",
"225 714 OFFCURVE"
);
},
{
closed = 1;
nodes = (
"328 294 LINE SMOOTH",
"369 294 OFFCURVE",
"387 315 OFFCURVE",
"387 341 CURVE SMOOTH",
"387 367 OFFCURVE",
"369 392 OFFCURVE",
"324 391 CURVE SMOOTH",
"148 388 LINE",
"138 295 LINE"
);
}
);
width = 549;
},
{
layerId = "8E39700C-2F6D-4A17-B4B3-161F49A69C4C";
paths = (
{
closed = 1;
nodes = (
"37 56 OFFCURVE",
"37 79 OFFCURVE",
"37 90 QCURVE",
"37 153 OFFCURVE",
"48 279 OFFCURVE",
"62 406 OFFCURVE",
"76 533 OFFCURVE",
"79 596 QCURVE",
"76 603 OFFCURVE",
"76 611 QCURVE",
"76 632 OFFCURVE",
"102 656 OFFCURVE",
"138 668 OFFCURVE",
"178 671 OFFCURVE",
"192 671 QCURVE {name = av01;}",
"469 672 LINE",
"496 669 OFFCURVE",
"523 639 OFFCURVE",
"523 622 QCURVE",
"523 605 OFFCURVE",
"496 574 OFFCURVE",
"469 572 QCURVE",
"228 571 LINE {name = sv01;}",
"215 571 OFFCURVE",
"191 569 OFFCURVE",
"178 569 QCURVE",
"176 524 OFFCURVE",
"169 436 OFFCURVE",
"164 391 QCURVE {name = dv02;}",
"333 391 LINE",
"360 388 OFFCURVE",
"387 358 OFFCURVE",
"387 341 QCURVE",
"387 324 OFFCURVE",
"360 293 OFFCURVE",
"333 291 QCURVE",
"154 291 LINE {name = dv01;}",
"149 243 OFFCURVE",
"141 147 OFFCURVE",
"138 99 QCURVE {name = sv02;}",
"203 99 OFFCURVE",
"330 103 OFFCURVE",
"395 105 QCURVE",
"422 102 OFFCURVE",
"449 72 OFFCURVE",
"449 55 QCURVE",
"449 38 OFFCURVE",
"422 7 OFFCURVE",
"395 5 QCURVE",
"344 4 OFFCURVE",
"237 -5 OFFCURVE",
"184 -5 QCURVE {name = ab01;}",
"158 -5 OFFCURVE",
"108 -2 OFFCURVE",
"84 3 QCURVE",
"64 8 OFFCURVE",
"45 26 OFFCURVE",
"38 45 QCURVE"
);
},
{
closed = 1;
nodes = (
"346 730 OFFCURVE",
"330 716 OFFCURVE",
"310 701 OFFCURVE",
"286 691 OFFCURVE",
"272 691 QCURVE {name = av02;}",
"252 691 OFFCURVE",
"225 720 OFFCURVE",
"225 739 QCURVE",
"225 752 OFFCURVE",
"238 776 OFFCURVE",
"253 786 QCURVE",
"260 788 LINE",
"298 820 OFFCURVE",
"383 861 OFFCURVE",
"430 880 QCURVE",
"435 882 OFFCURVE",
"444 882 OFFCURVE",
"449 882 QCURVE {name = sv03;}",
"472 882 OFFCURVE",
"500 854 OFFCURVE",
"500 835 QCURVE",
"500 816 OFFCURVE",
"470 789 OFFCURVE",
"425 767 OFFCURVE",
"374 747 OFFCURVE",
"353 735 QCURVE"
);
}
);
width = 549;
},
{
background = {
paths = (
{
closed = 1;
nodes = (
"411 764 OFFCURVE",
"500 784 OFFCURVE",
"500 838 CURVE SMOOTH",
"500 870 OFFCURVE",
"473 895 OFFCURVE",
"430 880 CURVE SMOOTH",
"359 855 OFFCURVE",
"302 824 OFFCURVE",
"253 786 CURVE SMOOTH",
"234 771 OFFCURVE",
"225 756 OFFCURVE",
"225 739 CURVE SMOOTH",
"225 714 OFFCURVE",
"252 689 OFFCURVE",
"307 715 CURVE SMOOTH"
);
},
{
closed = 1;
nodes = (
"377 672 OFFCURVE",
"253 672 OFFCURVE",
"150 668 CURVE SMOOTH",
"102 666 OFFCURVE",
"68 646 OFFCURVE",
"79 596 CURVE",
"70 426 OFFCURVE",
"54 259 OFFCURVE",
"36 75 CURVE SMOOTH",
"32 38 OFFCURVE",
"45 7 OFFCURVE",
"98 -1 CURVE SMOOTH",
"119 -4 OFFCURVE",
"149 -5 OFFCURVE",
"184 -5 CURVE SMOOTH",
"255 -5 OFFCURVE",
"332 0 OFFCURVE",
"395 5 CURVE SMOOTH",
"431 8 OFFCURVE",
"449 32 OFFCURVE",
"449 55 CURVE SMOOTH",
"449 78 OFFCURVE",
"431 100 OFFCURVE",
"395 100 CURVE SMOOTH",
"345 100 OFFCURVE",
"230 95 OFFCURVE",
"135 89 CURVE",
"143 158 OFFCURVE",
"151 226 OFFCURVE",
"158 295 CURVE",
"328 294 LINE SMOOTH",
"369 294 OFFCURVE",
"387 315 OFFCURVE",
"387 341 CURVE SMOOTH",
"387 367 OFFCURVE",
"369 392 OFFCURVE",
"324 391 CURVE SMOOTH",
"166 388 LINE",
"171 451 OFFCURVE",
"175 513 OFFCURVE",
"178 576 CURVE",
"463 576 LINE SMOOTH",
"505 576 OFFCURVE",
"523 599 OFFCURVE",
"523 622 CURVE SMOOTH",
"523 645 OFFCURVE",
"510 672 OFFCURVE",
"459 672 CURVE SMOOTH"
);
}
);
};
hints = (
{
horizontal = 1;
origin = "{0, 40}";
target = "{0, 31}";
type = TTStem;
options = 4;
},
{
horizontal = 1;
origin = "{0, 11}";
target = "{0, 17}";
type = TTStem;
options = 4;
},
{
horizontal = 1;
origin = "{1, 0}";
target = "{1, 7}";
type = TTStem;
stem = -1;
},
{
horizontal = 1;
origin = "{0, 40}";
target = "{0, 11}";
other1 = "{0, 27}";
type = Interpolate;
options = 8;
},
{
horizontal = 1;
origin = "{0, 27}";
target = "{0, 21}";
type = TTStem;
options = 4;
}
);
layerId = "92936CB7-D294-4857-B41D-63B9425360A1";
paths = (
{
closed = 1;
nodes = (
"126 -5 OFFCURVE",
"98 -1 QCURVE SMOOTH",
"29 9 OFFCURVE",
"36 75 QCURVE SMOOTH",
"58 281 OFFCURVE",
"74 501 OFFCURVE",
"79 596 QCURVE",
"72 630 OFFCURVE",
"109 666 OFFCURVE",
"150 668 QCURVE SMOOTH",
"253 672 OFFCURVE",
"459 672 QCURVE SMOOTH",
"491 672 OFFCURVE",
"523 645 OFFCURVE",
"523 622 QCURVE SMOOTH",
"523 602 OFFCURVE",
"491 576 OFFCURVE",
"463 576 QCURVE SMOOTH",
"178 576 LINE",
"174 484 OFFCURVE",
"166 388 QCURVE",
"324 391 LINE SMOOTH",
"354 392 OFFCURVE",
"387 364 OFFCURVE",
"387 341 QCURVE SMOOTH",
"387 319 OFFCURVE",
"356 294 OFFCURVE",
"328 294 QCURVE SMOOTH",
"158 295 LINE",
"152 234 OFFCURVE",
"135 89 QCURVE",
"309 100 OFFCURVE",
"395 100 QCURVE SMOOTH",
"420 100 OFFCURVE",
"449 74 OFFCURVE",
"449 55 QCURVE SMOOTH",
"449 35 OFFCURVE",
"420 7 OFFCURVE",
"393 5 QCURVE SMOOTH",
"269 -5 OFFCURVE",
"184 -5 QCURVE SMOOTH"
);
},
{
closed = 1;
nodes = (
"283 704 OFFCURVE",
"246 704 OFFCURVE",
"225 724 OFFCURVE",
"225 739 QCURVE SMOOTH",
"225 764 OFFCURVE",
"253 786 QCURVE SMOOTH",
"328 845 OFFCURVE",
"430 880 QCURVE SMOOTH",
"460 890 OFFCURVE",
"500 864 OFFCURVE",
"500 838 QCURVE SMOOTH",
"500 810 OFFCURVE",
"445 774 OFFCURVE",
"379 746 QCURVE SMOOTH",
"339 729 OFFCURVE",
"307 715 QCURVE SMOOTH"
);
}
);
width = 549;
}
);
leftKerningGroup = E;
rightKerningGroup = E;
unicode = 00C9;
},
{
color = 4;
glyphname = Ecircumflex;
layers = (
{
background = {
paths = (
{
closed = 1;
nodes = (
"73 521 OFFCURVE",
"40 338 OFFCURVE",
"40 151 CURVE SMOOTH",
"40 83 OFFCURVE",
"43 -16 OFFCURVE",
"124 -16 CURVE SMOOTH",
"229 -16 OFFCURVE",
"330 10 OFFCURVE",
"435 15 CURVE",
"471 18 OFFCURVE",
"489 42 OFFCURVE",
"489 65 CURVE SMOOTH",
"489 88 OFFCURVE",
"471 111 OFFCURVE",
"435 115 CURVE",
"336 110 OFFCURVE",
"242 94 OFFCURVE",
"143 86 CURVE",
"142 109 OFFCURVE",
"141 132 OFFCURVE",
"141 155 CURVE SMOOTH",
"141 216 OFFCURVE",
"145 277 OFFCURVE",
"150 338 CURVE",
"206 337 OFFCURVE",
"259 335 OFFCURVE",
"315 335 CURVE",
"351 338 OFFCURVE",
"369 362 OFFCURVE",
"369 385 CURVE SMOOTH",
"369 408 OFFCURVE",
"351 431 OFFCURVE",
"315 435 CURVE",
"263 435 OFFCURVE",
"211 437 OFFCURVE",
"160 438 CURVE",
"182 646 LINE",
"201 646 OFFCURVE",
"217 647 OFFCURVE",
"236 647 CURVE SMOOTH",
"275 647 OFFCURVE",
"315 646 OFFCURVE",
"354 646 CURVE SMOOTH",
"407 646 OFFCURVE",
"460 647 OFFCURVE",
"513 654 CURVE",
"540 665 OFFCURVE",
"551 685 OFFCURVE",
"551 704 CURVE SMOOTH",
"551 727 OFFCURVE",
"532 750 OFFCURVE",
"497 753 CURVE",
"450 746 OFFCURVE",
"403 745 OFFCURVE",
"356 745 CURVE SMOOTH",
"312 745 OFFCURVE",
"269 747 OFFCURVE",
"225 747 CURVE SMOOTH",
"200 747 OFFCURVE",
"175 748 OFFCURVE",
"151 745 CURVE",
"146 746 OFFCURVE",
"142 747 OFFCURVE",
"137 747 CURVE SMOOTH",
"117 747 OFFCURVE",
"97 733 OFFCURVE",
"86 705 CURVE"
);
},
{
closed = 1;
nodes = (
"247 837 OFFCURVE",
"285 852 OFFCURVE",
"317 869 CURVE",
"340 842 OFFCURVE",
"364 820 OFFCURVE",
"391 800 CURVE SMOOTH",
"402 792 OFFCURVE",
"411 784 OFFCURVE",
"420 775 CURVE SMOOTH",
"435 760 OFFCURVE",
"444 754 OFFCURVE",
"460 754 CURVE SMOOTH",
"487 754 OFFCURVE",
"508 775 OFFCURVE",
"508 807 CURVE SMOOTH",
"508 851 OFFCURVE",
"458 869 OFFCURVE",
"431 894 CURVE",
"399 921 OFFCURVE",
"379 972 OFFCURVE",
"328 972 CURVE SMOOTH",
"268 972 OFFCURVE",
"179 912 OFFCURVE",
"147 878 CURVE",
"137 864 OFFCURVE",
"132 851 OFFCURVE",
"132 839 CURVE SMOOTH",
"132 812 OFFCURVE",
"153 791 OFFCURVE",
"178 791 CURVE SMOOTH",
"193 791 OFFCURVE",
"207 797 OFFCURVE",
"220 810 CURVE SMOOTH"
);
}
);
};
color = 6;
components = (
{
name = E;
transform = "{1, 0, 0, 1, 4, 0}";
},
{
name = circumflexcomb.case;
transform = "{1, 0, 0, 1, 666, 45}";
}
);
layerId = master01;
width = 571;
},
{
layerId = "8E39700C-2F6D-4A17-B4B3-161F49A69C4C";
paths = (
{
closed = 1;
nodes = (
"94 726 OFFCURVE",
"122 747 OFFCURVE",
"137 747 QCURVE",
"141 747 OFFCURVE",
"147 746 OFFCURVE",
"151 745 QCURVE",
"169 747 OFFCURVE",
"206 747 OFFCURVE",
"225 747 QCURVE",
"258 747 OFFCURVE",
"323 745 OFFCURVE",
"356 745 QCURVE {name = at01;}",
"391 745 OFFCURVE",
"462 748 OFFCURVE",
"497 753 QCURVE",
"523 751 OFFCURVE",
"551 721 OFFCURVE",
"551 704 QCURVE",
"551 690 OFFCURVE",
"533 662 OFFCURVE",
"513 654 QCURVE",
"473 649 OFFCURVE",
"394 646 OFFCURVE",
"354 646 QCURVE {name = sv01;}",
"325 646 OFFCURVE",
"265 647 OFFCURVE",
"236 647 QCURVE",
"222 647 OFFCURVE",
"196 646 OFFCURVE",
"182 646 QCURVE",
"177 594 OFFCURVE",
"165 490 OFFCURVE",
"160 438 QCURVE {name = dv02;}",
"198 437 OFFCURVE",
"276 435 OFFCURVE",
"315 435 QCURVE",
"342 432 OFFCURVE",
"369 402 OFFCURVE",
"369 385 QCURVE",
"369 368 OFFCURVE",
"342 337 OFFCURVE",
"315 335 QCURVE",
"273 335 OFFCURVE",
"192 337 OFFCURVE",
"150 338 QCURVE {name = dv01;}",
"146 292 OFFCURVE",
"141 201 OFFCURVE",
"141 155 QCURVE",
"141 138 OFFCURVE",
"142 103 OFFCURVE",
"143 86 QCURVE {name = sv02;}",
"217 92 OFFCURVE",
"361 111 OFFCURVE",
"435 115 QCURVE",
"462 112 OFFCURVE",
"489 82 OFFCURVE",
"489 65 QCURVE",
"489 48 OFFCURVE",
"462 17 OFFCURVE",
"435 15 QCURVE",
"396 13 OFFCURVE",
"318 3 OFFCURVE",
"241 -8 OFFCURVE",
"163 -16 OFFCURVE",
"124 -16 QCURVE {name = ab01;}",
"94 -16 OFFCURVE",
"60 17 OFFCURVE",
"43 67 OFFCURVE",
"40 125 OFFCURVE",
"40 151 QCURVE",
"40 221 OFFCURVE",
"51 360 OFFCURVE",
"66 498 OFFCURVE",
"81 636 OFFCURVE",
"86 705 QCURVE"
);
},
{
closed = 1;
nodes = (
"200 791 OFFCURVE",
"178 791 QCURVE",
"159 791 OFFCURVE",
"132 819 OFFCURVE",
"132 839 QCURVE",
"132 857 OFFCURVE",
"147 878 QCURVE",
"159 891 OFFCURVE",
"202 923 OFFCURVE",
"252 952 OFFCURVE",
"305 972 OFFCURVE",
"328 972 QCURVE {name = dv04;}",
"347 972 OFFCURVE",
"375 955 OFFCURVE",
"398 931 OFFCURVE",
"419 904 OFFCURVE",
"431 894 QCURVE",
"441 885 OFFCURVE",
"468 868 OFFCURVE",
"492 848 OFFCURVE",
"508 823 OFFCURVE",
"508 807 QCURVE",
"508 783 OFFCURVE",
"480 754 OFFCURVE",
"460 754 QCURVE",
"448 754 OFFCURVE",
"431 764 OFFCURVE",
"420 775 QCURVE",
"407 788 OFFCURVE",
"391 800 QCURVE",
"371 815 OFFCURVE",
"334 849 OFFCURVE",
"317 869 QCURVE {name = dv03;}",
"293 856 OFFCURVE",
"240 830 OFFCURVE",
"220 810 QCURVE"
);
}
);
width = 571;
},
{
color = 6;
components = (
{
name = E;
transform = "{1, 0, 0, 1, 4, 0}";
},
{
name = circumflexcomb.case;
transform = "{1, 0, 0, 1, 666, 45}";
}
);
layerId = "92936CB7-D294-4857-B41D-63B9425360A1";
width = 571;
}
);
leftKerningGroup = E;
rightKerningGroup = E;
unicode = 00CA;
},
{
glyphname = Egrave;
layers = (
{
color = 6;
components = (
{
name = E.001;
},
{
name = gravecomb.case;
transform = "{1, 0, 0, 1, 690, 68}";
}
);
layerId = master01;
userData = {
com.typemytype.robofont.mark = (
0.6,
0.741,
1,
1
);
};
width = 541;
},
{
layerId = "8E39700C-2F6D-4A17-B4B3-161F49A69C4C";
paths = (
{
closed = 1;
nodes = (
"71 739 OFFCURVE",
"97 769 OFFCURVE",
"120 776 QCURVE {name = at01;}",
"204 774 OFFCURVE",
"368 760 OFFCURVE",
"452 758 QCURVE",
"479 755 OFFCURVE",
"506 725 OFFCURVE",
"506 708 QCURVE",
"506 691 OFFCURVE",
"479 660 OFFCURVE",
"452 658 QCURVE",
"379 660 OFFCURVE",
"236 671 OFFCURVE",
"163 674 QCURVE {name = sv01;}",
"161 616 OFFCURVE",
"155 501 OFFCURVE",
"152 444 QCURVE {name = dv02;}",
"193 443 OFFCURVE",
"273 441 OFFCURVE",
"314 441 QCURVE",
"341 438 OFFCURVE",
"368 408 OFFCURVE",
"368 391 QCURVE",
"368 374 OFFCURVE",
"341 343 OFFCURVE",
"314 341 QCURVE",
"272 341 OFFCURVE",
"190 343 OFFCURVE",
"148 344 QCURVE {name = dv01;}",
"146 308 OFFCURVE",
"146 238 OFFCURVE",
"146 205 QCURVE",
"146 179 OFFCURVE",
"149 130 OFFCURVE",
"154 105 QCURVE {name = sv02;}",
"177 107 LINE",
"249 114 OFFCURVE",
"395 119 OFFCURVE",
"473 119 QCURVE",
"493 119 OFFCURVE",
"530 116 OFFCURVE",
"559 105 OFFCURVE",
"576 85 OFFCURVE",
"576 68 QCURVE",
"576 51 OFFCURVE",
"547 18 OFFCURVE",
"522 18 QCURVE",
"481 18 OFFCURVE",
"380 18 OFFCURVE",
"275 15 OFFCURVE",
"176 9 OFFCURVE",
"137 4 QCURVE {name = ab01;}",
"134 3 OFFCURVE",
"127 3 OFFCURVE",
"124 3 QCURVE",
"101 3 OFFCURVE",
"71 30 OFFCURVE",
"53 77 OFFCURVE",
"46 142 OFFCURVE",
"46 180 QCURVE",
"46 317 OFFCURVE",
"61 586 OFFCURVE",
"65 722 QCURVE"
);
},
{
closed = 1;
nodes = (
"211 899 OFFCURVE",
"197 924 OFFCURVE",
"197 937 QCURVE",
"197 955 OFFCURVE",
"224 983 OFFCURVE",
"246 983 QCURVE {name = sv03;}",
"256 983 OFFCURVE",
"291 968 OFFCURVE",
"331 942 OFFCURVE",
"374 909 OFFCURVE",
"408 875 OFFCURVE",
"430 841 OFFCURVE",
"430 828 QCURVE",
"430 808 OFFCURVE",
"402 781 OFFCURVE",
"382 781 QCURVE {name = at02;}",
"374 781 OFFCURVE",
"357 786 OFFCURVE",
"348 792 QCURVE",
"320 820 OFFCURVE",
"262 870 OFFCURVE",
"227 889 QCURVE"
);
}
);
width = 541;
},
{
color = 6;
components = (
{
name = E.001;
},
{
name = gravecomb.case;
transform = "{1, 0, 0, 1, 690, 68}";
}
);
layerId = "92936CB7-D294-4857-B41D-63B9425360A1";
userData = {
com.typemytype.robofont.mark = (
0.6,
0.986,
1,
1
);
};
width = 541;
}
);
leftKerningGroup = E;
rightKerningGroup = E;
unicode = 00C8;
},
{
color = 4;
glyphname = F;
layers = (
{
anchors = (
{
name = bottom;
position = "{162, 5}";
},
{
name = top;
position = "{338, 725}";
}
);
layerId = master01;
paths = (
{
closed = 1;
nodes = (
"190 635 OFFCURVE",
"432 633 OFFCURVE",
"544 638 CURVE SMOOTH",
"580 640 OFFCURVE",
"597 659 OFFCURVE",
"597 684 CURVE SMOOTH",
"597 714 OFFCURVE",
"579 735 OFFCURVE",
"527 734 CURVE SMOOTH",
"389 730 OFFCURVE",
"258 727 OFFCURVE",
"112 734 CURVE SMOOTH",
"39 737 OFFCURVE",
"34 650 OFFCURVE",
"100 644 CURVE SMOOTH"
);
},
{
closed = 1;
nodes = (
"466 309 OFFCURVE",
"487 328 OFFCURVE",
"487 359 CURVE SMOOTH",
"487 392 OFFCURVE",
"466 407 OFFCURVE",
"425 409 CURVE SMOOTH",
"376 411 OFFCURVE",
"258 408 OFFCURVE",
"174 403 CURVE",
"174 311 LINE",
"259 313 OFFCURVE",
"396 309 OFFCURVE",
"425 309 CURVE SMOOTH"
);
},
{
closed = 1;
nodes = (
"192 -14 OFFCURVE",
"211 11 OFFCURVE",
"210 51 CURVE SMOOTH",
"208 173 OFFCURVE",
"214 428 OFFCURVE",
"229 665 CURVE",
"127 676 LINE",
"113 435 OFFCURVE",
"103 171 OFFCURVE",
"106 44 CURVE SMOOTH",
"107 8 OFFCURVE",
"128 -14 OFFCURVE",
"159 -14 CURVE SMOOTH"
);
}
);
userData = {
com.typemytype.robofont.mark = (
0.619,
1,
0.6,
1
);
};
width = 625;
},
{
anchors = (
{
name = bottom;
position = "{162, 5}";
},
{
name = top;
position = "{338, 725}";
}
);
layerId = "8E39700C-2F6D-4A17-B4B3-161F49A69C4C";
paths = (
{
closed = 1;
nodes = (
"74 304 OFFCURVE",
"45 333 OFFCURVE",
"45 354 QCURVE",
"45 375 OFFCURVE",
"74 404 OFFCURVE",
"94 404 QCURVE",
"126 404 LINE {name = sv01;}",
"125 434 OFFCURVE",
"121 495 OFFCURVE",
"121 526 QCURVE",
"121 555 OFFCURVE",
"128 610 OFFCURVE",
"131 639 QCURVE",
"123 640 OFFCURVE",
"107 640 OFFCURVE",
"100 640 QCURVE {name = sv02;}",
"80 640 OFFCURVE",
"52 667 OFFCURVE",
"52 687 QCURVE",
"52 710 OFFCURVE",
"83 741 OFFCURVE",
"105 741 QCURVE {name = at02;}",
"165 741 OFFCURVE",
"282 730 OFFCURVE",
"342 730 QCURVE {name = at01;}",
"396 730 OFFCURVE",
"513 734 OFFCURVE",
"559 734 QCURVE",
"584 734 OFFCURVE",
"613 701 OFFCURVE",
"613 684 QCURVE",
"613 667 OFFCURVE",
"584 634 OFFCURVE",
"559 634 QCURVE",
"506 634 OFFCURVE",
"402 630 OFFCURVE",
"349 630 QCURVE {name = sv03;}",
"320 630 OFFCURVE",
"262 632 OFFCURVE",
"231 634 QCURVE",
"226 603 OFFCURVE",
"221 544 OFFCURVE",
"221 515 QCURVE",
"221 487 OFFCURVE",
"224 433 OFFCURVE",
"225 405 QCURVE {name = dv02;}",
"277 407 OFFCURVE",
"380 409 OFFCURVE",
"433 409 QCURVE",
"458 409 OFFCURVE",
"487 380 OFFCURVE",
"487 359 QCURVE",
"487 338 OFFCURVE",
"458 309 OFFCURVE",
"433 309 QCURVE",
"380 309 OFFCURVE",
"276 307 OFFCURVE",
"223 305 QCURVE {name = dv01;}",
"221 237 OFFCURVE",
"212 108 OFFCURVE",
"212 40 QCURVE",
"212 18 OFFCURVE",
"185 -14 OFFCURVE",
"161 -14 QCURVE {name = ab01;}",
"141 -14 OFFCURVE",
"112 17 OFFCURVE",
"112 44 QCURVE",
"112 110 OFFCURVE",
"120 238 OFFCURVE",
"124 304 QCURVE {name = sv04;}",
"94 304 LINE"
);
}
);
width = 625;
},
{
anchors = (
{
name = bottom;
position = "{162, 5}";
},
{
name = top;
position = "{338, 725}";
}
);
background = {
paths = (
{
closed = 1;
nodes = (
"192 -14 OFFCURVE",
"211 11 OFFCURVE",
"210 51 CURVE SMOOTH",
"209 111 OFFCURVE",
"210 204 OFFCURVE",
"213 312 CURVE",
"296 312 OFFCURVE",
"400 309 OFFCURVE",
"425 309 CURVE SMOOTH",
"466 309 OFFCURVE",
"487 328 OFFCURVE",
"487 359 CURVE SMOOTH",
"487 392 OFFCURVE",
"466 407 OFFCURVE",
"425 409 CURVE SMOOTH",
"384 411 OFFCURVE",
"294 409 OFFCURVE",
"216 405 CURVE",
"219 480 OFFCURVE",
"223 560 OFFCURVE",
"227 637 CURVE",
"334 634 OFFCURVE",
"469 636 OFFCURVE",
"544 638 CURVE SMOOTH",
"580 639 OFFCURVE",
"597 659 OFFCURVE",
"597 684 CURVE SMOOTH",
"597 714 OFFCURVE",
"579 735 OFFCURVE",
"527 734 CURVE SMOOTH",
"389 731 OFFCURVE",
"258 728 OFFCURVE",
"112 734 CURVE SMOOTH",
"39 737 OFFCURVE",
"34 650 OFFCURVE",
"100 644 CURVE",
"107 643 OFFCURVE",
"116 643 OFFCURVE",
"125 642 CURVE {name = sv02;}",
"112 411 OFFCURVE",
"103 165 OFFCURVE",
"106 44 CURVE SMOOTH",
"107 8 OFFCURVE",
"128 -14 OFFCURVE",
"159 -14 CURVE SMOOTH"
);
}
);
};
hints = (
{
horizontal = 1;
origin = "{0, 40}";
type = Anchor;
},
{
horizontal = 1;
origin = "{0, 14}";
target = "{0, 20}";
type = TTStem;
options = 4;
},
{
horizontal = 1;
origin = "{0, 20}";
target = "{0, 5}";
type = Align;
options = 4;
},
{
horizontal = 1;
origin = "{0, 40}";
target = "{0, 14}";
other1 = "{0, 31}";
type = Interpolate;
options = 4;
},
{
horizontal = 1;
origin = "{0, 31}";
target = "{0, 26}";
type = TTStem;
options = 4;
}
);
layerId = "92936CB7-D294-4857-B41D-63B9425360A1";
paths = (
{
closed = 1;
nodes = (
"136 -14 OFFCURVE",
"107 17 OFFCURVE",
"106 44 QCURVE SMOOTH",
"104 128 OFFCURVE",
"114 452 OFFCURVE",
"125 642 QCURVE {name = sv02;}",
"100 644 LINE",
"76 646 OFFCURVE",
"51 676 OFFCURVE",
"57 713 OFFCURVE",
"89 735 OFFCURVE",
"112 734 QCURVE SMOOTH",
"256 730 OFFCURVE",
"388 731 OFFCURVE",
"527 734 QCURVE SMOOTH",
"562 735 OFFCURVE",
"597 710 OFFCURVE",
"597 684 QCURVE SMOOTH",
"597 664 OFFCURVE",
"569 639 OFFCURVE",
"544 638 QCURVE SMOOTH",
"363 633 OFFCURVE",
"227 637 QCURVE",
"220 493 OFFCURVE",
"216 405 QCURVE",
"358 412 OFFCURVE",
"425 409 QCURVE SMOOTH",
"457 407 OFFCURVE",
"487 383 OFFCURVE",
"487 335 OFFCURVE",
"455 309 OFFCURVE",
"425 309 QCURVE SMOOTH",
"397 309 OFFCURVE",
"373 310 QCURVE SMOOTH",
"285 312 OFFCURVE",
"213 312 QCURVE",
"208 147 OFFCURVE",
"210 51 QCURVE SMOOTH",
"211 21 OFFCURVE",
"184 -14 OFFCURVE",
"159 -14 QCURVE SMOOTH"
);
}
);
userData = {
com.typemytype.robofont.mark = (
0.656,
1,
0.6,
1
);
};
width = 625;
}
);
leftKerningGroup = F;
rightKerningGroup = F;
unicode = 0046;
},
{
color = 4;
glyphname = G;
layers = (
{
anchors = (
{
name = bottom;
position = "{248, -5}";
},
{
name = top;
position = "{449, 725}";
}
);
layerId = master01;
paths = (
{
closed = 1;
nodes = (
"352 -25 OFFCURVE",
"437 33 OFFCURVE",
"501 128 CURVE",
"511 41 OFFCURVE",
"578 -37 OFFCURVE",
"646 -37 CURVE SMOOTH",
"707 -37 OFFCURVE",
"709 22 OFFCURVE",
"673 46 CURVE SMOOTH",
"598 96 OFFCURVE",
"582 138 OFFCURVE",
"590 268 CURVE SMOOTH",
"592 306 OFFCURVE",
"576 328 OFFCURVE",
"538 335 CURVE SMOOTH",
"499 342 OFFCURVE",
"421 349 OFFCURVE",
"347 346 CURVE SMOOTH",
"314 345 OFFCURVE",
"292 325 OFFCURVE",
"292 298 CURVE SMOOTH",
"292 272 OFFCURVE",
"308 253 OFFCURVE",
"345 252 CURVE SMOOTH",
"413 250 OFFCURVE",
"477 250 OFFCURVE",
"545 249 CURVE",
"482 277 LINE",
"453 176 OFFCURVE",
"359 69 OFFCURVE",
"246 69 CURVE SMOOTH",
"149 69 OFFCURVE",
"130 203 OFFCURVE",
"187 374 CURVE SMOOTH",
"238 526 OFFCURVE",
"341 655 OFFCURVE",
"448 655 CURVE SMOOTH",
"496 655 OFFCURVE",
"538 630 OFFCURVE",
"575 609 CURVE SMOOTH",
"622 582 OFFCURVE",
"658 651 OFFCURVE",
"618 687 CURVE SMOOTH",
"573 727 OFFCURVE",
"512 749 OFFCURVE",
"451 749 CURVE SMOOTH",
"271 749 OFFCURVE",
"142 572 OFFCURVE",
"83 394 CURVE SMOOTH",
"-7 123 OFFCURVE",
"78 -25 OFFCURVE",
"246 -25 CURVE SMOOTH"
);
}
);
userData = {
com.typemytype.robofont.mark = (
0.619,
1,
0.6,
1
);
};
width = 728;
},
{
anchors = (
{
name = bottom;
position = "{248, -5}";
},
{
name = top;
position = "{449, 725}";
}
);
layerId = "8E39700C-2F6D-4A17-B4B3-161F49A69C4C";
paths = (
{
closed = 1;
nodes = (
"639 677 OFFCURVE",
"639 650 QCURVE",
"639 632 OFFCURVE",
"611 603 OFFCURVE",
"588 603 QCURVE",
"574 603 OFFCURVE",
"545 617 OFFCURVE",
"511 633 OFFCURVE",
"472 647 OFFCURVE",
"448 647 QCURVE {name = sv01;}",
"410 647 OFFCURVE",
"346 615 OFFCURVE",
"293 564 OFFCURVE",
"250 501 OFFCURVE",
"232 470 QCURVE",
"217 444 OFFCURVE",
"189 376 OFFCURVE",
"167 300 OFFCURVE",
"154 221 OFFCURVE",
"154 184 QCURVE",
"154 158 OFFCURVE",
"169 118 OFFCURVE",
"195 89 OFFCURVE",
"226 74 OFFCURVE",
"243 74 QCURVE {name = sv02;}",
"287 74 OFFCURVE",
"364 109 OFFCURVE",
"426 166 OFFCURVE",
"471 239 OFFCURVE",
"482 277 QCURVE",
"482 300 OFFCURVE",
"513 333 OFFCURVE",
"536 333 QCURVE",
"559 333 OFFCURVE",
"591 302 OFFCURVE",
"591 279 QCURVE",
"591 272 OFFCURVE",
"590 268 QCURVE",
"590 235 OFFCURVE",
"589 197 OFFCURVE",
"589 180 QCURVE",
"589 139 OFFCURVE",
"625 79 OFFCURVE",
"655 58 QCURVE {name = sv03;}",
"671 56 OFFCURVE",
"698 29 OFFCURVE",
"698 8 QCURVE",
"698 -10 OFFCURVE",
"674 -40 OFFCURVE",
"651 -40 QCURVE {name = ab02;}",
"625 -40 OFFCURVE",
"577 -13 OFFCURVE",
"536 29 OFFCURVE",
"506 81 OFFCURVE",
"499 107 QCURVE",
"477 80 OFFCURVE",
"423 32 OFFCURVE",
"358 -4 OFFCURVE",
"286 -25 OFFCURVE",
"246 -25 QCURVE {name = ab01;}",
"206 -25 OFFCURVE",
"135 1 OFFCURVE",
"81 52 OFFCURVE",
"50 126 OFFCURVE",
"50 173 QCURVE",
"50 246 OFFCURVE",
"82 390 OFFCURVE",
"140 521 OFFCURVE",
"221 634 OFFCURVE",
"270 678 QCURVE",
"306 710 OFFCURVE",
"400 749 OFFCURVE",
"451 749 QCURVE {name = at01;}",
"497 749 OFFCURVE",
"574 717 OFFCURVE",
"601 700 QCURVE"
);
}
);
width = 728;
},
{
anchors = (
{
name = bottom;
position = "{248, -5}";
},
{
name = top;
position = "{449, 725}";
}
);
background = {
paths = (
{
closed = 1;
nodes = (
"707 -37 OFFCURVE",
"709 22 OFFCURVE",
"673 46 CURVE SMOOTH",
"598 96 OFFCURVE",
"583 138 OFFCURVE",
"590 268 CURVE SMOOTH",
"592 306 OFFCURVE",
"576 328 OFFCURVE",
"538 335 CURVE SMOOTH",
"499 342 OFFCURVE",
"421 348 OFFCURVE",
"347 346 CURVE SMOOTH",
"314 345 OFFCURVE",
"292 325 OFFCURVE",
"292 298 CURVE SMOOTH",
"292 272 OFFCURVE",
"308 253 OFFCURVE",
"345 252 CURVE SMOOTH",
"389 251 OFFCURVE",
"430 250 OFFCURVE",
"473 250 CURVE",
"436 158 OFFCURVE",
"349 69 OFFCURVE",
"246 69 CURVE SMOOTH",
"149 69 OFFCURVE",
"130 203 OFFCURVE",
"187 374 CURVE SMOOTH",
"238 526 OFFCURVE",
"341 655 OFFCURVE",
"448 655 CURVE SMOOTH",
"496 655 OFFCURVE",
"538 630 OFFCURVE",
"575 609 CURVE SMOOTH",
"622 582 OFFCURVE",
"658 651 OFFCURVE",
"618 687 CURVE SMOOTH",
"573 727 OFFCURVE",
"512 749 OFFCURVE",
"451 749 CURVE SMOOTH",
"271 749 OFFCURVE",
"142 572 OFFCURVE",
"83 394 CURVE SMOOTH",
"-7 123 OFFCURVE",
"78 -25 OFFCURVE",
"246 -25 CURVE SMOOTH",
"352 -25 OFFCURVE",
"437 33 OFFCURVE",
"501 128 CURVE",
"511 41 OFFCURVE",
"578 -37 OFFCURVE",
"646 -37 CURVE SMOOTH"
);
}
);
};
hints = (
{
horizontal = 1;
origin = "{0, 5}";
target = "{0, 27}";
type = TTStem;
options = 4;
},
{
horizontal = 1;
origin = "{0, 51}";
type = Anchor;
},
{
horizontal = 1;
origin = "{0, 11}";
target = "{0, 21}";
type = TTStem;
options = 4;
},
{
horizontal = 1;
origin = "{0, 5}";
target = "{0, 11}";
other1 = "{0, 32}";
type = Interpolate;
options = 8;
},
{
horizontal = 1;
origin = "{0, 32}";
target = "{0, 37}";
type = TTStem;
options = 4;
}
);
layerId = "92936CB7-D294-4857-B41D-63B9425360A1";
paths = (
{
closed = 1;
nodes = (
"596 -37 OFFCURVE",
"509 62 OFFCURVE",
"501 128 QCURVE",
"450 53 OFFCURVE",
"322 -25 OFFCURVE",
"246 -25 QCURVE SMOOTH {name = ab01;}",
"111 -25 OFFCURVE",
"20 203 OFFCURVE",
"83 394 QCURVE SMOOTH",
"136 554 OFFCURVE",
"333 749 OFFCURVE",
"451 749 QCURVE SMOOTH {name = at01;}",
"497 749 OFFCURVE",
"584 717 OFFCURVE",
"618 687 QCURVE SMOOTH",
"637 670 OFFCURVE",
"634 621 OFFCURVE",
"597 596 OFFCURVE",
"575 609 QCURVE SMOOTH",
"535 633 OFFCURVE",
"476 655 OFFCURVE",
"448 655 QCURVE SMOOTH {name = sv01;}",
"373 655 OFFCURVE",
"228 497 OFFCURVE",
"187 374 QCURVE SMOOTH",
"143 242 OFFCURVE",
"175 69 OFFCURVE",
"246 69 QCURVE SMOOTH {name = sv02;}",
"316 69 OFFCURVE",
"442 172 OFFCURVE",
"473 250 QCURVE",
"433 250 OFFCURVE",
"345 252 QCURVE SMOOTH {name = dv02;}",
"319 253 OFFCURVE",
"292 277 OFFCURVE",
"292 318 OFFCURVE",
"322 345 OFFCURVE",
"347 346 QCURVE SMOOTH {name = dv01;}",
"397 347 OFFCURVE",
"505 341 OFFCURVE",
"538 335 QCURVE SMOOTH",
"593 325 OFFCURVE",
"590 268 QCURVE SMOOTH {name = sv03;}",
"586 199 OFFCURVE",
"598 124 OFFCURVE",
"634 72 OFFCURVE",
"673 46 QCURVE SMOOTH",
"687 37 OFFCURVE",
"699 6 OFFCURVE",
"691 -22 OFFCURVE",
"665 -37 OFFCURVE",
"646 -37 QCURVE SMOOTH {name = ab02;}"
);
}
);
userData = {
com.typemytype.robofont.mark = (
0.656,
1,
0.6,
1
);
};
width = 728;
}
);
leftKerningGroup = G;
rightKerningGroup = G;
unicode = 0047;
},
{
color = 4;
glyphname = H;
layers = (
{
anchors = (
{
name = bottom;
position = "{284, 0}";
},
{
name = top;
position = "{309, 725}";
}
);
layerId = master01;
paths = (
{
closed = 1;
nodes = (
"410 -16 OFFCURVE",
"432 -35 OFFCURVE",
"459 -35 CURVE SMOOTH",
"487 -35 OFFCURVE",
"508 -18 OFFCURVE",
"510 17 CURVE SMOOTH",
"522 240 OFFCURVE",
"531 464 OFFCURVE",
"534 687 CURVE SMOOTH",
"535 719 OFFCURVE",
"510 737 OFFCURVE",
"484 737 CURVE SMOOTH",
"455 737 OFFCURVE",
"432 719 OFFCURVE",
"431 686 CURVE SMOOTH",
"428 469 OFFCURVE",
"425 245 OFFCURVE",
"412 23 CURVE SMOOTH"
);
},
{
closed = 1;
nodes = (
"181 707 OFFCURVE",
"160 728 OFFCURVE",
"129 728 CURVE SMOOTH",
"101 728 OFFCURVE",
"79 707 OFFCURVE",
"79 676 CURVE SMOOTH",
"79 460 OFFCURVE",
"71 243 OFFCURVE",
"67 27 CURVE SMOOTH",
"66 -4 OFFCURVE",
"89 -25 OFFCURVE",
"117 -25 CURVE SMOOTH",
"145 -25 OFFCURVE",
"164 -5 OFFCURVE",
"165 26 CURVE SMOOTH",
"174 242 OFFCURVE",
"180 460 OFFCURVE",
"181 668 CURVE SMOOTH"
);
},
{
closed = 1;
nodes = (
"233 323 OFFCURVE",
"348 328 OFFCURVE",
"462 330 CURVE",
"462 423 LINE",
"350 423 OFFCURVE",
"237 420 OFFCURVE",
"125 414 CURVE",
"119 317 LINE"
);
}
);
userData = {
com.typemytype.robofont.mark = (
0.619,
1,
0.6,
1
);
};
width = 604;
},
{
anchors = (
{
name = bottom;
position = "{284, 0}";
},
{
name = top;
position = "{309, 725}";
}
);
layerId = "8E39700C-2F6D-4A17-B4B3-161F49A69C4C";
paths = (
{
closed = 1;
nodes = (
"434 712 OFFCURVE",
"466 737 OFFCURVE",
"485 737 QCURVE {name = at02;}",
"504 737 OFFCURVE",
"534 711 OFFCURVE",
"534 687 QCURVE",
"534 518 OFFCURVE",
"513 180 OFFCURVE",
"513 17 QCURVE",
"513 -9 OFFCURVE",
"483 -35 OFFCURVE",
"462 -35 QCURVE {name = ab01;}",
"442 -35 OFFCURVE",
"413 -6 OFFCURVE",
"413 23 QCURVE",
"413 99 OFFCURVE",
"419 251 OFFCURVE",
"422 328 QCURVE",
"359 327 OFFCURVE",
"235 320 OFFCURVE",
"172 319 QCURVE {name = dv01;}",
"170 245 OFFCURVE",
"167 101 OFFCURVE",
"167 27 QCURVE",
"167 4 OFFCURVE",
"138 -25 OFFCURVE",
"117 -25 QCURVE {name = ab02;}",
"96 -25 OFFCURVE",
"67 4 OFFCURVE",
"67 27 QCURVE",
"67 192 OFFCURVE",
"79 511 OFFCURVE",
"79 676 QCURVE",
"79 699 OFFCURVE",
"108 728 OFFCURVE",
"129 728 QCURVE {name = at01;}",
"150 728 OFFCURVE",
"179 699 OFFCURVE",
"179 676 QCURVE",
"179 611 OFFCURVE",
"177 484 OFFCURVE",
"175 419 QCURVE {name = dv02;}",
"238 421 OFFCURVE",
"364 427 OFFCURVE",
"427 428 QCURVE",
"429 495 OFFCURVE",
"434 624 OFFCURVE",
"434 691 QCURVE"
);
}
);
width = 604;
},
{
anchors = (
{
name = bottom;
position = "{284, 0}";
},
{
name = top;
position = "{309, 725}";
}
);
hints = (
{
horizontal = 1;
origin = "{0, 13}";
type = Anchor;
},
{
horizontal = 1;
origin = "{0, 46}";
type = Anchor;
},
{
horizontal = 1;
origin = "{0, 22}";
type = Anchor;
},
{
horizontal = 1;
origin = "{0, 37}";
type = Anchor;
},
{
horizontal = 1;
origin = "{0, 13}";
target = "{0, 22}";
other1 = "{0, 4}";
type = Interpolate;
options = 8;
},
{
horizontal = 1;
origin = "{0, 4}";
target = "{0, 31}";
type = TTStem;
options = 4;
}
);
layerId = "92936CB7-D294-4857-B41D-63B9425360A1";
paths = (
{
closed = 1;
nodes = (
"439 -35 OFFCURVE",
"410 -6 OFFCURVE",
"412 23 QCURVE",
"421 176 OFFCURVE",
"424 329 QCURVE",
"300 325 LINE",
"238 323 OFFCURVE",
"175 320 QCURVE {name = dv02;}",
"173 246 OFFCURVE",
"168 100 OFFCURVE",
"165 26 QCURVE",
"164 3 OFFCURVE",
"138 -25 OFFCURVE",
"117 -25 QCURVE {name = ab02;}",
"96 -25 OFFCURVE",
"66 4 OFFCURVE",
"67 27 QCURVE",
"70 190 OFFCURVE",
"79 513 OFFCURVE",
"79 676 QCURVE",
"79 699 OFFCURVE",
"108 728 OFFCURVE",
"129 728 QCURVE {name = at01;}",
"152 728 OFFCURVE",
"181 697 OFFCURVE",
"181 668 QCURVE",
"180 605 OFFCURVE",
"179 480 OFFCURVE",
"177 416 QCURVE {name = dv01;}",
"240 419 OFFCURVE",
"364 422 OFFCURVE",
"427 423 QCURVE",
"429 489 OFFCURVE",
"430 620 OFFCURVE",
"431 686 QCURVE",
"432 711 OFFCURVE",
"462 737 OFFCURVE",
"484 737 QCURVE {name = at02;}",
"504 737 OFFCURVE",
"535 711 OFFCURVE",
"534 687 QCURVE",
"532 519 OFFCURVE",
"519 185 OFFCURVE",
"510 17 QCURVE",
"508 -9 OFFCURVE",
"480 -35 OFFCURVE",
"459 -35 QCURVE {name = ab01;}"
);
}
);
userData = {
com.typemytype.robofont.mark = (
0.656,
1,
0.6,
1
);
};
width = 604;
}
);
unicode = 0048;
},
{
glyphname = Hbar;
layers = (
{
layerId = master01;
paths = (
{
closed = 1;
nodes = (
"434 667 OFFCURVE",
"434 643 OFFCURVE",
"433 619 CURVE",
"179 615 LINE",
"179 676 LINE SMOOTH",
"179 707 OFFCURVE",
"157 728 OFFCURVE",
"129 728 CURVE SMOOTH",
"101 728 OFFCURVE",
"79 707 OFFCURVE",
"79 676 CURVE SMOOTH",
"79 615 LINE",
"48 615 LINE",
"17 607 OFFCURVE",
"4 586 OFFCURVE",
"4 565 CURVE SMOOTH",
"4 544 OFFCURVE",
"17 522 OFFCURVE",
"48 515 CURVE",
"77 515 LINE",
"74 351 OFFCURVE",
"67 192 OFFCURVE",
"67 27 CURVE SMOOTH",
"67 -4 OFFCURVE",
"89 -25 OFFCURVE",
"117 -25 CURVE SMOOTH",
"145 -25 OFFCURVE",
"167 -4 OFFCURVE",
"167 27 CURVE SMOOTH",
"167 126 OFFCURVE",
"169 220 OFFCURVE",
"172 319 CURVE",
"256 320 OFFCURVE",
"338 327 OFFCURVE",
"422 328 CURVE",
"418 225 OFFCURVE",
"413 124 OFFCURVE",
"413 23 CURVE SMOOTH",
"413 -16 OFFCURVE",
"435 -35 OFFCURVE",
"462 -35 CURVE SMOOTH",
"490 -35 OFFCURVE",
"513 -18 OFFCURVE",
"513 17 CURVE SMOOTH",
"513 180 OFFCURVE",
"524 349 OFFCURVE",
"531 520 CURVE",
"536 520 LINE SMOOTH",
"572 523 OFFCURVE",
"590 547 OFFCURVE",
"590 570 CURVE SMOOTH",
"590 593 OFFCURVE",
"572 616 OFFCURVE",
"536 620 CURVE SMOOTH",
"533 620 LINE",
"534 643 OFFCURVE",
"534 664 OFFCURVE",
"534 687 CURVE SMOOTH",
"534 719 OFFCURVE",
"510 737 OFFCURVE",
"485 737 CURVE SMOOTH",
"458 737 OFFCURVE",
"435 719 OFFCURVE",
"434 691 CURVE SMOOTH"
);
},
{
closed = 1;
nodes = (
"427 428 LINE",
"343 427 OFFCURVE",
"259 422 OFFCURVE",
"175 419 CURVE",
"176 451 OFFCURVE",
"177 483 OFFCURVE",
"177 515 CURVE",
"430 519 LINE"
);
}
);
width = 604;
},
{
layerId = "8E39700C-2F6D-4A17-B4B3-161F49A69C4C";
paths = (
{
closed = 1;
nodes = (
"435 712 OFFCURVE",
"465 737 OFFCURVE",
"485 737 QCURVE {name = at01;}",
"504 737 OFFCURVE",
"534 711 OFFCURVE",
"534 687 QCURVE",
"534 670 OFFCURVE",
"534 637 OFFCURVE",
"533 620 QCURVE {name = sv02;}",
"536 620 LINE",
"563 617 OFFCURVE",
"590 587 OFFCURVE",
"590 570 QCURVE",
"590 553 OFFCURVE",
"563 522 OFFCURVE",
"536 520 QCURVE",
"531 520 LINE {name = sv05;}",
"526 392 OFFCURVE",
"513 139 OFFCURVE",
"513 17 QCURVE",
"513 -9 OFFCURVE",
"483 -35 OFFCURVE",
"462 -35 QCURVE {name = ab02;}",
"442 -35 OFFCURVE",
"413 -6 OFFCURVE",
"413 23 QCURVE",
"413 99 OFFCURVE",
"419 251 OFFCURVE",
"422 328 QCURVE {name = sv07;}",
"359 327 OFFCURVE",
"235 320 OFFCURVE",
"172 319 QCURVE {name = sv09;}",
"170 245 OFFCURVE",
"167 101 OFFCURVE",
"167 27 QCURVE",
"167 4 OFFCURVE",
"138 -25 OFFCURVE",
"117 -25 QCURVE {name = ab01;}",
"96 -25 OFFCURVE",
"67 4 OFFCURVE",
"67 27 QCURVE",
"67 151 OFFCURVE",
"75 392 OFFCURVE",
"77 515 QCURVE {name = sv10;}",
"48 515 LINE",
"25 520 OFFCURVE",
"4 549 OFFCURVE",
"4 565 QCURVE",
"4 581 OFFCURVE",
"25 609 OFFCURVE",
"48 615 QCURVE",
"79 615 LINE {name = sv11;}",
"79 676 LINE",
"79 699 OFFCURVE",
"108 728 OFFCURVE",
"129 728 QCURVE {name = at02;}",
"150 728 OFFCURVE",
"179 699 OFFCURVE",
"179 676 QCURVE",
"179 615 LINE {name = sv01;}",
"433 619 LINE",
"434 637 OFFCURVE",
"434 673 OFFCURVE",
"434 691 QCURVE"
);
},
{
closed = 1;
nodes = (
"177 491 OFFCURVE",
"176 443 OFFCURVE",
"175 419 QCURVE {name = sv08;}",
"238 421 OFFCURVE",
"364 427 OFFCURVE",
"427 428 QCURVE {name = sv06;}",
"430 519 LINE {name = sv04;}",
"177 515 LINE {name = sv03;}"
);
}
);
width = 604;
},
{
layerId = "92936CB7-D294-4857-B41D-63B9425360A1";
paths = (
{
closed = 1;
nodes = (
"442 -35 OFFCURVE",
"413 -6 OFFCURVE",
"413 23 QCURVE",
"413 99 OFFCURVE",
"419 251 OFFCURVE",
"422 328 QCURVE {name = sv07;}",
"359 327 OFFCURVE",
"235 320 OFFCURVE",
"172 319 QCURVE {name = sv09;}",
"170 245 OFFCURVE",
"167 101 OFFCURVE",
"167 27 QCURVE",
"167 4 OFFCURVE",
"138 -25 OFFCURVE",
"117 -25 QCURVE {name = ab01;}",
"96 -25 OFFCURVE",
"67 4 OFFCURVE",
"67 27 QCURVE",
"67 151 OFFCURVE",
"75 392 OFFCURVE",
"77 515 QCURVE {name = sv10;}",
"48 515 LINE",
"25 520 OFFCURVE",
"4 549 OFFCURVE",
"4 565 QCURVE",
"4 581 OFFCURVE",
"25 609 OFFCURVE",
"48 615 QCURVE",
"79 615 LINE {name = sv11;}",
"79 676 LINE",
"79 699 OFFCURVE",
"108 728 OFFCURVE",
"129 728 QCURVE {name = at02;}",
"150 728 OFFCURVE",
"179 699 OFFCURVE",
"179 676 QCURVE",
"179 615 LINE {name = sv01;}",
"433 619 LINE",
"434 637 OFFCURVE",
"434 673 OFFCURVE",
"434 691 QCURVE",
"435 712 OFFCURVE",
"465 737 OFFCURVE",
"485 737 QCURVE {name = at01;}",
"504 737 OFFCURVE",
"534 711 OFFCURVE",
"534 687 QCURVE",
"534 670 OFFCURVE",
"534 637 OFFCURVE",
"533 620 QCURVE {name = sv02;}",
"536 620 LINE",
"563 617 OFFCURVE",
"590 587 OFFCURVE",
"590 570 QCURVE",
"590 553 OFFCURVE",
"563 522 OFFCURVE",
"536 520 QCURVE",
"531 520 LINE {name = sv05;}",
"526 392 OFFCURVE",
"513 139 OFFCURVE",
"513 17 QCURVE",
"513 -9 OFFCURVE",
"483 -35 OFFCURVE",
"462 -35 QCURVE {name = ab02;}"
);
},
{
closed = 1;
nodes = (
"238 421 OFFCURVE",
"364 427 OFFCURVE",
"427 428 QCURVE {name = sv06;}",
"430 519 LINE {name = sv04;}",
"177 515 LINE {name = sv03;}",
"177 491 OFFCURVE",
"176 443 OFFCURVE",
"175 419 QCURVE {name = sv08;}"
);
}
);
width = 604;
}
);
unicode = 0126;
},
{
color = 4;
glyphname = I;
layers = (
{
anchors = (
{
name = bottom;
position = "{131, 0}";
},
{
name = top;
position = "{159, 690}";
}
);
layerId = master01;
paths = (
{
closed = 1;
nodes = (
"97 455 OFFCURVE",
"84 262 OFFCURVE",
"86 41 CURVE SMOOTH",
"86 2 OFFCURVE",
"107 -17 OFFCURVE",
"132 -17 CURVE SMOOTH",
"160 -17 OFFCURVE",
"182 2 OFFCURVE",
"183 41 CURVE SMOOTH",
"189 264 OFFCURVE",
"201 451 OFFCURVE",
"209 667 CURVE SMOOTH",
"210 700 OFFCURVE",
"187 722 OFFCURVE",
"160 722 CURVE SMOOTH",
"128 722 OFFCURVE",
"110 699 OFFCURVE",
"109 673 CURVE SMOOTH"
);
}
);
userData = {
com.typemytype.robofont.mark = (
0.619,
1,
0.6,
1
);
};
width = 297;
},
{
anchors = (
{
name = bottom;
position = "{131, 0}";
},
{
name = top;
position = "{159, 690}";
}
);
layerId = "8E39700C-2F6D-4A17-B4B3-161F49A69C4C";
paths = (
{
closed = 1;
nodes = (
"109 693 OFFCURVE",
"139 722 OFFCURVE",
"160 722 QCURVE {name = at01;}",
"180 722 OFFCURVE",
"209 693 OFFCURVE",
"209 672 QCURVE",
"209 589 OFFCURVE",
"201 431 OFFCURVE",
"191 275 OFFCURVE",
"183 118 OFFCURVE",
"183 35 QCURVE",
"183 9 OFFCURVE",
"153 -17 OFFCURVE",
"132 -17 QCURVE {name = ab01;}",
"112 -17 OFFCURVE",
"83 12 OFFCURVE",
"83 41 QCURVE",
"83 124 OFFCURVE",
"91 281 OFFCURVE",
"101 436 OFFCURVE",
"109 593 OFFCURVE",
"109 676 QCURVE"
);
}
);
width = 297;
},
{
anchors = (
{
name = bottom;
position = "{131, 0}";
},
{
name = top;
position = "{159, 690}";
}
);
hints = (
{
horizontal = 1;
origin = "{0, 22}";
type = Anchor;
},
{
horizontal = 1;
origin = "{0, 11}";
type = Anchor;
}
);
layerId = "92936CB7-D294-4857-B41D-63B9425360A1";
paths = (
{
closed = 1;
nodes = (
"113 -17 OFFCURVE",
"86 12 OFFCURVE",
"86 41 QCURVE",
"85 124 OFFCURVE",
"89 281 OFFCURVE",
"96 435 OFFCURVE",
"104 591 OFFCURVE",
"109 673 QCURVE",
"110 693 OFFCURVE",
"136 722 OFFCURVE",
"160 722 QCURVE {name = at01;}",
"180 722 OFFCURVE",
"210 692 OFFCURVE",
"209 667 QCURVE",
"206 586 OFFCURVE",
"202 509 QCURVE",
"195 356 LINE",
"192 280 OFFCURVE",
"185 125 OFFCURVE",
"183 41 QCURVE",
"182 12 OFFCURVE",
"153 -17 OFFCURVE",
"132 -17 QCURVE {name = ab01;}"
);
}
);
userData = {
com.typemytype.robofont.mark = (
0.656,
1,
0.6,
1
);
};
width = 297;
}
);
leftKerningGroup = I;
rightKerningGroup = I;
unicode = 0049;
},
{
glyphname = Iacute;
layers = (
{
color = 6;
components = (
{
name = I;
transform = "{1, 0, 0, 1, -6, 0}";
},
{
name = acutecomb.case;
transform = "{1, 0, 0, 1, 511, -4}";
}
);
layerId = master01;
userData = {
com.typemytype.robofont.mark = (
0.6,
0.741,
1,
1
);
};
width = 273;
},
{
layerId = "8E39700C-2F6D-4A17-B4B3-161F49A69C4C";
paths = (
{
closed = 1;
nodes = (
"165 734 OFFCURVE",
"158 732 OFFCURVE",
"154 731 QCURVE",
"166 726 OFFCURVE",
"186 703 OFFCURVE",
"189 683 QCURVE",
"188 520 OFFCURVE",
"183 198 OFFCURVE",
"182 35 QCURVE",
"178 9 OFFCURVE",
"148 -15 OFFCURVE",
"131 -15 QCURVE {name = ab01;}",
"112 -15 OFFCURVE",
"82 14 OFFCURVE",
"82 43 QCURVE",
"84 206 OFFCURVE",
"88 528 OFFCURVE",
"89 691 QCURVE",
"95 708 OFFCURVE",
"117 729 OFFCURVE",
"129 732 QCURVE {name = at01;}",
"113 736 OFFCURVE",
"95 760 OFFCURVE",
"95 776 QCURVE",
"95 797 OFFCURVE",
"109 815 QCURVE",
"122 824 OFFCURVE",
"161 845 OFFCURVE",
"202 866 OFFCURVE",
"236 884 OFFCURVE",
"244 892 QCURVE",
"262 903 OFFCURVE",
"280 903 QCURVE {name = sv01;}",
"300 903 OFFCURVE",
"327 877 OFFCURVE",
"327 858 QCURVE",
"327 834 OFFCURVE",
"293 801 OFFCURVE",
"244 774 OFFCURVE",
"190 750 OFFCURVE",
"170 736 QCURVE"
);
}
);
width = 273;
},
{
color = 6;
components = (
{
name = I;
transform = "{1, 0, 0, 1, -6, 0}";
},
{
name = acutecomb.case;
transform = "{1, 0, 0, 1, 511, -4}";
}
);
layerId = "92936CB7-D294-4857-B41D-63B9425360A1";
userData = {
com.typemytype.robofont.mark = (
0.6,
0.986,
1,
1
);
};
width = 273;
}
);
leftKerningGroup = I;
rightKerningGroup = I;
unicode = 00CD;
},
{
glyphname = Igrave;
layers = (
{
color = 6;
components = (
{
name = I;
transform = "{1, 0, 0, 1, 8, 0}";
},
{
name = gravecomb.case;
transform = "{1, 0, 0, 1, 520, 22}";
}
);
layerId = master01;
userData = {
com.typemytype.robofont.mark = (
0.6,
0.741,
1,
1
);
};
width = 297;
},
{
layerId = "8E39700C-2F6D-4A17-B4B3-161F49A69C4C";
paths = (
{
closed = 1;
nodes = (
"113 704 OFFCURVE",
"143 733 OFFCURVE",
"162 733 QCURVE {name = at01;}",
"179 733 OFFCURVE",
"209 709 OFFCURVE",
"213 683 QCURVE",
"214 631 OFFCURVE",
"216 528 OFFCURVE",
"216 475 QCURVE",
"216 421 OFFCURVE",
"209 312 OFFCURVE",
"200 204 OFFCURVE",
"192 95 OFFCURVE",
"191 40 QCURVE",
"187 14 OFFCURVE",
"157 -10 OFFCURVE",
"140 -10 QCURVE {name = ab01;}",
"121 -10 OFFCURVE",
"91 19 OFFCURVE",
"91 48 QCURVE",
"92 101 OFFCURVE",
"100 206 OFFCURVE",
"109 311 OFFCURVE",
"117 416 OFFCURVE",
"117 469 QCURVE",
"117 521 OFFCURVE",
"114 624 OFFCURVE",
"113 675 QCURVE"
);
},
{
closed = 1;
nodes = (
"37 875 OFFCURVE",
"31 896 OFFCURVE",
"31 905 QCURVE",
"31 925 OFFCURVE",
"58 952 OFFCURVE",
"79 952 QCURVE {name = sv02;}",
"90 952 OFFCURVE",
"135 927 OFFCURVE",
"180 889 OFFCURVE",
"213 842 OFFCURVE",
"213 820 QCURVE",
"213 795 OFFCURVE",
"184 767 OFFCURVE",
"166 767 QCURVE {name = sv01;}",
"151 767 OFFCURVE",
"124 787 OFFCURVE",
"116 807 QCURVE",
"87 833 OFFCURVE",
"56 856 OFFCURVE",
"45 867 QCURVE"
);
}
);
width = 297;
},
{
color = 6;
components = (
{
name = I;
transform = "{1, 0, 0, 1, 8, 0}";
},
{
name = gravecomb.case;
transform = "{1, 0, 0, 1, 520, 22}";
}
);
layerId = "92936CB7-D294-4857-B41D-63B9425360A1";
userData = {
com.typemytype.robofont.mark = (
0.6,
0.986,
1,
1
);
};
width = 297;
}
);
leftKerningGroup = I;
rightKerningGroup = I;
unicode = 00CC;
},
{
color = 4;
glyphname = J;
layers = (
{
anchors = (
{
name = bottom;
position = "{283, -16}";
},
{
name = top;
position = "{280, 725}";
}
);
layerId = master01;
paths = (
{
closed = 1;
nodes = (
"406 -35 OFFCURVE",
"484 51 OFFCURVE",
"505 221 CURVE SMOOTH",
"522 360 OFFCURVE",
"513 535 OFFCURVE",
"498 663 CURVE SMOOTH",
"494 697 OFFCURVE",
"477 720 OFFCURVE",
"430 723 CURVE SMOOTH",
"340 729 OFFCURVE",
"224 728 OFFCURVE",
"135 725 CURVE SMOOTH",
"96 724 OFFCURVE",
"79 703 OFFCURVE",
"79 676 CURVE SMOOTH",
"79 650 OFFCURVE",
"98 630 OFFCURVE",
"134 630 CURVE SMOOTH",
"225 630 OFFCURVE",
"355 632 OFFCURVE",
"453 631 CURVE",
"399 649 LINE",
"412 533 OFFCURVE",
"423 360 OFFCURVE",
"407 228 CURVE SMOOTH",
"393 112 OFFCURVE",
"342 59 OFFCURVE",
"266 59 CURVE SMOOTH",
"174 59 OFFCURVE",
"126 127 OFFCURVE",
"129 223 CURVE SMOOTH",
"130 262 OFFCURVE",
"107 275 OFFCURVE",
"85 275 CURVE SMOOTH",
"50 275 OFFCURVE",
"36 243 OFFCURVE",
"36 196 CURVE SMOOTH",
"36 60 OFFCURVE",
"124 -35 OFFCURVE",
"275 -35 CURVE SMOOTH"
);
}
);
userData = {
com.typemytype.robofont.mark = (
0.619,
1,
0.6,
1
);
};
width = 578;
},
{
anchors = (
{
name = bottom;
position = "{283, -16}";
},
{
name = top;
position = "{280, 725}";
}
);
layerId = "8E39700C-2F6D-4A17-B4B3-161F49A69C4C";
paths = (
{
closed = 1;
nodes = (
"105 628 OFFCURVE",
"79 662 OFFCURVE",
"79 678 QCURVE",
"79 694 OFFCURVE",
"105 728 OFFCURVE",
"128 728 QCURVE {name = at01;}",
"208 728 OFFCURVE",
"360 725 OFFCURVE",
"440 725 QCURVE",
"463 725 OFFCURVE",
"488 700 OFFCURVE",
"500 661 OFFCURVE",
"502 615 OFFCURVE",
"502 594 QCURVE",
"502 556 OFFCURVE",
"496 478 OFFCURVE",
"496 443 QCURVE",
"496 386 OFFCURVE",
"507 289 OFFCURVE",
"507 241 QCURVE",
"507 198 OFFCURVE",
"484 100 OFFCURVE",
"434 16 OFFCURVE",
"356 -40 OFFCURVE",
"301 -40 QCURVE {name = ab01;}",
"251 -40 OFFCURVE",
"155 1 OFFCURVE",
"79 67 OFFCURVE",
"32 151 OFFCURVE",
"32 194 QCURVE",
"32 211 OFFCURVE",
"34 253 OFFCURVE",
"40 270 QCURVE",
"45 283 OFFCURVE",
"72 301 OFFCURVE",
"86 301 QCURVE",
"103 301 OFFCURVE",
"135 273 OFFCURVE",
"135 247 QCURVE",
"135 235 OFFCURVE",
"132 212 OFFCURVE",
"132 199 QCURVE",
"132 185 OFFCURVE",
"137 160 OFFCURVE",
"145 149 QCURVE",
"155 135 OFFCURVE",
"192 104 OFFCURVE",
"236 77 OFFCURVE",
"284 59 OFFCURVE",
"305 59 QCURVE {name = sv02;}",
"329 59 OFFCURVE",
"357 86 OFFCURVE",
"368 103 QCURVE",
"392 140 OFFCURVE",
"409 218 OFFCURVE",
"409 260 QCURVE",
"409 308 OFFCURVE",
"397 403 OFFCURVE",
"397 449 QCURVE",
"397 481 OFFCURVE",
"402 552 OFFCURVE",
"402 587 QCURVE",
"402 596 OFFCURVE",
"402 614 OFFCURVE",
"401 623 QCURVE",
"387 622 OFFCURVE",
"357 622 OFFCURVE",
"343 622 QCURVE",
"287 622 OFFCURVE",
"186 628 OFFCURVE",
"131 628 QCURVE {name = sv01;}"
);
}
);
width = 578;
},
{
anchors = (
{
name = bottom;
position = "{283, -16}";
},
{
name = top;
position = "{280, 725}";
}
);
background = {
paths = (
{
closed = 1;
nodes = (
"406 -35 OFFCURVE",
"484 51 OFFCURVE",
"505 221 CURVE SMOOTH",
"522 360 OFFCURVE",
"513 535 OFFCURVE",
"498 663 CURVE SMOOTH",
"494 697 OFFCURVE",
"477 720 OFFCURVE",
"430 723 CURVE SMOOTH",
"340 729 OFFCURVE",
"224 728 OFFCURVE",
"135 725 CURVE SMOOTH",
"96 724 OFFCURVE",
"79 703 OFFCURVE",
"79 676 CURVE SMOOTH",
"79 650 OFFCURVE",
"98 630 OFFCURVE",
"134 630 CURVE SMOOTH",
"210 630 OFFCURVE",
"312 631 OFFCURVE",
"401 631 CURVE",
"413 516 OFFCURVE",
"422 353 OFFCURVE",
"407 228 CURVE SMOOTH",
"393 112 OFFCURVE",
"342 59 OFFCURVE",
"266 59 CURVE SMOOTH",
"174 59 OFFCURVE",
"126 127 OFFCURVE",
"129 223 CURVE SMOOTH",
"130 262 OFFCURVE",
"107 275 OFFCURVE",
"85 275 CURVE SMOOTH",
"50 275 OFFCURVE",
"36 243 OFFCURVE",
"36 196 CURVE SMOOTH",
"36 60 OFFCURVE",
"124 -35 OFFCURVE",
"275 -35 CURVE SMOOTH"
);
}
);
};
hints = (
{
horizontal = 1;
origin = "{0, 24}";
target = "{0, 18}";
type = TTStem;
options = 4;
},
{
horizontal = 1;
origin = "{0, 35}";
target = "{0, 11}";
type = TTStem;
options = 4;
}
);
layerId = "92936CB7-D294-4857-B41D-63B9425360A1";
paths = (
{
closed = 1;
nodes = (
"202 -35 OFFCURVE",
"94 22 OFFCURVE",
"36 127 OFFCURVE",
"36 196 QCURVE SMOOTH",
"36 275 OFFCURVE",
"85 275 QCURVE SMOOTH",
"106 275 OFFCURVE",
"130 248 OFFCURVE",
"129 223 QCURVE SMOOTH",
"127 148 OFFCURVE",
"200 59 OFFCURVE",
"266 59 QCURVE SMOOTH",
"325 59 OFFCURVE",
"397 144 OFFCURVE",
"407 228 QCURVE SMOOTH",
"416 306 OFFCURVE",
"413 518 OFFCURVE",
"401 631 QCURVE",
"134 630 LINE SMOOTH",
"109 630 OFFCURVE",
"79 655 OFFCURVE",
"79 676 QCURVE SMOOTH",
"79 698 OFFCURVE",
"108 724 OFFCURVE",
"135 725 QCURVE SMOOTH",
"311 731 OFFCURVE",
"430 723 QCURVE SMOOTH",
"462 721 OFFCURVE",
"495 692 OFFCURVE",
"498 663 QCURVE SMOOTH",
"512 545 OFFCURVE",
"516 311 OFFCURVE",
"505 221 QCURVE SMOOTH",
"489 94 OFFCURVE",
"373 -35 OFFCURVE",
"275 -35 QCURVE SMOOTH"
);
}
);
userData = {
com.typemytype.robofont.mark = (
0.656,
1,
0.6,
1
);
};
width = 578;
}
);
leftKerningGroup = J;
rightKerningGroup = J;
unicode = 004A;
},
{
color = 4;
glyphname = K;
layers = (
{
anchors = (
{
name = bottom;
position = "{293, 0}";
},
{
name = top;
position = "{294, 725}";
}
);
background = {
paths = (
{
closed = 1;
nodes = (
"76 505 OFFCURVE",
"51 304 OFFCURVE",
"51 101 CURVE SMOOTH",
"51 74 OFFCURVE",
"54 51 OFFCURVE",
"54 24 CURVE SMOOTH",
"54 1 OFFCURVE",
"76 -17 OFFCURVE",
"103 -17 CURVE SMOOTH",
"130 -17 OFFCURVE",
"153 3 OFFCURVE",
"165 36 CURVE",
"184 56 OFFCURVE",
"194 78 OFFCURVE",
"207 110 CURVE SMOOTH",
"229 162 OFFCURVE",
"256 237 OFFCURVE",
"285 290 CURVE",
"341 165 OFFCURVE",
"427 30 OFFCURVE",
"478 -16 CURVE SMOOTH",
"488 -24 OFFCURVE",
"500 -28 OFFCURVE",
"514 -28 CURVE SMOOTH",
"541 -28 OFFCURVE",
"561 -7 OFFCURVE",
"561 18 CURVE SMOOTH",
"561 33 OFFCURVE",
"554 48 OFFCURVE",
"539 63 CURVE",
"490 106 OFFCURVE",
"393 271 OFFCURVE",
"353 389 CURVE",
"426 493 OFFCURVE",
"478 575 OFFCURVE",
"537 651 CURVE SMOOTH",
"544 660 OFFCURVE",
"548 675 OFFCURVE",
"548 684 CURVE SMOOTH",
"548 712 OFFCURVE",
"527 732 OFFCURVE",
"500 732 CURVE SMOOTH",
"475 732 OFFCURVE",
"459 720 OFFCURVE",
"443 699 CURVE SMOOTH",
"400 640 OFFCURVE",
"362 579 OFFCURVE",
"318 519 CURVE SMOOTH",
"257 434 OFFCURVE",
"185 330 OFFCURVE",
"155 247 CURVE",
"162 400 OFFCURVE",
"177 550 OFFCURVE",
"177 703 CURVE SMOOTH",
"177 731 OFFCURVE",
"155 753 OFFCURVE",
"128 753 CURVE SMOOTH",
"100 753 OFFCURVE",
"76 734 OFFCURVE",
"76 707 CURVE SMOOTH"
);
}
);
};
layerId = master01;
paths = (
{
closed = 1;
nodes = (
"114 -24 OFFCURVE",
"132 -10 OFFCURVE",
"142 12 CURVE",
"231 132 OFFCURVE",
"425 454 OFFCURVE",
"548 651 CURVE SMOOTH",
"589 717 OFFCURVE",
"499 767 OFFCURVE",
"454 694 CURVE SMOOTH",
"333 495 OFFCURVE",
"201 271 OFFCURVE",
"81 65 CURVE",
"110 56 LINE",
"127 110 OFFCURVE",
"145 237 OFFCURVE",
"159 393 CURVE SMOOTH",
"170 516 OFFCURVE",
"180 636 OFFCURVE",
"182 687 CURVE SMOOTH",
"183 721 OFFCURVE",
"160 743 OFFCURVE",
"133 743 CURVE SMOOTH",
"105 743 OFFCURVE",
"83 724 OFFCURVE",
"81 697 CURVE SMOOTH",
"58 417 OFFCURVE",
"32 134 OFFCURVE",
"41 24 CURVE SMOOTH",
"43 -7 OFFCURVE",
"60 -24 OFFCURVE",
"91 -24 CURVE SMOOTH"
);
},
{
closed = 1;
nodes = (
"531 -55 OFFCURVE",
"592 13 OFFCURVE",
"545 61 CURVE SMOOTH",
"495 113 OFFCURVE",
"374 256 OFFCURVE",
"340 394 CURVE",
"278 307 LINE",
"319 169 OFFCURVE",
"428 27 OFFCURVE",
"478 -13 CURVE SMOOTH"
);
}
);
userData = {
de.kutilek.scrawl.data = <89504e470d0a1a0a0000000d49484452000003120000050d08000000004aff286300004000494441547801ed5d778015d5f59edd6577e920d2a417150ba8107bc3de7bef1abb899a66f4979898c492668a31c61e6b3496c416bb88d83b1650ec28080a48915e777fc0b26fdfbd6fe6bd29f79e73eedccf3fe49e3bf79ef2ddf3ed99993773a7aa31c07f400008b42050ddd2440b0800812000259005404041009450e08000044009e40010501000251438200001500239000414044009050e08400094400e0001050150428103021000259003404041009450e08000044009e40010501000251438200001500239000414044009050e08400094400e0001050150428103021000259003404041009450e08000044009e40010501000251438200001500239000414044009050e08400094400e0001050150428103021000259003404041009450e08000044009e40010501000251438200001500239000414044009050e08400094400e0001050150428103021000259003404041009450e08000044009e40010501000251438200001500239000414044009050e08400094400e0001050150428103021000259003404041009450e08000044009e40010501000251438200001500239000414044009050e08400094400e0001050150428103021000259003404041009450e08000044009e40010501000251438200001500239000414044009050e08400094400e0001050150428103021000259003404041009450e08000044009e40010501000251438200001500239000414044009050e08400094400e0001050150428103021000259003404041009450e08000044009e40010501000251438200001500239000414044009050e08400094400e0001050150428103021000259003404041009450e08000044009e40010501000251438200001500239000414044009050e08400094400e0001050150428103021000259003404041009450e08000044009e40010501000251438200001500239000414044009050e08400094400e0001050150428103021000259003404041009450e08000044009e40010501000251438200001500239000414044009050e08400094400e0001050150428103021000259003404041009450e08000044009e40010501000251438200001500239000414044009050e08400094400e0001050150428103021000259003404041009450e08000044009e40010501000251438200001500239000414044009050e08400094400e0001050150428103021000259003404041a09522e55298f2e1a44fbf9eb93868d3a57bdf7e237ae6324604650e815c5362decda3dff97ab10656eb6e43f73bb19dd6091108342350d5d8dccad9bf2bfe75d74b732363eab0f9d1a756451ec5019f11c829251ebdf4d5860acb5abdd50507561882c33e2290474accfefe830b63ad65fd61ffe8146b2006798440fe28f1f5298fc53f19acdaebfa3e1ead36428d8140de2831ed9867e21362353e23ffbb760c9c30c41b0472f6bbc4f9bd47276444f06c8ff3bd596d041a03815c5589678e9c1123e4d2215deed8abb4133d9e2290274a1cfe9fd48b78d4bf534fc5c49c21901f4a4cda764a86b5e9fd62ff0cb331354708e4e65ae25f83b3302298b2ee4d395a5584920181bc50e2c7c72fcf80c2caa9cb4fb9209b02ccce09023939713afa2e03eb71f49d069440450181c649e327cf9c397356505b57dba677bf7efdfbd5158e096ee483123b8f3102f18ecf1a51032541f0d553cf8f7b7f9e8644dd665b6dbdd560ad539c980b4a7c67ac215c377fdd9022afd5348c7ef4f10991080c3ce4d0ad453f7199074aecf54424fe490fecfd68d21918af21f0d6f9cf2dd5ba74719d43cfda48ef9323e78012a798bc5774ca8d72d6c6414f1efdd9f84a4f203745b5db0ff6955a2adcbfe3f46b938c08fef96b07135188cb1f1f5ebfefbbf118118cda7ffd9b620ea58ecef92a316a77c3908ddad5b0424fd4ddf6f3a43f0c6df227d36b67046ad72931b7e7222338b42869f375c71601ad98085cf5eb993147160fdbfbcf1b168b32daae9f386d6f9a11c1a2ed65ac8c4b5efcabf3396918113c36fccf491f5cb60f8be394b8609c7988c6fdccbcce5c6bfc62d8f1dfa60c70c979bb4c4a39d5da34b74f9c260fb0718956fd795f6b78e750f1e93766fa4bdfe99aa36581e27695d8df06238286fd65ad91686fbee87543264604df1ef3cb6c0a4cc3e33425ee7ec7341c4dfadeb9db8ede1c6abd79ddaf324775e9314b32eb30a8c0e513a7864ef30d2251acaa43f40e50c5c3d03ef80123186cf74057237a8c2871b94afcd216238279171a0137ef4a960f33c388e0c59d52ddb0b283afcb55a2fd023b98acd4dace1adbacb94caf78fe865f1a33fa9da7c5eca8e57095f8a33d46040b2e37b6d8b95534b59f3946046fee6b7135932d81c35562ad39c9424d347aad5989867b38784e7fb3175cbb3d5a2b034577abc45d361911ccbe57c6fa88f562e9066619118cfab19058ddad1223deb20ae17053af2559f5924ff9908f8cdbbee318e32ad3287496124b5bdbfd81a77a91132f0aa759731373767cde84165547bb5737563b7824674f9c7e6f971141032eb0cb64e4c51618112c3844c47d3e67ab44ff496556ccc4a1819f99d0924f1d6f6c69e70fd20fff2a002f5729b1dcfaed89aaa5b9fe685996dc5bdacdf0a575b33335af8d686ef2fdebea8993fda7901aed9be05bf66c96f7b0c48860c5e92bb2796662b6ab9420d8d618948848b027ec6d77f5e655113609bb5d3d71ea32db3a48dda75937e1a681b6c6df646cc1a1cbe71d5a049e96a35562997d4604d3adbc8cc1b3cc26ad1e699111c1acbf9b7435952e4729f172aa60134e7a31e1783f864fbac76a9c7f61bf11eb2825ec9dcd16adb78d7bef45ea1d6d0eb5ebf74cf6ab094729f192dd7569d28e473a4250be58dffb38644ca6aebf2ecb343dfb644729f141f6c82b6bf8b0f210ef464cff95ed90a73f6cdb4205fd8e5282e466d0d715b0f3f1f06ef683bed9be89b2161ca544a5bda9cbc61cf7a0cd3b2b717d1036ee210bfb66e9213e46f2f74eb7da223b4a09921f39b94f6a5b56494ceb44024f96ff8bc04819138e52a24c44e60e65fcfa9d3947c468fa93d5d7b69ac37ca8b9c1f3afa3bf5ed37c9bc0cee39e3c0b6dc46a9bc546d45450523bab7d8511560fa34a5885375fca7f45c28860d91856d8400956f8dd32fe7b22779f24b2136e069408c765552fb051b1b98ce43edf4a9ba355bbc412ae25a201afa54a816817441db1b8959c1a67ab059cefbde32fa1ba1ac512deaa2b462378806cf3b1e5240f2728c11509a04411185ab35e933d17cfa68bff3d3a53a5964089524c9a7bba3737f0ef4a043e984207c3783a53a5964089524c9a7b063737f0ef4a047e4a88c22784b64a4c81122590143a3629b4d00882c7094160dd5a1f94885ee96da20ff977e456cac75b5829819bb0d1d9fd6dc7e863de1dd9f45dc290fb4e2234a69b022574440a72c7b45fae2d68c85383e6a9b23588b17ef106274e9179bb69e4110f0f3c451a33eb6fa4a044e45a1f1079c4c303e792c66c7d77d372d1e0c429129d995d220ff977a09af441f9ce04db7445ae21aa44243460440b346f903222e07cc4094f7bb62c3b5ad108fc3cfa908d23a0840d54a1d32402245bc9b538dca3a549dfc289133de6ee599c4c7c0ba81f2744a00427faaed83e8ad85150821870984b88c0c724fb8d1639054a148181a6400476a2f66920b5c1627b38712a4603ed3004ce991ad66bb36f739bca2be9c64f759108d1de8a8f7483fdc0b49ed42ef4227c5ba934365489524cd0a32070b82251085b511889b4014a44428303ab11184fffe599ad59a1072558e177c038c3d38f235961012558e1976ffc8589e43ef6da92dc64b14150a2180db44b1038baa4c77ac7c1a4af2b9584034a9440828e2204def9b248206a1e426427c20c6ec246001304b809bb129a753f8dc4c7d681ae5fd7d8521d4b2faa442c987c1d34859e11c149bc8cc0fb12be267bbcb88f8f37cce4a8eaef9bd4964217aa440ad0bc99b2640c7da8070ea0b7a958042514382028085cc2703df503c50306c1cdcbeb091b1140c5900e04512532d1ed9b44c34d0cdef255135ab2e870b34a5c9b2564cc8d8bc0387a46047f8aeb9cb5716e52e2496b78407111029716b5899a07ed406428da8c9b274eb5147bf6e2c489e69bbec5c9593361bd6291a5ed6495f88282112ccb21cae8d78bc9ddf93e3f23dcfc5de269f2a5f2d2e0a9e451f7f92db9c952834e5689574ae3408f7904c8fff254dddbce7c1489353a4989b713878909c91158487ede741eefbb436b207292121392af2f662446e0a2c433324e182ce1b429089cbce344b38db5ef779cd69e9531c5134e6ffb619f8433ec0c77b14a2cf33d59eda482a675293123aa47cb608493779ceed416cf8ee8e21f0b9348fccba4b218baaee1dd97a3c54317179e66b15ab580e465eb6fb4519f763aadbd686b2e5e4b749a1b1d8fb9235d6798d3e5a0a646da3f96fb3c220623dac08d84bd908411c12023ce3aabe45c52cfabe430c2c56b898768168b77e7149a18a3ad2cb82afa98852352ae235685e66095b8dbc29284a8dc31a4cf9fae4369433d82d65c596b0e5e4b749d593622530767ad654a93837a6674a7757a5e7b5a7be5acb957251a681851e7332382bdcbe58cf9633d0531c2c11327a287d1869a5f7877344e7f93d657e6cdccd460ddab12b7ab01d8920eb4a5d805bd9b123b7921b1bdb2e6dca304d1f766cf280b5bbe0fdef0356d7c037bd1da2b6fcdbdcbeb9a86f211193aeaf173540b3bae3004624c35579f157320c930e7283185e8e1308f29b11ff1ef66b54b78b70ad788e6dc89d3e35a00104d23f02e312382a34531c2bd3b4ea34d6700f469081cacc9d6c56bac5b4864c0b92a31365178a9073b874bea48f589777ea6f75896b76d6bd94042f5ce5d4b74999d30c274c3eb96a49be7feac1ed3896398de8dd8600573cefd355c5021204387bd7d5be27e6a468c10c608f7debda679ef3a588bf8354b434cceae6630f579d3c401d99d36aac1b92a41747394f8b137a36b9a45d9586a466c37208bbb36e63a47091b2084e85c37a4cf87ae9f120759f500b1c1cae64089708c360befce7def18e2088fef4a6cb0b23950221ca3edc2bbf3de7b43036d84b537d2da8b63cdb99bb044bf742e6c1307bddc8da1d9e9a105b66b053e5d892ad1b23e45ad4e7e32e2559a9d1e0a406f259011ee3dd05180d36ac3d34b09e297e9aa46595dc494ca51254281237e1b3fd407facecb699e0c280476aca4f74b0b5eb9762df12acd7eeb733b1410f2a7b1a21df1532cb33b4b04d7b52a41f3d464371f19119c4dcc882e2219e1dcb504cd6604874bfceb65dba765d43744456d42d082ae6b274e348f38cd90f70352cb92d96afde42fb63447e8fdaa67c401de6ec728317110055c833fa1b022cd466be2f3a60113a521d0e48f63d7128f91a028eaed789288571af927312382d3a8224b68c7b12a71d87f13c6976af80ac7fe50a40a529fd49ee84d9466bbb50b85be93e2d8e28f6b06d4eabf8e8162048b978819119c209411aebd42d4f95b23eb5f4109d13b1915bca03d5cbf94d65ef582d6b406635b73ec0f22f59fb2d838ba3ef017c48c088e90ca08d7aa04cd73b0fe5589b99da8393d87dc62dc081dab1271c3c2b864086c9a6c78f6d1878b658473bf5e675f8cca1a6a2a0fc9d988bf7c4e1dd03dd406e3db73ec262cc989539b85f1f1cbc5c805e44fa4ee3c5a2e7038712a5d1bef5e1f1a548a81e59edb2cebcfa21e9428454fe6039aa57e9aead98d7a37b360581f53be5bd0034a94822a79bd4abdcddc7321cdd3c5c57e5e5b2c486b8312a52b427efba5d405c29ebb7f4b68acc9d4badb929b4c60109428056b97d2aefcf6bc7d0c7d6cb7d09b4c6011779c4ac15ad0b6b42faf3d8bbbcd270f6d04f1f7521306882a5102585b8f1811ec49cf88aa074b2017d5014a942cc7fa253df9edb8f539fad84e157efb029428c989834a7a72db31fb74fad0da5e476f33914550a204aeef97f4e4b6634feae75f5722f95f922710322c192eaf4bc0f3e739d8d1bb96046fbd63c3f7ad9bc86800942801d01f4af4fdb22478eb1df26fe7e1c4c97a12883570130323f6967f3b0f55a22463bda912346fedaaf8ca2f12785f425d319fa4bf93bcc7ae223a507e91c08ba6ea92ad927ca912dd6794c66ebbe7893d6c5bc8ae1f274e25187a428987f72f89dc7a47f50aeb26b21bc0e575760cddd4700a83db5b32d84c6c1294480c593e263c329d218e1f31d84c6c12274e25907971e2b4ac0dc3394c1df5b6b3256b1ba70355220e4af91b339881118103d7d62b571a94c85fbac788e8d0c93106191ff227e31a6d2804256ca02a5de795f77178b8d1100eab896de25aa204b2fc5f4bbcb87d49d0141d4fee4e6125b30d50a204c2dc53626e378667c283a0efa412a84576e0c449e4b258756a17164604a277aa29021c942802c38fe6d53cbb010cddc7117871e254b250393f719ad6aba12464828eaa8fd625b062c204aa8409145dd2b10d0b2382235d61047e9770299b4df87ae544135a12eb687f47e2295c13dc3a71fa7c20014eb93e719ac9f491fb31230956ce8c09b74e9ca4ef7762664d2c6a691c6c517919d5a7bbc308c75e211afa5e19d84d1dca7395d88d7e97f055cb52bfd8d4e210e871ab4a7c4880489e4d5cc1c388e009974075ea5ae2ab5e14d0e6b74a7c3284e76e533bfa8d6733248a535542f007ce322c01ddd4913c8c084ea30bd18025a728f19c81803d5671f2549ee0ab2fe3b19bd2aa5394783d659098b60a81376f66c261570776aa2982c6a96b89ae338b3cb7d6cce9b5c492f6cbad41565ef1c401e58f0b3bea54959847019ef48dadd362d09f8b11db0d48eb32cf3ca72841b2a8353c0b61dbeaeed36c5b88d05f7567c401a9dd4e5182e486492ba94b95c9af4b47659a9e61f201fd324ce698ead4b504c9394d4786ad52adaffc536c9b63d4ce6d6d3d3ab3069caa1266438fd0d639a2dfe5ee997bb3797fb96b8cc0c3e125b932a8a4c7fd8e1d38766d5a0d5b9f1f38879e4b5582e6019d4d9c5bc38a0eff7142c521b606bc664bb13dbd2e51e2467b301469deb6a89d8fe617ffc716c779ebb0994e6dd8a5cbeb819fa70e33c1c4194c2fd9247031e1d0015f249c606c7887b9c654d12972a94a906cdad83a778cb89c8d11c18b74896cce924394f890e41a710373d8cad034fe7c363ff618c6663a83618728f1bf0c61c69fba5ffca14e8c7c7f533637db3ccc663a8b61872841b323d7e959d09437f7834d497ef20f0dfc7fb5a1ddd23b1da2c4a72458f625b14265e4eb4d489e0b0b0de7b05d43bbc5773a74c7a9f7540a3473f568f8ec75965060166a63ad9924cfdf84daced4e9509570f1865ea6b5c93c79411f3e4654bde728235c7aa0c3a58d4f3267b309054bfa2c34a1269d8eff39f8235d53a40e5509927bb0e9d65fe4acc6f5e7f0f9b5c7be7cb6335a76e85a82a610e7e75a62db9733e64686e9ad176598cc3cd5a12a4182547ef0f81e232302377f9168cab0fca48019c6d0942233be96d572f335650fdb3d78bca3f75f57a382132735395caef8c591706decb7da879e5f15bbe25a1b55425db136aae8aad4b83ddf8fd641d56857615bed3728a12e5f175574553a966b3f8e5580fd614357615bed3728a12e9f6bdb49a8de374b8ffdbbb9c5f0efee3f65306ad02428a182394415dd94161dc2e877ed938cc64d980625541477544537a53d397fe8bfd64dcc5abcc61da7162c56b5beeda8ca2e4a379dc2e87577ceab18237183120a8c6d1728a293c267eb31de6d0afe73a893a015390d4a14811104c3c72aa28b42638f198c6ef7ff9cd1b819d3b8965070dc4d919c148ee4644470879398294ea34a28704c72fea5ba677651022216f67a8cd8a00573a08402aaf3cfc13676617c223c683bab5e81d34901274e4e2e5ba4d3c7703222b83d078c70e953f0140fa9ba5e25c6b3ee9cb42bdb472c22ff44a4388013270534d729b111df86c841d071469d02a6a3024e9c1c5db850b7477332a2ead95c30c2a5ed084293009dc5089c5c2c50b77fb719b5453bf670e2a4e0eaf689d3830729c1d00ac3dea5b567cd1a28a140eb3625ea972ac1900a35333b91dab3670cd712f6b0a5d67c082323825bf3c208dc8455f3d6e52a7133e795c4d62fab403a2ce1c449593c8729f1653f46e7ab17bbb94bb8b2f86b049c3885a1e262dfb68c8c08eecd0f237013d6c5ec0ff3f947249f2d0bb3bcb26f3dce375b237c4add8d1327053acebfb48a23498537374f3ac3e4f89939d9d8643526387132991a7cbaf6e2331d043fcd132370e2c4994ae66c5ff88d395d8935f5ff63e2299227e0c449591d474f9c6673fe99ae9ad85fc1d07501274eaeafe02affb7e40ce277f962047eaa5393c9cd2a71fb096a14a4528e7ea46bc20d274e4afe384989459d962941900aeb4cae21b567df184e9cec636cdbc2418c8c68fd4ede18813b4eb6f3d5befeb7193761ad7aa19bfd00892da04a10036ededce1e655c6d6f8c077620f75662028e1cc524538fae027110708baaf3f80c008b5095c5e2b883b7879ddf95b25024ae10757505aa3b2852a4185b4253b37f33162582e1981df25d44c75af4ab461fb9644edec762a7839915025dc5ec83fb33122b8279f8c40955019e15a955856cfe6f12e4fabd0e546c2e5b5b2946c09a678115fd8fccdf863cd8eac599ad7138cbcc66576fda56abb8d8d11c1a3b9cd1c540925ddddaa1273d666fb04d7d0710a6e791240096535dda2c4c6ef2bce530a7372b36d53096ab92d7f2591e6afe3123e46fc2abf8cc01d2795292e558937b6507d2794d6fd98d018b5299c3829883b4489255de72bae130ad5937b115aa3368513276ac44dd9db8b8d11c15ff3cc089c38a919ea4e95b8f708d5734269e7d184c6e84de1c449c1dc194a2ceeb248719c50c8c1d7decba28513a7b2f0883d78001b23dabf231614338e8112667024d6f2fc53c4060be65abd92e3fbafaba3c4895361b157355c3971ea3d55719b4ea87e72573a633c9650257870cf66f56e36463c927b46e08e939a9b8e5489f60b54b7a9a4aa07f7a732c5670755820ffbd4967fcec488e03f1e30025542cd4b27aac4bc8eaad364d27d0793996234842ac1087e4ad35c9b225fe70523b0db5fcab4649c76c9073cc62f3e9dc72eb555dc84551077e0c489eb135c675ea320955f019450d6563e2556accdb371d39e8f2b40e558c0b584638b7b080f23867bc308dc71521921be4a3ccc731bb4c7d72a4e799670e2a4acae744accefc2f22d89aa056d1498722de0c4c9a9e5dd948511c12d1e3102274e2a23845789136e57dd25923acd213224c20caa84886588e7c48d3c8c08ae8ae75e4e46e15a425948d15562dc268aaf6442479e9b5c64f1698650253440e48adf6ecee4db4f99ec329945955080975c25fa4c515c2513da723d774b16a16a085542c543ae74161323824be46262c53354090556b955e275aee75fbb4d5710cabf802ae1c61a37eecee5e7f55c86b9ec82125cc827b37b0cd75d9f8d0e4ae6a8fba371e2a4aca1d413a7cf062b6ed209d5937ad3199361095542c63a54f0e2b00ac7ad1dfe8b778cc0031d6a3209ad122feca0ba49260d7b97cc941843387152964228257a30ddf5a99dde5981c70b01274e0e2cf3fd4c8c084679c8089c38a98c9059253ace53bda492fefa432a4b92ecb85325964a828dd4976b991871a8978c70a84abc3d9c200f255689e5f53c9ff2edf70501e0024db853251e16881e894b87f130a2ca534638b4b5d95324f927cfc8cb0ff2f8741b8f597eabeedc84ed3a93002d81274e3da711c45d6aa26e49699f1f3dce9c3835503042e09a5fc1c388e06f02b1a071c9992af1d276148088ab120d1d1652c45d62a37e7149972f1dce5489172856a48ac248221be7f03022f879222f7335d8992a71d4dd04b8d72c273092c4c492762b920c3736d6e322e1ce1da78f8c2d771945b5658eb11c3a878711c1152cd1ca30ea4c95e8f60d0160d25eaa6c68c57371d39de99a9e60892b9b70e65a82e4a1867e9501231db1330f23026f7f9358b5bace5082e42c7f0869c2573436feb98a43ac0c18bea715b58e287586122427d52364addaf63ceed4f8faa04013dcce5082243bb85e5e0b0fee54a62d08ae5b3bdc1f4f7a9db9bca6f8c9a08ae701bb88549bd227e280e5eead5eb16c40b87a5489a20592f5d791690b82fad14588f8d804258a567d58519bbdf926d31feb17dbb287ceeb00285184ff1e456df6e6413c1e5cff1d1ebb72ac8212456bb16f519bbbf9c4972c1e1c731a8b59494671795db41acb5a1509cccdb5e670383060228755593651258ad6431023ee646144d5c74568f8da042544ae7cc3892c6edd22e88f020b00ab8c82126cd097337c1cc9f32bba073d4fd07b7c94712d51b4ea4c0fd91579b0a649b2414fa9d997b72eedf3afc7952af192574bc3f37d95a160c4aa2c73851237fa44891f52bc1b520a28d3ee38a58ef0f6b8428967786122b5fe28cfee18670c228d52ac3157ae256a289ec893712df124cfdb0ad2de2864a38c2355e27d0a46b02d8262f895bd14914c7884cc9270438e50c29fa7333f1dc953ab4ed94278a692b9e708255e230384d9d0ece13c1f0de8efd5fd8bb28bec0825de2f1b448e0e8e20d976a104b0564c4fa2973822a0c3114a4c160015850bfb7f4e61a5d4c6dd3d4bfb7ced7184124cdb405267c58d4c1fd1d8f310ea4805db73e4266cdd32020cab4976012913c89703591e6d0a3acea82be3956f871ca91224c9cafe18e8ee3c8c089e02238a78ef0825487e96a82fc285a379f9071c5683e0b42d79ec0ab5eac88913c59635c1babc2fd02c5c8be7fe6baf29427393c92d47aa04093aeb9258893472040f236a5e8cf4c8cf03a044cbba6fd6d264687dcef444c5f5031882956c129468591ddeed2f8f6e7184b2b5d7c994d65cb0856b8996555ad8a6a54ddefa6c30b9c955063b7c83bb4d1af0a81205403a723222d8a3e00769e3793042c71b942820c27a29f1df4f0b7e5036ceda94d29a1bb64089c23a316d4bbcdafe478717dca06cac7d35a535476ce15aa2b050f3da179ad48d65dd783e2531710075a40ed84395282c121f2382037918711a185158fd9606aa44010b9eb7d95699ff2fcf395bdb0585d8d1684100942860c14689f9dd16179ca06cbc29ecd37c94b197b18513a732e0101dda9b871123c188d005469528c0c255255ed9a6e00265a3e6db7694e6dcb1852ac1be5647f178703d18110e3caa440117a62a71370f25fa7f5e081c0d050150a200071325daf3dcf799dca710381a0a02387152e0a017aee461c41e6044d45aa34a1490e1a9124c45624ea742dc68a808a04aa878504b77f114899dc188c89546952840c352253acc2fd8a76c7cd18fd29a5bb6502558d7eb111e466c0e46442f3baa44011b8e2ac154245edba210351a3a02a8123a2294f2bf798ac4266044995546952880435f251aea79b6f7fb60482168344a104095288184ae83e7ebd6c1ee6044b935469528a0435e2598be6e5d3da34b2166344a11409528c584aa677f2a43aa9d9f80112a209a842a510084ba4adc707ac13465636d9e8f6a538698cd162851c08f9a121d79bec1f579ff42c46884218013a7305428fa7ecac38823c0880aab8b2a510088b64a2c6b47f161a54270cd8d7a9e975a9bcdbbf02faa04d32a5dc0c288e029a6701d328b2a51582cd22ad1d86e51c1306163cb57098d396a0a558267e1fec6c288aa2778a275ca2aaa4461b948ab04cff37e7f3bb7102d1a510880120564282971cf9105b3848dceb3098d396b0a94282c1d2525bab1fc5e86c7fd0a8b5da6816b8932e0583bf4300b23d6c7e37e71561455a280126195e83ea36095b0f1e9204263ee9a42956058bb075818b13518116bad51250a30d1550996225135ad5b215434ca20802a51061c4b875e632912c78211f1d61355a280135995e839ad6093ae513baf9ece98d396dca8120f3a8db1e6fc4b1c8c08fe064668eb1025ba51250ef85f94ff06fba9aa44eb25069d8eab0a0f37c5452a70a34abc163b1ef90377e76044fd28f9c048f1d0094a344e970257763f7ec6929cb776c8eeb92f1a9ca0c43b54e734f657fdfadfdbb7516ae1189647aa4afd70a2c7094a3ce60494719cbceb8c38a34c8fd9ec0ed31af3accf094abc92971578ec688e48bae5e952cc3e804e50e233fb389058786f5f12339a91dab76bb51e88e51070821239b9ba9eb505cb35d1d85ee51200c774049ca0c442dd6b27e51543595e2e3d7aa89368f139edc44f757524bb59d8fe13bec30b1ccb5cbd18a74dc97077a24af06c399f0cc88aa3ffc1c288e00c30a2e2d2a8039ca81255aacf76a4ea1576f4aed13a65000bb1eb17d4580d2b87ca9da81224b8d7d9b5b2230b23824bc088a4eb0a4a3423d6b6b961e5df0b786e24f7fea9956872ad14274ecdcb3be483e696857fa7f7b27b5a16e5f21bdf893a82fe280450259a91e9dfdcb0f1ef013c8cf82e18917c35418966cc366f6e58f8f7119ead58d7f9a7855872af1294685ee2dd9b1be6ff5d7abc799d3134d6bc4072ab2e86274e0d01259a976b87e686f97f2fe4d978f2fa41e643f140232eafd72cb2c5fd523fdcd0f60fe3a1897aea0da1dde8ac8000aac41a808655002afde1c6a3581831128c48b766a0c41adcecbdc9f097b7d32d4db659eb8cc936dfdfd938715ab3f68b6d6dea327920c70dd8aa2578b62925ab5125d600678b11c19e1c8c087e0746a46444802ab106395be7fb57fc28edd26499d79ae5d58c2c1ecb990b4aac590b4b9498d59da548dc7e9c9c1473cd1350c22e25367e9f2323fa4ee2b09a139bb896b0ba90ff6661447097d5a072ae1c5562cd025b39715ad8de8ada4a39b9fdf39546e0783402a0c41a6cace42ecbb75582ea999da3171c472a21e0c289d3d79582907a7c6f966fab045780115932c2054afc234b808c73fff1388bf175ce61319b1ba32e9c386df10601dce64f9c3e1dc272ff35f8683d02b8726cc2054a74984fb000c629b1a2ef57046e979ad88e67739c52475ced71e0c4693e0523ccafdf513c8c086e371f8a5f1a1da0c4a34eaec803ff61727b3726bbb931eb00259e7511ec2f8ee0f2fa33bc27910d7a0728f161b60859662fdd96641bdbd0d8cee6d9442dd417173b1da0c4170ee2badf543ea7977e97cf761e2c3b408999eee17cd9539c3edf3199d3baf3b61db809db663105ca266fc23ebbb3496dc9a31f3926f91ccc6846c0014ab422f9c5cb6012cfed4142e2e6250cf9770a3e3c14824acc2e074e9c48181113ae58c376e3664470662c3f3128140107aa04c99675550da1f0a4e9bc8e3f21abe7d9dd073d0d2ccecc71a04a9060690e876fce2671b8ac91865f943d8c83e51040956842a776693994921cdbf4dd24a32d8dede2e06d3a4b5024566beeaf6362d3a22618dbb3e661098c08668d1785ae53cec8a7c4eb2478763065e564538ab2e9b924db749f67cba7c42d24cbd3db90956b785ea42bf1fec1921e74c444403e259e891949b66183b34d2fcc66d9c8ac60bda5b1e4f396365a8910904f099aef1e0e4f845ae4e09f2c893c447ce028627bf93127fe8ed3acb549c01e37d48499f9c62e49b27b63f0e7f8ecceb8a4417c95789204cd6a238c586eea8ac444cc3f36a1c4471de22941f30291995c1e3157500a5d29c817a75c114f897748e0dcca849583c699d0624ac78a4b4d69f24c8f784a7c49b220271ab0f22761373ef1d344ba45157f794db2634d60e05af4ed110694a45bc48859a3768d3880ee720888a744ddb272ee1b3a5693fd75e5c6aeb30c39634c4daf29c654f9a448fc8953f6648db19c0636513d541c2382a92ebeb51e63b52c0f114f0992b3910d33a3fcc2fd9955985770be79951e68144f0992351891d9cac199355850709f059df957094aac5ae39db22ef4c5df64d56063fef2ffdad09a779de22faf495e339dd73edb3a2fee64ec0da46c8e68b3b77a45eb80581901e955c2dc2bd165b0689b9111c1f764322278ad4cd038148180744a3c1de1b7d1ee75336a5b787b4605b6a637be6c4b738ef54aa70449b2ed9e7181cf21b9539cc6c9d3d24cf27c8ef46b8941130916e8bd8d321959de462c254cfc2c9f091b07274baf12932930cdc688e017721911fc9302bf7cd9105e25a6f4a1803bdbcf818d6dc4bc4a570a569d60df4abd15d123bc4a3c2e02a4f24efc4d72d62dfd4b79e771b40401e155e2bbb794786ca123539568ac137cde14046d1758002cd72a855709512fe58427c251a219112cbc26dc6df4462120bc4af4a178beb93acbdee49f0d8e8256487f3dfb3ee6428088eb86f02a312f6e1c59c6d566993c32cb648ab94bf0c2693298855382e4cab57532c894d1bfa7791156b19950f8a5bc37391246403b5cf889530dc5334e833f498df9c28e594eba529b4d3671c3f7938df77cb4f02a41c1886040fa1c38c101460413489e8a490fa2b099c2294182d6e6a9ad7ce9c60b0967c8be29961a7e3b13418920d83535b407a69e493a71d189a4e61c3726fc5a82e405a225752917f1c30d524e249f367100b949670da24a041dd2322210f9c275682a9e1cda8bce3004408920f573b0932784212ab2ef99e922dd12e9142811ec937661f64a3b9161dea90c361d35896b896052df746bf7f1fae9e6f1ccfab6238f5df7aca24a04291911b8542482e027eee52693c7a81269dfc5bcef50a6254b67d6c0b6b7e90c3b370b5522e5922d383ce544a6692bae6232ec9c59d95562e2200240d3bd40d4eb2b02d74c9aa815bad794c9188de8925d256e3012a30d253f768d11c1323c241e2f11645789116fc58b22d3a8345562fcb04c265926b759c862d639a3b2ab84d8dfc276766ea18360d19f1d749ac165d194f84aea3b92a788dc28bc52fafcbed2001c5f8580684afc4fe81a4db949a863e5ddfa462a9ee5dda63e2a9a12cf53a311d39e63f75f0b515d5468a1118d80684ad07cf33a1a9c88236fbaba1ff7db524f442380e6e9164d894f7930a964f5a04a03c41effab58cf043926f926ec92d6244025bd093b2aebdefb2451851ae92d7f3f9150bf493b2553e28d2d28a048bcb19973bf5b17a1b8ac559180662802924f9c1e0ef5d874674d42856f3bf7bb755180f869a2088c88a6e42ab1fd8b114e1bed6e3f2f99babe2e9f7cf47499cfc9d629f568c955826647aeb59261f7a1cb8c08be4e16ac97a30553a26136c98a0c4e6665ff64c3a58dfe8f3487e4f923981224a74d41b049a24599f671a2e1e2065f28ce23710e09a6c40b34606d9bc88c239b9945c6f451e4111c588380604a8ca559a4447bfdcd7f95c6297b569eb3a73a279a055382e614a575d7242b794a92c122c79e20d22b494e09be09db85e4f27ab3b7122c87f0efd2c58a24e98ff5b194e66990e02a91f0f78294abb25f92797fcfc116dcaf2709d8c7b182ab04c916c9c936361bf085fb3932ec5df763b01a81ef9468bd2801bc5fa6dd052d810dfb4371e6541e63b9274e34b70bb72e0f8f7af452557454a201d6517056ba2d9712379380fa9b2456fe9564b0d8b1fb8af54c8663724f9c4836ac49f464f8bc9cec343cb98f8cdc13ea85dc2a4152df07245916775f1d52a3dc5e1521a90888a5c4c205aaa376a4a312a89de1fc2fd76b82fd221fd74409962ed150b1941895288cb4838f4e3071870463650ffd0dc99f1bd918447b27961263a27d367864c3f8baaefb30fe58e123971f29dc4156f7c45e5eeff42c052ef1efd13774c8d396aaef27f85b40b10e926c88ad1224bf1357c55f8aefe78911c171f103f76ea4d82ad1692ec15ab45a16d7c8cc1e2be20e7562dc07439c7093c349b155826463baf81b451d912f46046772249b1b36c556899a060200fb4c8e6964da3af1af3a62aa641e36b30bb30362cd8bad12148c087ac75d9773f2c688e0fcb8a17b374e2c25485622ee56040d0f90b84369e4df94c69cb2e53725768cb95617c7be0c8fa9907fd8c257f87d90e981d86b8904f747d3233b23e68bd76bcf4a6f43eaccbd1f95ea19b35f5e53a26e493cf4df1e1e6f9c53a3f06df888e5f2fac4694004287af7d97a471ee41578e1347c19bda6c44ee198e8bdcb89f61dd4ed5a96cfb2acdf55f55229f12505a027c63392d3f70bb05547f8f24ba5c4dfc3dd35dbbb6d2c7513f2f29e8416ed3227bf54ac056141944a099ad72562017a58ac510e0e3acf419f095c967ac7a91dc583a7b17e9276f8d37415f2a79ee439b20a4ec83b2c9412733b5140158b127da650b8c262636e0716b3c28d0a3d717a580c6cf7e59711c185625096e488504a3c2f06a3d3c47862de915bcdabcc8146a19410f39ef3bf891fe5589b32a7e6e6ec251033d809a5c42433d165d6b2e2f8cc2a9229b8b67fb2f1d946ff2ddbf47cce164a899942d03e80f8efe8c0c37e421939281182b6d03b4ef54b437c35de55f18ed3b33b19b7595ee1ab5b3652fe91aa227951ab7cc8e28e522e4082e09727186b71e821167587a9de71cba08a72e3d9c67bc2bcf0bc4f282564fcf5fa25f1b575d57d2bb391f4ea05efd695f25fe88913c90b44954e1b96b4272e56e7ff61e50291ee4fde9be4f1cad2b493dce333252abd447312f17dfb35145d6b0e5dc2542f27f9e3431790014b424f9c0c4456594585d817517f61e59826974facecb9b1110d6f1853951b4515d22237718605526163b31f12df800dfed8e424e963168f8501e3779fcf94a8706fe736e2cc18dcabc960b77e8486c711da72c494cf94589382112b7535f5a3d385d7172e88f0c84637285182aacf97d747df59024751c7a089450241b3d5d2e62bddc65674f7a0f1ce44c9d2fa5c254694a051d4319d9811c151cd8c08aa8e28f2c37233e6b63d96bd10a5dee72a517643f973ae225ea7056d0b069754b8f02f0c34d098d6dd80925ca9f0b84ad494fdc402f51dd8ed5b1811d46f429763d4cca78b2cad258fab44ffcfcb8036bd479983360e7d53fca604cd7bb6abc3d8f46d1bd1b8acd3e32ab14db975fb5eb983168e6d54cc88a0e3200b26c255be17deed71afc755e2893dcaac7b2df1e34d9faa2498d2a78c6f660f7d5be1e719b3d61cd0e6719528c788078819d15f6544d03bf6c76032e7d8a59935e44c81cc2a41722e5dee05a2de5369d779fcc69abd7736d33aac89d5d4cfad588bc49062995582fa768f0ee6fbc48ce8ab3322d8b4fc4febbac319e486ff66989cc7a93229713f33d42711db0ff9137037990ba7905972c390cc13a76e143bf8469f384deb49bb7803c27e296f43f68cd5278369c3156e4d64956860dea0e368e2457b28ccdef9619d56fa0eb0a2d559a522abc4eb5b52e01959256676a530df6263c7675bda2dadc56d5ada965b5f115745cbe164542fb24a3c9931a88cd34fcd383fe9f4ff844e68dd2db4db46e72f6c287556a7484af07ee36426f147aecf8ec87dbaad3ae82ee55de089c813a78d2650401775e27460e8a9bd358fdacf8b504df2e34c93ed5749ce5423e294d62db24a4ca340a926c2c8325a460491379c3bae1be1a1f9ee5f9957e9ae469194584881677d8491b22f1645ccc9d0bdf66e91930b6f9e468e307520f4fade9472d7f488a4c4520a14db851b19333ebcdf56ef15d18acf883e64f8c8a28f0c2b74599d484a90bc7a1c7ee371c5deb4ab5953ee3790adc97cb98ecc927c4322294102db06a1560e25fbcdb8c9fc2e519734ab0edfd23486e0ffccb7bd09228c6f42222566c5773fc3c86dc3e64e7830acd7625fd99f04cabe096bd429925b7c463db6a74c2225687e96087d5de2507b48876aeeb863687773e73acd0ddbffae986cdb823bfa255282e4a7b2ea8d42166914f55fcb93439c28eadaa9a86db7f9b05df52e6997f853dd508af781d7097b25a22bf1f386350ba26e0537e5d0f3e58b88c1441b3ed6a032b75549ac129f5140ba458891bb881911ec519e11c10e214edae91a6747ad8b5a0552e2db4514401e1962e4ac903eab5dffa8a4bd43a501a68e2f2701dd94b756f508a4c428ab01372b0fb9907e6a4ef341a27fb71a58c9105d99287bebab929bb93a2e901234379c424e594e205ed9aa7b2b1a3cb7e20853036e31a5c8793d0229f12e05a821718fff9ac270918d23fa1609e1cd9dc3bb2df4d2fc1864c171e32a4352c3b88d840ac35e444ea8a2f2f0908d88e9de4f6872aff6d6ca6ed6915d4c0431bca9ec6f1e4608a4c4740a5c4bdf259dfb3685dd221b97849cbb151d6e6a6e52d263abe397b614bba657202548ee7d0c2a5928ea94187c41890b211d4784f4d9e9c2efd76b701548891576965cd55afadbf54dea00eb52bcbb0884ef81e307eca63517488906ebd9b8d240c99b95cfcfa730db62e3acb55bda655a6d5b953968f6d00fccaa73569bc0073aaa28c0fc52df877808ed5b34ad96c58c72c30f620ecc3e2cea65f4ec9a9dd220b04a50e057ab33e21b5a4604b1df763e8d028e261ba7d399926cc9d32a31e8536d51367b47ebb02bc6ff90e81703ec7a52acfd8b7ec592af6d4fab847e29f12c2d2382dfc6ceb7fe24e7914deeacbb24b65b391ee829250ed096f4284db62cd6ff38be81c1f187661db96cf3ac1af230df534aeca8aedd95c4cf72fc5e355f56daabec51b307c75f6c569f93da3cbd96d06eae749a4bba7835cb13981b3f2cc1e0cc43c70dcdacc275059e560975d9fe49cb88e01cd57c7969685df9e3668fee6c569d8bda502556ae1addd74d9a5264696d9254d9e9d924a3b38e3dfbef5935b83e1f5522087e4fbc77d30e8918115c449a63574d233527d018aa44b0b0bd7665617b9926f54d6681b6886d19efe1ab6421b8341a5522d8859811eb27644470086942bdf632a93979c65025ae3b937855de4d7a0be98b01a41ef620be234d1a5c0c63de5362718724774463205a6948af299546941cef47fb2ec3cb5b9778e05387f7274efb113322b83d797a11bfc9b05f720ff334c3f72af1d276c4abd977520a833524ef90141c7b7344a1e961c3f32ad1b83bf59adf96c6e0616926a59fb36bfaa93998298f12a49f3a3889e41b604579d273a7222176f3e6d8238d0c9cf39511358e2a914789547f4653a2ff11a5b1d53ede94cad3b635a9a6a59e343cf5cc1c4c94772dd17f1201ac6b7e8a207ebb3408bacc4c171cf11b4ec1cc2ee9fcccc32c7955e24b3a586f217ebb3408fe9c3238ea7740fba7f4330fd3c45589b7498a765395e8388f7809233ffb5ec98fc9fd2a8d307cfcfad30c2b74479db82a31860ebb5f523322383b6d707d892f2682d3bf4debaaf3f3c45589e3eea0c0745595686c4bfc046c50bf30f55fa08ddfa780a5c8c6d071458257cdd46b640ba50f6c292ed17b1935238273d3a3bd6789fb963bc6df68d98058f5e2aa440f925d92575589b5a8bfb0d26a616dea3c9850ba63676a5d31277e3024e6c09c0d4bff77cb12100b2ce92d51fb2035238253d33322d8b0754900b63b36267efdd6763c71f58bab12757177868c1b61e8b8955562d377438fd8ebac5ad02683f2dd4765989c6e6ae759847b48a573d1c62c71558264dff095482ea266447070164604bfb6b1fae575ce21b91f5ede0786a3e22841f5cce76fc8c1be3e93c5edda669a9e6af23ba7a49ae6f8247194a0c233edefc8a9fd1bb976eaa9ab271e916d7aaad9373d9d6a9adb93c45d4bd09cbe365e7e3ef5ba65bd813355dfec9c2280d673ea29cc88b2e12725aae775a03a416b5eeded9f6f6ea5fd77bd4fd2cecc306f47d24da432386a6eaa9f274e35275033a2eaeecc6b46fcba6993bfcfdd92d96fd714f85925eac9778d3f223b25820ef339b26b09e9069c1c116a36fdac12d45b1004d5b768b8a7116f4a3329f39c6e993538a6c04f4a50fdf85148864b32fd26b146cde1749f722c381e0473b72a127c68fa4909ea956df57323166f36a225a992d74e4c3ac3edf1a004c5fa9d63c6c8713477a875676f3343685dad541994a05819533f95ff8ac2d9521bbfbbbcb42fbf3d7ede71225ecf8dc79b3258bdf279458eff1ed43feec7e104914d540902a0cdfd713f97c0db301307be1ad69bcf3e5409fbebdad1e07bcc5c65a2d58783ec0325c302aa84fd75f8814113c71ad49544d5f2e1e4bf6e2671cfe4586955624a1f93d189d055b7d8e08da286564c5713c1d62f8b40d3be13d2aac475f643a6b6f043838c08aa0fa176bfd9de2b9735b772feafb42a31e2adbc015eb3cc2425e8bfacd7b21e63fd78cb4e5a9598d0b20239699d6f941141db93d870d983cd32a9616155624677d2e8098c55997e0c7d451b920d1bc2a039cf8b9fec845589fcbdd868fcdcbfe6d2b06c25e9fb33c91e5b24a19431228c122f9571d5cd43371877fbfcb58cab8ca9b0719f98039d1e268c12b9bbb8ded942fefe8f2de3deccfcb62c9bebf10d0bbb96e83437beeb4e8cfc683d0b6e1e7a9f05a5b154f6fc2ad630a70709a304d7f30ab6d670c49b5634d792bf16d81cc6eb9b37b772fbafb01327ae9f666dadef1d76143f6e476d0cad5bc418e3f810599460d984c2e20aeebf811de5bb6e62476f0cadfd638c717b882c4adce63698baf7b577e93da664be3b73934e341583543db22831462a4ce9fcfa95b57d5cdbfd369d470666dd76a30125925588babc6e9445d0acebd6e3ebac1acaccefc577efc7ca5db432a1121f1295846f10076fd9dc189bfadfb1a9bcbcee61a69f51296f8efaa8284a8ca18edeaabd132d5d5b3739dd6d17abce9753be84cf7439b74c1d1375e27400dfefb2a6f06cd1d36e9ed947605b34af6959565f62afa8e3da338a84bc35455589f7f284ee43b653f6bb7c689dc9b23b2d51bca2aa04cf3ec07690deee053b7a5bb472de8c1839a6c58fbcb5445509f20f51db5bcdfa27ece95ea3b98af194fed967ad87c766405495c8d1134e0fed6f7f4957b06c9bdc14572bb6f798ace32aaa4ae4e709a703081811d4309689e5875b4f4d2e03a2aa84ed0b5232900d6f4110e5f782f6514708fa3f194c6084c384a82ac10180159b37d390bb1d452d8a026844d401d7fb51252cac601dd5ce780b3a32fe90fc7fbfb3009d0095a812161681ec0beaed2eb4e07d5c95bf9f1d77a45be350252cacd7ecce169486ab5c6b4e783f45aff1fd78289cae6c0355a2324649470ca36344f09fa4ce191cdfb8b6416572548112e6d7e236f32a2335eeba53e421fb07666d6ddf06bd059c3819c7bcfb34e32acb286ca823ff3c6b913747df5924e4a4892a617c21693f4f5d6ded65d638c0fcfbe638a3dc1a832a617abd3a506f45b5de27a64348a0af6aca3a09463b311455c2f432fdc3b4c24afa58df456cdcb8927bce1d07250c2f59f5f186155654d789f3c78960f661151d746c004e9c0c2fd851ff36ac3086ba3e53620cb23664dc506baa5914831286619fd9c5b0c218ea260ee67c86b873ce7ec5c689538c944b30646d06460403ff96c043e343e7f0ed29653c96550a5125ccc27ae22d66f5c5d4b6cd2b3107da1856b53c577f5873158c8df54ea8f3e709c71b1afe4227438ad2a8693c2acd2cb17350258c2e4d2fae0bdd19bdd8f6d75f096003cdfb2146972a5219aa442434690efc28cd241373babd6e424b5a1ddba49d28711eaa84c955217b7728c4e9fb0e0de9a4eafabc3f9525fb7650254c627ca0496509751df2f784134c0e1f30d3a4365e5da81206f1af9aded5a0b6c4aa2efb45e229e6262cae37a78b5713aa8441fc0f66654470e145066349aa8a73b390a4be961f8f2a511e9f24476bbe6d9764b885b1c7ffcb82d2982ad7991a73a0f461a812e656e82c6e4604b75bfbec516594bedab5f2182746a04a185ba6dac5fc7f5f3e5dd75838c9155d794ef2390267f0afa24050d2b9749d002c07dbf8f27c5c38cee57c9729ae9395c7a14a54c628de88d68be28db33b6afc30bbfacb6aef3c2b0fbf620bf8cb561665770eb2fd70ad4034746f45a415e61c426bcf8e35540953b82e6a6d4a53263d0b3b72eed8f1ea96999c173159529578460422299dd846062382b697a70cc0c8b4ed8d68e1552289124e6f80c29a89c539f4a33ec512717bd977880d5a30278912cf5a888f4a658feda82c55b4f302e735eed8b32afa277d80244a7c291dac32fefda6cc31e243fd59abedb582904807bca0cbeb719ba40b41c2ac4e8c1b7897c6bf0beb55d91fce2ff5c8a51e415562b44bb869beca7a23ff69c6e73a82e002d6cd11b48549210aa2c4eb29dc1732a5fbf78438d2e446d56456777ee8f6dec982283181751d3319bf35d36cf393bbf06279acfd8f7e9bc7aca0511025be2838e55a639bbda479bcc183ac1eedf516abf96cc6055d5eb7599c2d14b6d9b55f09fc1ccfb1bc672f5ff4635b8eac860551a215e793085970bce6cc2cb36dcdedfcad2dcdb1f4cee1dc592a968751830451a2ba31ca49d9fd5bbe2ad2bfcf07b2ba55bda415abfdf4c6055d4b38ca88d64fa747dfe6cc01bc3f0f3474b7199c4ddd82aa4495cd38ede97e4cdcb57573ac1de735b758fedddcd1bbea82aa04cbba65367aaa584604af650e2e9382372ecb349d6d32aa4436e8db2c105cdcf6792c5b705967bbf931165022dbbacb3d6d5a1557ddb26cd1659cdd6e8e8b97d83871cab4ec03e49e36ad8aeb9e4cc1659ebc609fcc2a1814a04a6402fd832199a65b9fbc05ebe74e8360cc48eb211a37004a64817417a137600b312de8b2b4d0e668543bf8f32b4e9c32644ad5bd1926934c6df714899948230dfd230f893d004a64589af338bed598ccdf1d991f369924fb622b0c4c9c3885a112afafffe7f1c6f18e1ac8ece52937f2c69fd83aaa4462c80a139e2db424373e6dcdebdd3fffc06b3fb17550223164cd137ee7c67972f58c668799fefd3fe6eb99a461e3c4292962cde3377dbbb925fddf8fd767f6d0ad9727502552a64beb37534ea49fb6de35f436158beb39f572d6918a3e000019654944415418aa84b278f185c99c9beac577b369e4b0f14967981dbffe8766f559d5862a910edeefb9c488e025e665fee8e27428b3cc429548057b5543aa696c936e3f81cd749361871e8a65fef3c1bc50a9cdbbb6f3e9f1bba70ed5cc44395be6568c0755a222442103aa16b9f695e7159d1684c441d87526f7357eec58512562435534707fd71811d4303f121b5c3bbd083fd14d548934cbf355cf34b378e7dc7a12affd9ae5bcf6635b4795880d55cbc05d1d644470e2162d0170b456707e583249c0a81249d06a1a5bf5558fe49304cca865fe3bedc877b1512592e7ead16e3222782879a8466738f25d6c5489c4abde665e4de2393226ecf924af1f1dbe15bc9d49011a54890214711b7f779511c1c31de3c66867dc3c27be8b8d2a9174f5077f9274869cf12f6ecfec8b0bdfc54695489a24cf249d2068fc7617313bb31fb3fd38e641893828158d39be6f91e05cf33723785d9ef15b5efb71ace3c4290e4a2d639cf9c1a9c565b5c5bc016030bf9dea8f3c095522d99a5c906cb8bcd1dc6f3e1d2b0f12cd2354090d90f262dd92f2c71d387a10ef67ec822575c241429548b44057241a2d72f0fdcc8f2c6e29129522a750258ac0a8d8ecf175c521f207bcba35af8f53d7e1b55fc93aaa4425848a8fdf562cb8dade6a335ecffb303f6a55297a54894a08151d1f3eb64870b7d9c0fcf3fb16cc9f47aab072a81215002a3a5cc3fc8850912b999ad5ffcc343df3e4d7655f91a14ac45fe11b4f893f56f6c8f5781f4aa9fa685dc1f88012b1174778bd8f1dc7ca815f32ff04dffbcb24de128fc589535cc0ebc6c41d297f5c9f9ff2fa38e567bcf6cb5a4795280b4fd1c1d7372f129c6f329f3ad5cc584b2c84a8123197e6d7b96244f026ef5da71587c5849d6118aa443cd0bb726f491fcfcdf8a39ede2dfe581b23c70eb7a1d5844e54897828be126f983ba376fd01afafdc3b7246478f2a118d4dd191211f14093969eef83c6b20ef4addc406948895172f6d136b985b837ab06ec0d76b8a50b470e2146761fae79111c1b4567162b73566aad4dfb05125e22cf95d47c619e5de18de3d64845e6183123112799da93106b93884f701c0f6d3db48040d274e315685f931b9181ea61c52bd28e54423d3e633df078e0802948800a6a87ba3bd8b847c355bcfe68ce7a5ab38ad47d9c6895314322dfd626f17b6b898be357150fab9d967ceec925d87690da8121511dd47ea0df48a9ec7193090f5b528eedd07c3100225c25029eeab7da058ca5f7bf818c69826fc85d17884695022029842f723b585663e1b231f668ceb27dc1f0c2b8d1d9428c544e9d988fb5ba08a3756847dcfb7a2369ed22dc43d3d86cbebf22b57b582f7e7acf2de993ada97f32db7cf069a0ac38c1e5489f238fed9074604acbb620e62fefcb09e00a0848e8822f7f89122e655e8cefae2a7b017ec049d385537cacbb87143e5f964c5a34e73ada88da754d6fb5982aa8420579a57f2bbbe302298d01c32c7bfdf887aed54509568bd846339cad96c3bdf8b2b89d5101c757739246c1f7b687fdb16e2eb1744892eaccfdb8441367ae7b0de9cf6b5e57c04b06a9e9c2fb1083a5b595b5aaeede0132382fb39e16fdc90d3ba6a5b1025faab9eb14b354fb0bb40e9c09e2329ade9b626dfa0f7b0c9822821e80fc5eae5b8a20ddbaab0187e92f5abd8a7b3c41c66541025843d15b9fed96178e5b8afee69d69b09cc1f826959584197d7f358ff4ab540b2a625ffd39b252e67edb8f85759356499ffc1902cb3cdcd1554253ab4371756764d97c9b905923d98981a2eda21e6402bc336b5a235b952419408245d4c74fe79722cdd9ff1dcfa8c312cb980d17891694994d8b3c82feee6abdc0ef0d81fd783c7ee6aab7f94f1714c4994f81ee37268a60fe1fc73a9f94229d64de840694eb3c57ade56f045d0e57510b0def12840b2b2d1618ea43f15c59e596f4f1dcaf810c1edc7598fafb20150220ca35c6e011b166848dffc0d19df2792f030b4b77f0d4392a1d0f5dd5c6e015b08af7ca3fdc48dca0fb07954c21d165489d215ee3eadb4cfab9ecdf9deb2bb97ff397150a224d9ab660a7bcdabc443eb1dddbeb16e22c2405543c401ba6e51274e329c79c27b46047c57138d7bd0e57e84251959b8c6b956114e92760fccff2e3515f1ace77bb2e329f6ef3d893a715a6b4ec5c5b23f60ea3af66dc8b7c077eac4fe22b6a82ad15340aaec0246ac5a85316c4bf1cdad6ca69b0c8ba2c4406630569aaf667db98c3ffe660f363eb8b945feefb9e4165583a228c17843bc1995b3643da1deec16fdbff7b13d4a30f741fa688b2d8aa2c4cec59eb1b4db5cc96256a2d1bbd89c3a99cdf26ac3a22eaf97d5f1821104221eb2e106618d7dbe2d3b5e667dc34e5495a8e5fe456013098f9d096144f0149b2367b2595e6558549508463ec70b067eb72ec6bffb8c6289b05dbd82d058892951552260def3ed97dc55aa6479583bd8ae261aaee58c5b5695e0dd91a0878cb7ba38d341b5bdc9385526937a4d2133556a481625785f227a5fc2a3c9a54bc4d733b537976dcef726649d3871adc06abb4782111afebdced13ac8c447c92c951a429568c6a4cb0cfc7968c6a2f06f9bc585266963a76748cd29c69006cd708c0214cd50b4fc3baaa549dae27b8769e5333da4910a3676de70c1ceb1b9b6dd481ed3f378ccaeb68a13a726f0d7fb887111249baee179cded95add8404195580d7dfbd7d95640b8e17b78fcfb0f8fd9555641895528d4bcd969d53ff8af14814379362f7eb9d413aa1e506215d28f7bbab95f9c2ce3b9f7f3591cd7ec8c012556e2fa9bddec809b0badeb5cc411c62c0ea34d3671791d047890a37cfe717c5793f1c93f54892078a57c46787f94e3661ce3131da044b0cd00ef93be3c005d8f2a7fdcc651464ae0c4a96a7a571b6b9a2b9df54bc9c3e1e304aac4f16044c57cbfb7e2881c0df0be4ad4cdafcdd172da0a65bf476c698ed28b2a11858cf5fe2bc18818183f20ead39a311cce30c4f713a7adcfc8009e3f535b71bec0400cb3304a50efa7d59a6f1b0ae285ce686e87f3322a7067ba304a50ef1d7e9b472704d992f2f28db3cd4f389bfa6f63917bc22eaf3b7f5be49bfde671b7dbb7911b0bad28b79269b58c0d376155a22f291023c0880478bf9d606ce6a1f59935a456208c12a4afb675c5931c49f26628e58fd88c3b6a09a3c4f649d628e3d8ba71b8ff9a08c23b5a271a9e69f0069966679a2c8c12bb660a26d1e4eab13d138dc7e0ea87e8301849674ab7248c1283e9fc799df6168a0ebc8bf2ee679279cd480961779c82411389501fc3083a518816ccf49e6a416998ca69ddc37a49fae8fe2ac70b67cf78c3328ffa21189106c3f7887e2f68c3c70871db119c9666a192cfe9f1d7e4733023083a13dda4db91116c69556204cd5da017182177daf4963792b87f3889957023d228116c11eea7d9ded3d635abcf236da7907c7074174644a55d5e078fed631f8d8eb48f8dd80f88d4c25e4f5837d77d9a7513d106c45589bddb463b6beac833a61479a9e7f161d6c33ec6ba853206c45122b05f25f61a5106101caa88c0bb1d2a0ec938e0848cf3334d1777e2147c6c7be7bdba79ecdf12ceb46402265bbe15cbbb67b5bc2ab1de2696d7fc5a30222bc20f6455507efea9e50f5b3e2aaf4a04af6f693566ce0fdc580d8c52f9861f58b45633a99745ed15550ba444b0c18715dd4e3fa0fd378c8fe2a7775bd8ccf9362f274eba99355a79274e4170b54d441e00230cc0dbdee2afff553f33e060061512ab4430e2ad0c11959f7afa75e58fe3684c04ba7d137360e26147de95788ad109222931b56f83d1205b946d8727395ac0c8d4b2f74dec776cdf5fa910b7c413a7a0d7f72b789df670afe7d3cec43c0d815e676b1da6c49398191188ac124160e79306f5d33b9a5a38e8093acdb501c25a1f76b3a136814e91552208fe67e3c7a0aaf7c08804a95169e8a39506a43afe5b6e460435bf4ee5b8ed49fd965838e97f6f886db7bdd26f658db6b8c6c61fc344eb22f4c42908be3336511c31063f4fb9fd470c7fdc1fb2d104d331b411f046bcd013a72078be9d61b8ef01230c231abc61fcd198ab04ec112196126d5f69657405ffc0f9a296d148e4286bfba6e1b39ce34e16109c584a04439f32e9db85e70b003b772e0c7dc468481b5c6b545d4a6526d32ea50b51d376ba33ea48f2feffbb34f91ccca88cc0de57541e137b448f874d9f2cc7365d3c50e81da7d52e0eedfa58b1ab19dabfb82cc3644c2d83c0d68b5e2c7334d1a18ea3364a34ded660b1779c56077cf731469eecb8fa2c5bf0416f70d1256640a87f6c67338ab26a914d8960cceecbb34618044fee9e5d0734442270c9459187121ca8bbebe004a36d0e154e8960fcd60b32865ff73af743331903103ffdc6d3b2bbd8e17ec21db2cbbb2b9d12c1c2edb33d29bee11b045b7e94c738f7475fdc296b2deffe989c2d2204df716acaa4b6637f96e5e6f779ef8311d629b9dd848c5f4859f745398c90fa24acb28a2fee3f5b91e30b9d1fda21fe608c4c8fc0dc8347a79f1c1c7183a4e731c5578995486f37eb9c746e9e3d1b8cc890a909a6767cfaea744bb4d246fdd5774b6284135562256c53f74b7e4531ece17e091615433322f0f651e97691187afb66192d1b9e9e9adb86fda8a0aed7d8a7133ed93de49977c1880aa81a3dbcd9f83fb54eaeb0fd9fde12c60857aac42aac5f3ff5ddd8906f7cc336b1c762a02904a6fce8de84aa0eff6bef8433ec0f77a44aac02628b773e3a2cd6eda3b6877f321e8cb09f3b25167adff3e2de259d653af67ef11e798c70a94aacc6f6d1cb5e2b7f0fbc76c485fb9759051cb28cc0d8cbee6f8c65a2eae00b05dd792d7259fc4f7545beae698ebde1b149e1a857f7ddeb8ce1a513d0438ac087b7dc31b9a2c1bec79e94f0e2b0a24a53031ca4c4aad03f7dfa8537a62c5ad1b00686ea566d7b0edf798ffea650819e4c08348cb9ed81725fb5e974d0093bc93d6377941299560c93ed23b062ece8d12f2c0cb1d376fb5d7619511372404c172821662972e7c8b20f3e5cf9dfd7f3e72d5b195a6d87f63d87acfc6f835ae9718212d2572807fe2d991774a877260e50c299a582a33408c8bdcaa1891f568080860028a10102d177044009df3300f16b0880121a20107d470094f03d0310bf860028a10102d177044009df3300f16b0880121a20107d470094f03d0310bf860028a10102d177044009df3300f16b0880121a20107d470094f03d0310bf860028a10102d177044009df3300f16b0880121a20107d470094f03d0310bf860028a10102d177044009df3300f16b0880121a20107d470094f03d0310bf860028a10102d177044009df3300f16b0880121a20107d470094f03d0310bf860028a10102d177044009df3300f16b0880121a20107d470094f03d0310bf860028a10102d177044009df3300f16b0880121a20107d470094f03d0310bf860028a10102d177044009df3300f16b0880121a20107d470094f03d0310bf860028a10102d177044009df3300f16b0880121a20107d470094f03d0310bf860028a10102d177044009df3300f16b0880121a20107d470094f03d0310bf860028a10102d177044009df3300f16b0880121a20107d470094f03d0310bf860028a10102d177044009df3300f16b0880121a20107d470094f03d0310bf860028a10102d177044009df3300f16b0880121a20107d470094f03d0310bf860028a10102d177044009df3300f16b0880121a20107d470094f03d0310bf860028a10102d177044009df3300f16b0880121a20107d470094f03d0310bf860028a10102d177044009df3300f16b0880121a20107d470094f03d0310bf860028a10102d177044009df3300f16b0880121a20107d470094f03d0310bf860028a10102d177044009df3300f16b0880121a20107d470094f03d0310bf860028a10102d177044009df3300f16b0880121a20107d470094f03d0310bf860028a10102d177044009df3300f16b0880121a20107d470094f03d0310bf860028a10102d177044009df3300f16b0880121a20107d470094f03d0310bf860028a10102d177044009df3300f16b0880121a20107d470094f03d0310bf860028a10102d177044009df3300f16b0880121a20107d470094f03d0310bf860028a10102d177044009df3300f16b0880121a20107d470094f03d0310bf860028a10102d177044009df3300f16b0880121a20107d470094f03d0310bf860028a10102d177044009df3300f16b0880121a20107d470094f03d0310bf860028a10102d177044009df3300f16b0880121a20107d470094f03d0310bf860028a10102d177044009df3300f16b0880121a20107d470094f03d0310bf860028a10102d177044009df3300f16b0880121a20107d470094f03d0310bf860028a10102d177044009df3300f16b0880121a20107d470094f03d0310bf860028a10102d177044009df3300f16b0880121a20107d470094f03d0310bf860028a10102d177044009df3300f16b0880121a20107d470094f03d0310bf860028a10102d177044009df3300f16b0880121a20107d470094f03d0310bf860028a10102d177044009df3300f16b0880121a20107d470094f03d0310bf860028a10102d177044009df3300f16b0880121a20107d470094f03d0310bf860028a10102d177044009df3300f16b0880121a20107d470094f03d0310bf860028a10102d177044009df3300f16b0880121a20107d470094f03d0310bf860028a10102d177044009df3300f16b0880121a20107d470094f03d0310bf860028a10102d177044009df3300f16b0880121a20107d470094f03d0310bf860028a10102d177044009df3300f16b0880121a20107d470094f03d0310bf860028a10102d177044009df3300f16b0880121a20107d470094f03d0310bf860028a10102d177044009df3300f16b0880121a20107d470094f03d0310bf860028a10102d177044009df3300f16b0880121a20107d470094f03d0310bf860028a10102d177044009df3300f16b0880121a20107d470094f03d0310bf860028a10102d177044009df3300f16b0880121a20107d470094f03d0310bf860028a10102d177044009df3300f16b0880121a20107d470094f03d0310bf860028a10102d177044009df3300f16b0880121a20107d470094f03d0310bf860028a10102d177044009df3300f16b0880121a20107d470094f03d0310bf860028a10102d177044009df3300f16b0880121a20107d470094f03d0310bf860028a10102d177044009df3300f16b0880121a20107d470094f03d0310bf860028a10102d177044009df3300f16b0880121a20107d470094f03d0310bf860028a10102d177044009df3300f16b0880121a20107d470094f03d0310bf860028a10102d177044009df3300f16b0880121a20107d470094f03d0310bf860028a10102d177044009df3300f16b0880121a20107d470094f03d0310bf860028a10102d177044009df3300f16b0880121a20107d470094f03d0310bf860028a10102d177044009df3300f16b0880121a20107d470094f03d0310bf860028a10102d177044009df3300f16b0880121a20107d470094f03d0310bf860028a10102d177044009df3300f16b0880121a20107d470094f03d0310bf860028a10102d177044009df3300f16b0880121a20107d470094f03d0310bf860028a10102d177044009df3300f16b0880121a20107d470094f03d0310bf860028a10102d177044009df3300f16b0880121a20107d470094f03d0310bf860028a10102d177044009df3300f16b0880121a20107d470094f03d0310bf860028a10102d177044009df3300f16b0880121a20107d470094f03d0310bf860028a10102d177044009df3300f16b0880121a20107d470094f03d0310bf860028a10102d177044009df3300f16b0880121a20107d470094f03d0310bf860028a10102d177044009df3300f16b0880121a20107d470094f03d0310bf860028a10102d177044009df3300f16b0880121a20107d470094f03d0310bf860028a10102d177044009df3300f16b0880121a20107d470094f03d0310bf860028a10102d177044009df3300f16b0880121a20107d470094f03d0310bf860028a10102d177044009df3300f16b0880121a20107d470094f03d0310bf860028a10102d177044009df3300f16b0880121a20107d470094f03d0310bf860028a10102d177044009df3300f16b0880121a20107d470094f03d0310bf860028a10102d177044009df3300f16b0880121a20107d470094f03d0310bf860028a10102d177044009df3300f16b0880121a20107d470094f03d0310bf860028a10102d177044009df3300f16b0880121a20107d470094f03d0310bf860028a10102d177044009df3300f16b0880121a20107d470094f03d0310bf860028a10102d177044009df3300f16b0880121a20107d470094f03d0310bf860028a10102d177044009df3300f16b0880121a20107d470094f03d0310bf860028a10102d177044009df3300f16b0880121a20107d470094f03d0310bf860028a10102d177044009df3300f16b0880121a20107d470094f03d0310bf860028a10102d177044009df3300f16b0880121a20107d470094f03d0310bf860028a10102d177044009df3300f16b0880121a20107d470094f03d0310bf860028a10102d177044009df3300f16b0880121a20107d470094f03d0310bf860028a10102d177044009df3300f16b0880121a20107d470094f03d0310bf860028a10102d177044009df3300f16b0880121a20107d470094f03d0310bf860028a10102d177044009df3300f16b0880121a20107d470094f03d0310bf860028a10102d177044009df3300f16b0880121a20107d470094f03d0310bf860028a10102d177044009df3300f16b0880121a20107d470094f03d0310bf860028a10102d177044009df3300f16b0880121a20107d470094f03d0310bf860028a10102d177044009df3300f16b0880121a20107d470094f03d0310bf860028a10102d17704fe1f2a3c703422aa1bca0000000049454e44ae426082>;
de.kutilek.scrawl.rect = (
-102,
-376,
786,
1228
);
de.kutilek.scrawl.size = 100;
de.kutilek.scrawl.unit = 1;
};
width = 582;
},
{
anchors = (
{
name = bottom;
position = "{293, 0}";
},
{
name = top;
position = "{294, 725}";
}
);
layerId = "8E39700C-2F6D-4A17-B4B3-161F49A69C4C";
paths = (
{
closed = 1;
nodes = (
"76 727 OFFCURVE",
"107 753 OFFCURVE",
"128 753 QCURVE {name = at01;}",
"148 753 OFFCURVE",
"177 724 OFFCURVE",
"177 703 QCURVE {name = sv02;}",
"177 588 OFFCURVE",
"160 362 OFFCURVE",
"155 247 QCURVE {name = sv03;}",
"166 278 OFFCURVE",
"202 347 OFFCURVE",
"246 418 OFFCURVE",
"295 487 OFFCURVE",
"318 519 QCURVE",
"351 564 OFFCURVE",
"411 655 OFFCURVE",
"443 699 QCURVE {name = sv04;}",
"455 715 OFFCURVE",
"481 732 OFFCURVE",
"500 732 QCURVE {name = at02;}",
"520 732 OFFCURVE",
"548 705 OFFCURVE",
"548 684 QCURVE {name = sv05;}",
"548 677 OFFCURVE",
"542 658 OFFCURVE",
"537 651 QCURVE",
"493 594 OFFCURVE",
"408 467 OFFCURVE",
"353 389 QCURVE {name = sv07;}",
"368 345 OFFCURVE",
"416 244 OFFCURVE",
"469 152 OFFCURVE",
"521 79 OFFCURVE",
"539 63 QCURVE",
"550 52 OFFCURVE",
"561 29 OFFCURVE",
"561 18 QCURVE",
"561 -1 OFFCURVE",
"534 -28 OFFCURVE",
"514 -28 QCURVE {name = ab02;}",
"493 -28 OFFCURVE",
"478 -16 QCURVE",
"459 1 OFFCURVE",
"409 66 OFFCURVE",
"357 149 OFFCURVE",
"306 243 OFFCURVE",
"285 290 QCURVE {name = sv06;}",
"274 270 OFFCURVE",
"252 224 OFFCURVE",
"233 176 OFFCURVE",
"215 129 OFFCURVE",
"207 110 QCURVE",
"197 86 OFFCURVE",
"179 51 OFFCURVE",
"165 36 QCURVE",
"156 11 OFFCURVE",
"123 -17 OFFCURVE",
"103 -17 QCURVE {name = ab01;}",
"83 -17 OFFCURVE",
"54 7 OFFCURVE",
"54 24 QCURVE",
"54 44 OFFCURVE",
"51 81 OFFCURVE",
"51 101 QCURVE",
"51 177 OFFCURVE",
"59 329 OFFCURVE",
"68 480 OFFCURVE",
"76 631 OFFCURVE",
"76 707 QCURVE {name = sv01;}"
);
}
);
width = 582;
},
{
anchors = (
{
name = bottom;
position = "{293, 0}";
},
{
name = top;
position = "{294, 725}";
}
);
background = {
paths = (
{
closed = 1;
nodes = (
"501 106 OFFCURVE",
"403 221 OFFCURVE",
"357 342 CURVE",
"423 450 OFFCURVE",
"493 563 OFFCURVE",
"548 651 CURVE SMOOTH",
"575 694 OFFCURVE",
"546 730 OFFCURVE",
"510 730 CURVE SMOOTH",
"491 730 OFFCURVE",
"469 719 OFFCURVE",
"454 694 CURVE SMOOTH",
"349 522 OFFCURVE",
"236 331 OFFCURVE",
"130 149 CURVE",
"140 212 OFFCURVE",
"150 297 OFFCURVE",
"159 393 CURVE SMOOTH",
"170 516 OFFCURVE",
"180 636 OFFCURVE",
"182 687 CURVE SMOOTH",
"183 721 OFFCURVE",
"160 743 OFFCURVE",
"133 743 CURVE SMOOTH",
"105 743 OFFCURVE",
"83 724 OFFCURVE",
"81 697 CURVE SMOOTH",
"56 417 OFFCURVE",
"32 134 OFFCURVE",
"41 24 CURVE SMOOTH",
"43 -7 OFFCURVE",
"60 -24 OFFCURVE",
"91 -24 CURVE SMOOTH",
"114 -24 OFFCURVE",
"132 -10 OFFCURVE",
"142 12 CURVE",
"180 63 OFFCURVE",
"237 150 OFFCURVE",
"299 249 CURVE",
"348 131 OFFCURVE",
"435 21 OFFCURVE",
"478 -13 CURVE SMOOTH",
"490 -22 OFFCURVE",
"502 -26 OFFCURVE",
"513 -26 CURVE SMOOTH",
"553 -26 OFFCURVE",
"582 24 OFFCURVE",
"545 61 CURVE SMOOTH"
);
}
);
};
hints = (
{
horizontal = 1;
origin = "{0, 9}";
type = Anchor;
},
{
horizontal = 1;
origin = "{0, 42}";
type = Anchor;
},
{
horizontal = 1;
origin = "{0, 17}";
type = Anchor;
},
{
horizontal = 1;
origin = "{0, 29}";
type = Anchor;
},
{
horizontal = 1;
origin = "{0, 9}";
target = "{0, 17}";
other1 = "{0, 24}";
type = Interpolate;
options = 4;
},
{
horizontal = 1;
origin = "{0, 9}";
target = "{0, 29}";
other1 = "{0, 4}";
type = Interpolate;
options = 4;
},
{
horizontal = 1;
origin = "{0, 9}";
target = "{0, 29}";
other1 = "{0, 35}";
type = Interpolate;
options = 4;
}
);
layerId = "92936CB7-D294-4857-B41D-63B9425360A1";
paths = (
{
closed = 1;
nodes = (
"495 -26 OFFCURVE",
"478 -13 QCURVE SMOOTH",
"438 19 OFFCURVE",
"331 172 OFFCURVE",
"299 249 QCURVE",
"196 84 OFFCURVE",
"142 12 QCURVE",
"134 -5 OFFCURVE",
"108 -24 OFFCURVE",
"91 -24 QCURVE SMOOTH",
"45 -24 OFFCURVE",
"41 24 QCURVE SMOOTH",
"36 86 OFFCURVE",
"52 377 OFFCURVE",
"81 697 QCURVE SMOOTH",
"82 717 OFFCURVE",
"112 743 OFFCURVE",
"133 743 QCURVE SMOOTH",
"154 743 OFFCURVE",
"183 712 OFFCURVE",
"182 687 QCURVE SMOOTH",
"179 621 OFFCURVE",
"159 393 QCURVE SMOOTH",
"146 243 OFFCURVE",
"130 149 QCURVE",
"311 459 OFFCURVE",
"454 694 QCURVE SMOOTH",
"464 711 OFFCURVE",
"494 730 OFFCURVE",
"510 730 QCURVE SMOOTH",
"528 730 OFFCURVE",
"556 708 OFFCURVE",
"560 671 OFFCURVE",
"548 651 QCURVE SMOOTH",
"451 495 OFFCURVE",
"357 342 QCURVE",
"383 273 OFFCURVE",
"487 120 OFFCURVE",
"545 61 QCURVE SMOOTH",
"562 44 OFFCURVE",
"562 3 OFFCURVE",
"533 -26 OFFCURVE",
"513 -26 QCURVE SMOOTH"
);
}
);
width = 582;
}
);
rightKerningGroup = K;
unicode = 004B;
},
{
color = 4;
glyphname = L;
layers = (
{
anchors = (
{
name = bottom;
position = "{288, -3}";
},
{
name = top;
position = "{159, 675}";
}
);
layerId = master01;
paths = (
{
closed = 1;
nodes = (
"101 472 OFFCURVE",
"64 252 OFFCURVE",
"64 81 CURVE SMOOTH",
"64 22 OFFCURVE",
"72 -3 OFFCURVE",
"113 -12 CURVE SMOOTH",
"146 -19 OFFCURVE",
"179 -20 OFFCURVE",
"212 -20 CURVE SMOOTH",
"284 -20 OFFCURVE",
"404 -12 OFFCURVE",
"463 -6 CURVE SMOOTH",
"496 -3 OFFCURVE",
"517 14 OFFCURVE",
"517 44 CURVE SMOOTH",
"517 73 OFFCURVE",
"496 92 OFFCURVE",
"463 90 CURVE SMOOTH",
"397 86 OFFCURVE",
"289 76 OFFCURVE",
"203 76 CURVE SMOOTH",
"190 76 OFFCURVE",
"178 76 OFFCURVE",
"166 77 CURVE",
"174 276 OFFCURVE",
"202 471 OFFCURVE",
"206 671 CURVE SMOOTH",
"207 704 OFFCURVE",
"180 721 OFFCURVE",
"157 721 CURVE SMOOTH",
"130 721 OFFCURVE",
"107 704 OFFCURVE",
"106 673 CURVE SMOOTH"
);
}
);
userData = {
com.typemytype.robofont.mark = (
1,
0.976,
0.6,
1
);
};
width = 529;
},
{
anchors = (
{
name = bottom;
position = "{288, -3}";
},
{
name = top;
position = "{159, 675}";
}
);
layerId = "8E39700C-2F6D-4A17-B4B3-161F49A69C4C";
paths = (
{
closed = 1;
nodes = (
"106 696 OFFCURVE",
"137 721 OFFCURVE",
"157 721 QCURVE {name = at01;}",
"174 721 OFFCURVE",
"206 696 OFFCURVE",
"206 671 QCURVE",
"206 597 OFFCURVE",
"195 450 OFFCURVE",
"181 303 OFFCURVE",
"168 155 OFFCURVE",
"166 81 QCURVE",
"175 80 OFFCURVE",
"193 80 OFFCURVE",
"203 80 QCURVE {name = sv01;}",
"235 80 OFFCURVE",
"306 84 OFFCURVE",
"375 90 OFFCURVE",
"438 94 OFFCURVE",
"463 94 QCURVE",
"488 94 OFFCURVE",
"517 65 OFFCURVE",
"517 44 QCURVE",
"517 23 OFFCURVE",
"488 -6 OFFCURVE",
"463 -6 QCURVE",
"440 -6 OFFCURVE",
"376 -10 OFFCURVE",
"307 -16 OFFCURVE",
"239 -20 OFFCURVE",
"212 -20 QCURVE {name = ab01;}",
"187 -20 OFFCURVE",
"138 -17 OFFCURVE",
"113 -13 QCURVE",
"82 -5 OFFCURVE",
"64 37 OFFCURVE",
"64 81 QCURVE",
"64 156 OFFCURVE",
"77 303 OFFCURVE",
"93 450 OFFCURVE",
"106 598 OFFCURVE",
"106 673 QCURVE"
);
}
);
width = 529;
},
{
anchors = (
{
name = bottom;
position = "{288, -3}";
},
{
name = top;
position = "{159, 675}";
}
);
background = {
paths = (
{
closed = 1;
nodes = (
"101 472 OFFCURVE",
"64 252 OFFCURVE",
"64 81 CURVE SMOOTH",
"64 22 OFFCURVE",
"72 -3 OFFCURVE",
"113 -12 CURVE SMOOTH",
"146 -19 OFFCURVE",
"179 -20 OFFCURVE",
"212 -20 CURVE SMOOTH",
"284 -20 OFFCURVE",
"404 -12 OFFCURVE",
"463 -6 CURVE SMOOTH",
"496 -3 OFFCURVE",
"517 14 OFFCURVE",
"517 44 CURVE SMOOTH",
"517 73 OFFCURVE",
"496 92 OFFCURVE",
"463 90 CURVE SMOOTH",
"397 86 OFFCURVE",
"289 76 OFFCURVE",
"203 76 CURVE SMOOTH",
"190 76 OFFCURVE",
"178 76 OFFCURVE",
"166 77 CURVE",
"174 276 OFFCURVE",
"202 471 OFFCURVE",
"206 671 CURVE SMOOTH",
"207 704 OFFCURVE",
"180 721 OFFCURVE",
"157 721 CURVE SMOOTH",
"130 721 OFFCURVE",
"107 704 OFFCURVE",
"106 673 CURVE SMOOTH"
);
}
);
};
hints = (
{
horizontal = 1;
origin = "{0, 36}";
target = "{0, 22}";
type = TTStem;
options = 4;
},
{
horizontal = 1;
origin = "{0, 12}";
type = Anchor;
}
);
layerId = "92936CB7-D294-4857-B41D-63B9425360A1";
paths = (
{
closed = 1;
nodes = (
"151 -20 OFFCURVE",
"113 -12 QCURVE SMOOTH",
"85 -6 OFFCURVE",
"64 32 OFFCURVE",
"64 81 QCURVE",
"64 128 OFFCURVE",
"72 248 OFFCURVE",
"96 499 OFFCURVE",
"105 622 OFFCURVE",
"106 673 QCURVE SMOOTH",
"106 695 OFFCURVE",
"136 721 OFFCURVE",
"157 721 QCURVE SMOOTH {name = at01;}",
"178 721 OFFCURVE",
"206 693 OFFCURVE",
"206 671 QCURVE SMOOTH",
"205 613 OFFCURVE",
"197 479 OFFCURVE",
"176 235 OFFCURVE",
"168 124 OFFCURVE",
"166 77 QCURVE",
"178 76 OFFCURVE",
"203 76 QCURVE SMOOTH {name = sv01;}",
"236 76 OFFCURVE",
"322 80 OFFCURVE",
"446 89 OFFCURVE",
"463 90 QCURVE SMOOTH {name = sv03;}",
"488 91 OFFCURVE",
"517 66 OFFCURVE",
"517 22 OFFCURVE",
"488 -3 OFFCURVE",
"463 -6 QCURVE SMOOTH {name = sv02;}",
"438 -9 OFFCURVE",
"368 -14 OFFCURVE",
"296 -18 OFFCURVE",
"235 -20 OFFCURVE",
"212 -20 QCURVE SMOOTH {name = ab01;}"
);
}
);
userData = {
com.typemytype.robofont.mark = (
0.656,
1,
0.6,
1
);
};
width = 529;
}
);
leftKerningGroup = L;
rightKerningGroup = L;
unicode = 004C;
},
{
glyphname = Ldot;
layers = (
{
color = 6;
components = (
{
name = L;
},
{
name = dotaccentcomb;
transform = "{1, 0, 0, 1, 519, -292}";
}
);
layerId = master01;
width = 533;
},
{
layerId = "8E39700C-2F6D-4A17-B4B3-161F49A69C4C";
paths = (
{
closed = 1;
nodes = (
"97 698 OFFCURVE",
"125 719 OFFCURVE",
"140 719 QCURVE {name = at01;}",
"157 719 OFFCURVE",
"185 694 OFFCURVE",
"189 669 QCURVE",
"185 525 OFFCURVE",
"169 240 OFFCURVE",
"165 96 QCURVE {name = sv01;}",
"455 100 LINE",
"482 97 OFFCURVE",
"509 67 OFFCURVE",
"509 50 QCURVE",
"509 33 OFFCURVE",
"482 2 OFFCURVE",
"455 0 QCURVE",
"393 -2 OFFCURVE",
"267 -5 OFFCURVE",
"204 -5 QCURVE",
"181 -5 OFFCURVE",
"134 -4 OFFCURVE",
"111 -3 QCURVE {name = ab01;}",
"84 5 OFFCURVE",
"64 35 OFFCURVE",
"64 75 QCURVE",
"64 114 OFFCURVE",
"68 192 OFFCURVE",
"70 230 QCURVE",
"75 343 OFFCURVE",
"86 565 OFFCURVE",
"89 677 QCURVE"
);
},
{
closed = 1;
nodes = (
"445 444 OFFCURVE",
"476 407 OFFCURVE",
"476 385 QCURVE",
"476 362 OFFCURVE",
"445 323 OFFCURVE",
"417 323 QCURVE {name = dv01;}",
"385 323 OFFCURVE",
"355 359 OFFCURVE",
"355 381 QCURVE",
"355 404 OFFCURVE",
"385 443 OFFCURVE",
"414 448 QCURVE {name = dv02;}"
);
}
);
width = 533;
},
{
color = 6;
components = (
{
name = L;
},
{
name = dotaccentcomb;
transform = "{1, 0, 0, 1, 519, -292}";
}
);
layerId = "92936CB7-D294-4857-B41D-63B9425360A1";
userData = {
com.typemytype.robofont.mark = (
0.6,
0.986,
1,
1
);
};
width = 533;
}
);
leftKerningGroup = L;
rightKerningGroup = L;
unicode = 013F;
},
{
glyphname = Lslash;
layers = (
{
layerId = master01;
paths = (
{
closed = 1;
nodes = (
"38 171 OFFCURVE",
"34 127 OFFCURVE",
"34 80 CURVE SMOOTH",
"34 27 OFFCURVE",
"46 -6 OFFCURVE",
"105 -6 CURVE SMOOTH",
"148 -6 OFFCURVE",
"190 8 OFFCURVE",
"231 8 CURVE SMOOTH",
"303 8 OFFCURVE",
"373 1 OFFCURVE",
"445 -2 CURVE",
"481 1 OFFCURVE",
"499 25 OFFCURVE",
"499 48 CURVE SMOOTH",
"499 71 OFFCURVE",
"481 94 OFFCURVE",
"445 98 CURVE",
"376 101 OFFCURVE",
"307 108 OFFCURVE",
"238 108 CURVE SMOOTH",
"198 108 OFFCURVE",
"170 104 OFFCURVE",
"134 97 CURVE",
"134 142 OFFCURVE",
"141 186 OFFCURVE",
"145 231 CURVE SMOOTH",
"149 275 LINE",
"209 310 OFFCURVE",
"319 368 OFFCURVE",
"319 416 CURVE SMOOTH",
"319 441 OFFCURVE",
"299 461 OFFCURVE",
"272 461 CURVE SMOOTH",
"241 461 OFFCURVE",
"198 422 OFFCURVE",
"163 400 CURVE",
"174 493 OFFCURVE",
"181 585 OFFCURVE",
"188 680 CURVE",
"183 713 OFFCURVE",
"162 730 OFFCURVE",
"139 730 CURVE SMOOTH",
"119 730 OFFCURVE",
"99 716 OFFCURVE",
"88 688 CURVE",
"81 569 OFFCURVE",
"68 453 OFFCURVE",
"55 336 CURVE",
"5 307 OFFCURVE",
"-71 284 OFFCURVE",
"-71 238 CURVE SMOOTH",
"-71 213 OFFCURVE",
"-51 192 OFFCURVE",
"-22 192 CURVE SMOOTH",
"-14 192 OFFCURVE",
"-5 193 OFFCURVE",
"6 198 CURVE SMOOTH",
"43 216 LINE"
);
}
);
width = 525;
},
{
layerId = "8E39700C-2F6D-4A17-B4B3-161F49A69C4C";
paths = (
{
closed = 1;
nodes = (
"-2 194 OFFCURVE",
"-16 192 OFFCURVE",
"-22 192 QCURVE",
"-44 192 OFFCURVE",
"-71 219 OFFCURVE",
"-71 238 QCURVE",
"-71 255 OFFCURVE",
"-46 282 OFFCURVE",
"-8 305 OFFCURVE",
"36 325 OFFCURVE",
"55 336 QCURVE {name = sv01;}",
"65 424 OFFCURVE",
"83 599 OFFCURVE",
"88 688 QCURVE",
"96 709 OFFCURVE",
"124 730 OFFCURVE",
"139 730 QCURVE {name = at01;}",
"156 730 OFFCURVE",
"184 705 OFFCURVE",
"188 680 QCURVE",
"183 609 OFFCURVE",
"171 470 OFFCURVE",
"163 400 QCURVE {name = dv02;}",
"176 408 OFFCURVE",
"205 429 OFFCURVE",
"233 448 OFFCURVE",
"260 461 OFFCURVE",
"272 461 QCURVE",
"292 461 OFFCURVE",
"319 435 OFFCURVE",
"319 416 QCURVE",
"319 398 OFFCURVE",
"283 359 OFFCURVE",
"230 322 OFFCURVE",
"171 288 OFFCURVE",
"149 275 QCURVE {name = dv01;}",
"145 231 LINE",
"142 197 OFFCURVE",
"134 131 OFFCURVE",
"134 97 QCURVE {name = sv02;}",
"161 102 OFFCURVE",
"208 108 OFFCURVE",
"238 108 QCURVE",
"290 108 OFFCURVE",
"393 100 OFFCURVE",
"445 98 QCURVE",
"472 95 OFFCURVE",
"499 65 OFFCURVE",
"499 48 QCURVE",
"499 31 OFFCURVE",
"472 0 OFFCURVE",
"445 -2 QCURVE",
"391 0 OFFCURVE",
"285 8 OFFCURVE",
"231 8 QCURVE",
"200 8 OFFCURVE",
"137 -6 OFFCURVE",
"105 -6 QCURVE {name = ab01;}",
"61 -6 OFFCURVE",
"34 40 OFFCURVE",
"34 80 QCURVE",
"34 115 OFFCURVE",
"39 182 OFFCURVE",
"43 216 QCURVE {name = sv03;}",
"6 198 LINE"
);
}
);
width = 525;
},
{
layerId = "92936CB7-D294-4857-B41D-63B9425360A1";
paths = (
{
closed = 1;
nodes = (
"61 -6 OFFCURVE",
"34 40 OFFCURVE",
"34 80 QCURVE",
"34 115 OFFCURVE",
"39 182 OFFCURVE",
"43 216 QCURVE {name = sv03;}",
"6 198 LINE",
"-2 194 OFFCURVE",
"-16 192 OFFCURVE",
"-22 192 QCURVE",
"-44 192 OFFCURVE",
"-71 219 OFFCURVE",
"-71 238 QCURVE",
"-71 255 OFFCURVE",
"-46 282 OFFCURVE",
"-8 305 OFFCURVE",
"36 325 OFFCURVE",
"55 336 QCURVE {name = sv01;}",
"65 424 OFFCURVE",
"83 599 OFFCURVE",
"88 688 QCURVE",
"96 709 OFFCURVE",
"124 730 OFFCURVE",
"139 730 QCURVE {name = at01;}",
"156 730 OFFCURVE",
"184 705 OFFCURVE",
"188 680 QCURVE",
"183 609 OFFCURVE",
"171 470 OFFCURVE",
"163 400 QCURVE {name = dv02;}",
"176 408 OFFCURVE",
"205 429 OFFCURVE",
"233 448 OFFCURVE",
"260 461 OFFCURVE",
"272 461 QCURVE",
"292 461 OFFCURVE",
"319 435 OFFCURVE",
"319 416 QCURVE",
"319 398 OFFCURVE",
"283 359 OFFCURVE",
"230 322 OFFCURVE",
"171 288 OFFCURVE",
"149 275 QCURVE {name = dv01;}",
"145 231 LINE",
"142 197 OFFCURVE",
"134 131 OFFCURVE",
"134 97 QCURVE {name = sv02;}",
"161 102 OFFCURVE",
"208 108 OFFCURVE",
"238 108 QCURVE",
"290 108 OFFCURVE",
"393 100 OFFCURVE",
"445 98 QCURVE",
"472 95 OFFCURVE",
"499 65 OFFCURVE",
"499 48 QCURVE",
"499 31 OFFCURVE",
"472 0 OFFCURVE",
"445 -2 QCURVE",
"391 0 OFFCURVE",
"285 8 OFFCURVE",
"231 8 QCURVE",
"200 8 OFFCURVE",
"137 -6 OFFCURVE",
"105 -6 QCURVE {name = ab01;}"
);
}
);
width = 525;
}
);
leftKerningGroup = L;
rightKerningGroup = L;
unicode = 0141;
},
{
color = 4;
glyphname = M;
layers = (
{
anchors = (
{
name = bottom;
position = "{336, 0}";
},
{
name = top;
position = "{383, 725}";
}
);
layerId = master01;
paths = (
{
closed = 1;
nodes = (
"150 177 OFFCURVE",
"191 306 OFFCURVE",
"242 517 CURVE",
"223 517 LINE",
"234 335 OFFCURVE",
"254 239 OFFCURVE",
"281 170 CURVE SMOOTH",
"296 131 OFFCURVE",
"313 108 OFFCURVE",
"345 108 CURVE SMOOTH",
"372 108 OFFCURVE",
"390 118 OFFCURVE",
"412 172 CURVE",
"467 278 OFFCURVE",
"508 406 OFFCURVE",
"547 637 CURVE",
"511 567 LINE",
"519 262 OFFCURVE",
"538 117 OFFCURVE",
"569 4 CURVE SMOOTH",
"577 -24 OFFCURVE",
"598 -38 OFFCURVE",
"618 -38 CURVE SMOOTH",
"645 -38 OFFCURVE",
"674 -16 OFFCURVE",
"664 33 CURVE SMOOTH",
"636 170 OFFCURVE",
"606 412 OFFCURVE",
"594 668 CURVE SMOOTH",
"592 709 OFFCURVE",
"571 726 OFFCURVE",
"542 726 CURVE SMOOTH",
"513 726 OFFCURVE",
"496 707 OFFCURVE",
"489 678 CURVE SMOOTH",
"453 521 OFFCURVE",
"399 372 OFFCURVE",
"331 208 CURVE",
"370 208 LINE",
"324 377 OFFCURVE",
"316 484 OFFCURVE",
"299 668 CURVE SMOOTH",
"296 702 OFFCURVE",
"279 724 OFFCURVE",
"251 724 CURVE SMOOTH",
"223 724 OFFCURVE",
"208 710 OFFCURVE",
"204 679 CURVE",
"136 465 OFFCURVE",
"59 258 OFFCURVE",
"26 9 CURVE SMOOTH",
"20 -33 OFFCURVE",
"49 -52 OFFCURVE",
"74 -52 CURVE SMOOTH",
"97 -52 OFFCURVE",
"117 -37 OFFCURVE",
"122 -2 CURVE SMOOTH"
);
}
);
userData = {
com.typemytype.robofont.mark = (
0.619,
1,
0.6,
1
);
};
width = 727;
},
{
anchors = (
{
name = bottom;
position = "{336, 0}";
},
{
name = top;
position = "{383, 725}";
}
);
layerId = "8E39700C-2F6D-4A17-B4B3-161F49A69C4C";
paths = (
{
closed = 1;
nodes = (
"124 -28 OFFCURVE",
"91 -52 OFFCURVE",
"74 -52 QCURVE {name = av01;}",
"55 -52 OFFCURVE",
"25 -23 OFFCURVE",
"25 6 QCURVE",
"25 99 OFFCURVE",
"73 276 OFFCURVE",
"134 444 OFFCURVE",
"191 605 OFFCURVE",
"200 682 QCURVE",
"202 699 OFFCURVE",
"230 724 OFFCURVE",
"251 724 QCURVE {name = at01;}",
"272 724 OFFCURVE",
"296 695 OFFCURVE",
"299 674 QCURVE",
"305 627 OFFCURVE",
"313 524 OFFCURVE",
"324 419 OFFCURVE",
"340 315 OFFCURVE",
"354 268 QCURVE",
"387 334 OFFCURVE",
"434 472 OFFCURVE",
"449 542 QCURVE",
"457 577 OFFCURVE",
"469 644 OFFCURVE",
"487 696 OFFCURVE",
"516 728 OFFCURVE",
"542 728 QCURVE {name = at02;}",
"560 728 OFFCURVE",
"596 699 OFFCURVE",
"598 668 QCURVE",
"603 538 OFFCURVE",
"622 281 OFFCURVE",
"642 150 QCURVE",
"649 104 OFFCURVE",
"667 34 OFFCURVE",
"667 12 QCURVE",
"667 -9 OFFCURVE",
"638 -38 OFFCURVE",
"618 -38 QCURVE {name = ab01;}",
"603 -38 OFFCURVE",
"574 -17 OFFCURVE",
"567 4 QCURVE",
"559 31 OFFCURVE",
"542 118 OFFCURVE",
"527 222 OFFCURVE",
"515 333 OFFCURVE",
"511 384 QCURVE",
"488 321 OFFCURVE",
"439 208 OFFCURVE",
"415 169 QCURVE",
"395 135 OFFCURVE",
"365 108 OFFCURVE",
"345 108 QCURVE",
"334 108 OFFCURVE",
"315 116 OFFCURVE",
"304 129 QCURVE",
"280 156 OFFCURVE",
"240 296 OFFCURVE",
"229 394 QCURVE",
"217 359 OFFCURVE",
"184 279 OFFCURVE",
"152 184 OFFCURVE",
"128 69 OFFCURVE",
"125 -2 QCURVE"
);
}
);
width = 727;
},
{
anchors = (
{
name = bottom;
position = "{336, 0}";
},
{
name = top;
position = "{383, 725}";
}
);
background = {
paths = (
{
closed = 1;
nodes = (
"97 -52 OFFCURVE",
"117 -37 OFFCURVE",
"122 -2 CURVE SMOOTH",
"147 159 OFFCURVE",
"183 280 OFFCURVE",
"227 457 CURVE {name = sv03;}",
"239 313 OFFCURVE",
"257 231 OFFCURVE",
"281 170 CURVE SMOOTH",
"296 131 OFFCURVE",
"313 108 OFFCURVE",
"345 108 CURVE SMOOTH",
"372 108 OFFCURVE",
"390 118 OFFCURVE",
"412 172 CURVE",
"452 249 OFFCURVE",
"484 337 OFFCURVE",
"514 468 CURVE {name = sv02;}",
"524 229 OFFCURVE",
"542 104 OFFCURVE",
"569 4 CURVE SMOOTH",
"577 -24 OFFCURVE",
"598 -38 OFFCURVE",
"618 -38 CURVE SMOOTH",
"645 -38 OFFCURVE",
"674 -16 OFFCURVE",
"664 33 CURVE SMOOTH",
"636 170 OFFCURVE",
"606 412 OFFCURVE",
"594 668 CURVE SMOOTH",
"592 709 OFFCURVE",
"571 726 OFFCURVE",
"542 726 CURVE SMOOTH",
"513 726 OFFCURVE",
"496 707 OFFCURVE",
"489 678 CURVE SMOOTH",
"457 540 OFFCURVE",
"412 408 OFFCURVE",
"355 267 CURVE {name = sv01;}",
"322 404 OFFCURVE",
"314 506 OFFCURVE",
"299 668 CURVE SMOOTH",
"296 702 OFFCURVE",
"279 724 OFFCURVE",
"251 724 CURVE SMOOTH",
"223 724 OFFCURVE",
"208 710 OFFCURVE",
"204 679 CURVE",
"136 465 OFFCURVE",
"59 258 OFFCURVE",
"26 9 CURVE SMOOTH",
"20 -33 OFFCURVE",
"49 -52 OFFCURVE",
"74 -52 CURVE SMOOTH"
);
}
);
};
hints = (
{
horizontal = 1;
origin = "{0, 51}";
type = Anchor;
stem = 6;
},
{
horizontal = 1;
origin = "{0, 27}";
type = Anchor;
},
{
horizontal = 1;
origin = "{0, 8}";
type = Anchor;
},
{
horizontal = 1;
origin = "{0, 18}";
type = Anchor;
},
{
horizontal = 1;
origin = "{0, 39}";
type = Anchor;
},
{
horizontal = 1;
origin = "{0, 39}";
target = "{0, 14}";
type = Align;
options = 4;
},
{
horizontal = 1;
origin = "{0, 8}";
target = "{0, 45}";
type = Align;
options = 4;
},
{
horizontal = 1;
origin = "{0, 18}";
target = "{0, 33}";
type = Align;
options = 4;
}
);
layerId = "92936CB7-D294-4857-B41D-63B9425360A1";
paths = (
{
closed = 1;
nodes = (
"51 -52 OFFCURVE",
"22 -18 OFFCURVE",
"26 9 QCURVE SMOOTH",
"41 119 OFFCURVE",
"98 354 OFFCURVE",
"193 644 OFFCURVE",
"204 679 QCURVE",
"210 724 OFFCURVE",
"251 724 QCURVE SMOOTH",
"271 724 OFFCURVE",
"297 694 OFFCURVE",
"299 668 QCURVE SMOOTH",
"300 659 OFFCURVE",
"324 395 OFFCURVE",
"355 267 QCURVE {name = sv01;}",
"446 491 OFFCURVE",
"489 678 QCURVE SMOOTH",
"500 726 OFFCURVE",
"542 726 QCURVE SMOOTH",
"566 726 OFFCURVE",
"593 696 OFFCURVE",
"594 668 QCURVE SMOOTH",
"602 493 OFFCURVE",
"641 148 OFFCURVE",
"664 33 QCURVE SMOOTH",
"670 1 OFFCURVE",
"643 -38 OFFCURVE",
"618 -38 QCURVE SMOOTH",
"602 -38 OFFCURVE",
"575 -16 OFFCURVE",
"569 4 QCURVE SMOOTH",
"546 88 OFFCURVE",
"521 305 OFFCURVE",
"514 468 QCURVE {name = sv02;}",
"493 375 OFFCURVE",
"444 233 OFFCURVE",
"412 172 QCURVE",
"397 136 OFFCURVE",
"368 108 OFFCURVE",
"345 108 QCURVE SMOOTH",
"324 108 OFFCURVE",
"294 136 OFFCURVE",
"281 170 QCURVE SMOOTH",
"261 221 OFFCURVE",
"235 358 OFFCURVE",
"227 457 QCURVE {name = sv03;}",
"217 416 OFFCURVE",
"141 122 OFFCURVE",
"122 -2 QCURVE SMOOTH",
"118 -26 OFFCURVE",
"93 -52 OFFCURVE",
"74 -52 QCURVE SMOOTH"
);
}
);
userData = {
com.typemytype.robofont.mark = (
0.656,
1,
0.6,
1
);
};
width = 727;
}
);
unicode = 004D;
},
{
color = 4;
glyphname = N;
layers = (
{
anchors = (
{
name = bottom;
position = "{318, 0}";
},
{
name = top;
position = "{335, 700}";
}
);
layerId = master01;
paths = (
{
closed = 1;
nodes = (
"153 -26 OFFCURVE",
"177 -8 OFFCURVE",
"178 28 CURVE SMOOTH",
"182 237 OFFCURVE",
"180 394 OFFCURVE",
"185 579 CURVE",
"118 662 LINE",
"208 375 OFFCURVE",
"331 156 OFFCURVE",
"454 1 CURVE SMOOTH",
"472 -22 OFFCURVE",
"490 -32 OFFCURVE",
"513 -32 CURVE SMOOTH",
"544 -32 OFFCURVE",
"562 -12 OFFCURVE",
"568 25 CURVE SMOOTH",
"593 187 OFFCURVE",
"597 461 OFFCURVE",
"586 668 CURVE SMOOTH",
"584 704 OFFCURVE",
"561 720 OFFCURVE",
"536 720 CURVE SMOOTH",
"511 720 OFFCURVE",
"485 702 OFFCURVE",
"486 668 CURVE SMOOTH",
"491 464 OFFCURVE",
"494 289 OFFCURVE",
"485 50 CURVE",
"507 91 LINE",
"388 258 OFFCURVE",
"281 455 OFFCURVE",
"200 685 CURVE SMOOTH",
"188 718 OFFCURVE",
"170 728 OFFCURVE",
"147 728 CURVE SMOOTH",
"121 728 OFFCURVE",
"100 715 OFFCURVE",
"97 660 CURVE SMOOTH",
"87 449 OFFCURVE",
"76 238 OFFCURVE",
"76 32 CURVE SMOOTH",
"76 -9 OFFCURVE",
"101 -26 OFFCURVE",
"126 -26 CURVE SMOOTH"
);
}
);
userData = {
com.typemytype.robofont.mark = (
0.619,
1,
0.6,
1
);
};
width = 678;
},
{
anchors = (
{
name = bottom;
position = "{318, 0}";
},
{
name = top;
position = "{335, 700}";
}
);
layerId = "8E39700C-2F6D-4A17-B4B3-161F49A69C4C";
paths = (
{
closed = 1;
nodes = (
"67 707 OFFCURVE",
"95 733 OFFCURVE",
"114 733 QCURVE",
"125 733 OFFCURVE",
"134 729 QCURVE",
"141 732 OFFCURVE",
"150 732 QCURVE {name = at02;}",
"167 732 OFFCURVE",
"200 707 OFFCURVE",
"200 682 QCURVE {name = sv01;}",
"200 671 OFFCURVE",
"200 648 OFFCURVE",
"199 639 QCURVE",
"234 594 OFFCURVE",
"287 490 OFFCURVE",
"333 380 OFFCURVE",
"381 270 OFFCURVE",
"411 218 QCURVE",
"428 190 OFFCURVE",
"464 140 OFFCURVE",
"483 114 QCURVE {name = sv02;}",
"491 152 OFFCURVE",
"495 233 OFFCURVE",
"495 273 QCURVE",
"495 336 OFFCURVE",
"494 431 OFFCURVE",
"492 518 OFFCURVE",
"488 607 OFFCURVE",
"485 662 QCURVE",
"485 688 OFFCURVE",
"515 721 OFFCURVE",
"535 721 QCURVE {name = at01;}",
"555 721 OFFCURVE",
"583 695 OFFCURVE",
"585 674 QCURVE",
"586 667 OFFCURVE",
"586 654 OFFCURVE",
"586 647 QCURVE",
"589 576 OFFCURVE",
"594 455 OFFCURVE",
"594 385 QCURVE",
"594 330 OFFCURVE",
"594 258 OFFCURVE",
"592 201 OFFCURVE",
"587 148 OFFCURVE",
"583 113 QCURVE",
"579 79 OFFCURVE",
"569 24 OFFCURVE",
"554 -14 OFFCURVE",
"530 -34 OFFCURVE",
"512 -34 QCURVE {name = ab02;}",
"498 -34 OFFCURVE",
"470 -18 OFFCURVE",
"443 6 OFFCURVE",
"417 37 OFFCURVE",
"406 52 QCURVE",
"367 96 OFFCURVE",
"309 192 OFFCURVE",
"260 292 OFFCURVE",
"216 396 OFFCURVE",
"193 449 QCURVE",
"188 342 OFFCURVE",
"177 131 OFFCURVE",
"177 25 QCURVE",
"177 -1 OFFCURVE",
"146 -25 OFFCURVE",
"126 -25 QCURVE {name = ab01;}",
"107 -25 OFFCURVE",
"77 4 OFFCURVE",
"77 33 QCURVE",
"79 178 OFFCURVE",
"94 465 OFFCURVE",
"98 610 QCURVE",
"89 625 OFFCURVE",
"67 663 OFFCURVE",
"67 677 QCURVE"
);
}
);
width = 678;
},
{
anchors = (
{
name = bottom;
position = "{318, 0}";
},
{
name = top;
position = "{335, 700}";
}
);
background = {
paths = (
{
closed = 1;
nodes = (
"584 704 OFFCURVE",
"561 720 OFFCURVE",
"536 720 CURVE SMOOTH",
"511 720 OFFCURVE",
"485 702 OFFCURVE",
"486 668 CURVE SMOOTH",
"491 484 OFFCURVE",
"493 324 OFFCURVE",
"487 119 CURVE",
"376 280 OFFCURVE",
"277 468 OFFCURVE",
"200 685 CURVE SMOOTH",
"188 718 OFFCURVE",
"170 728 OFFCURVE",
"147 728 CURVE SMOOTH",
"121 728 OFFCURVE",
"100 715 OFFCURVE",
"97 660 CURVE SMOOTH",
"87 449 OFFCURVE",
"76 238 OFFCURVE",
"76 32 CURVE SMOOTH",
"76 -9 OFFCURVE",
"101 -26 OFFCURVE",
"126 -26 CURVE SMOOTH",
"153 -26 OFFCURVE",
"177 -8 OFFCURVE",
"178 28 CURVE SMOOTH",
"181 199 OFFCURVE",
"181 335 OFFCURVE",
"183 480 CURVE",
"263 280 OFFCURVE",
"358 121 OFFCURVE",
"454 1 CURVE SMOOTH",
"472 -22 OFFCURVE",
"490 -32 OFFCURVE",
"513 -32 CURVE SMOOTH",
"544 -32 OFFCURVE",
"562 -12 OFFCURVE",
"568 25 CURVE SMOOTH",
"593 187 OFFCURVE",
"597 461 OFFCURVE",
"586 668 CURVE SMOOTH"
);
}
);
};
hints = (
{
horizontal = 1;
origin = "{0, 11}";
type = Anchor;
},
{
horizontal = 1;
origin = "{0, 41}";
type = Anchor;
},
{
horizontal = 1;
origin = "{0, 20}";
type = Anchor;
},
{
horizontal = 1;
origin = "{0, 33}";
type = Anchor;
},
{
horizontal = 1;
origin = "{0, 11}";
target = "{0, 20}";
other1 = "{0, 4}";
type = Interpolate;
options = 4;
},
{
horizontal = 1;
origin = "{0, 11}";
target = "{0, 33}";
other1 = "{0, 26}";
type = Interpolate;
options = 4;
}
);
layerId = "92936CB7-D294-4857-B41D-63B9425360A1";
paths = (
{
closed = 1;
nodes = (
"480 -32 OFFCURVE",
"454 1 QCURVE",
"375 100 OFFCURVE",
"238 342 OFFCURVE",
"183 480 QCURVE {name = sv02;}",
"183 448 OFFCURVE",
"182 374 OFFCURVE",
"180 194 OFFCURVE",
"179 80 OFFCURVE",
"178 28 QCURVE",
"177 3 OFFCURVE",
"148 -26 OFFCURVE",
"104 -26 OFFCURVE",
"76 5 OFFCURVE",
"76 32 QCURVE",
"76 220 OFFCURVE",
"96 642 OFFCURVE",
"97 660 QCURVE",
"99 695 OFFCURVE",
"123 728 OFFCURVE",
"147 728 QCURVE {name = at01;}",
"167 728 OFFCURVE",
"192 707 OFFCURVE",
"200 685 QCURVE",
"255 531 OFFCURVE",
"399 247 OFFCURVE",
"487 119 QCURVE {name = sv01;}",
"490 207 OFFCURVE",
"491 375 OFFCURVE",
"489 552 OFFCURVE",
"486 668 QCURVE",
"485 691 OFFCURVE",
"515 720 OFFCURVE",
"558 720 OFFCURVE",
"585 692 OFFCURVE",
"586 668 QCURVE",
"592 556 OFFCURVE",
"592 310 OFFCURVE",
"579 98 OFFCURVE",
"568 25 QCURVE",
"559 -32 OFFCURVE",
"513 -32 QCURVE {name = ab02;}"
);
}
);
userData = {
com.typemytype.robofont.mark = (
0.656,
1,
0.6,
1
);
};
width = 678;
}
);
unicode = 004E;
},
{
color = 4;
glyphname = Eng;
layers = (
{
anchors = (
{
name = bottom;
position = "{353, -196}";
},
{
name = top;
position = "{325, 725}";
}
);
layerId = master01;
paths = (
{
closed = 1;
nodes = (
"153 -26 OFFCURVE",
"177 -8 OFFCURVE",
"178 28 CURVE SMOOTH",
"182 237 OFFCURVE",
"180 394 OFFCURVE",
"185 579 CURVE",
"118 662 LINE",
"208 374 OFFCURVE",
"346 159 OFFCURVE",
"471 1 CURVE SMOOTH",
"489 -22 OFFCURVE",
"507 -32 OFFCURVE",
"530 -32 CURVE",
"493 35 LINE",
"469 -69 OFFCURVE",
"431 -106 OFFCURVE",
"353 -150 CURVE SMOOTH",
"307 -176 OFFCURVE",
"325 -239 OFFCURVE",
"406 -218 CURVE SMOOTH",
"485 -198 OFFCURVE",
"583 -104 OFFCURVE",
"599 53 CURVE SMOOTH",
"618 240 OFFCURVE",
"601 504 OFFCURVE",
"586 668 CURVE SMOOTH",
"583 704 OFFCURVE",
"561 720 OFFCURVE",
"536 720 CURVE SMOOTH",
"511 720 OFFCURVE",
"484 702 OFFCURVE",
"486 668 CURVE SMOOTH",
"501 456 OFFCURVE",
"511 232 OFFCURVE",
"502 50 CURVE",
"524 91 LINE",
"403 261 OFFCURVE",
"282 454 OFFCURVE",
"200 685 CURVE SMOOTH",
"188 718 OFFCURVE",
"170 728 OFFCURVE",
"147 728 CURVE SMOOTH",
"121 728 OFFCURVE",
"100 715 OFFCURVE",
"97 660 CURVE SMOOTH",
"87 449 OFFCURVE",
"76 238 OFFCURVE",
"76 32 CURVE SMOOTH",
"76 -9 OFFCURVE",
"101 -26 OFFCURVE",
"126 -26 CURVE SMOOTH"
);
}
);
userData = {
com.typemytype.robofont.mark = (
0.619,
1,
0.6,
1
);
};
width = 678;
},
{
anchors = (
{
name = bottom;
position = "{353, -196}";
},
{
name = top;
position = "{325, 725}";
}
);
layerId = "8E39700C-2F6D-4A17-B4B3-161F49A69C4C";
paths = (
{
closed = 1;
nodes = (
"489 707 OFFCURVE",
"519 736 OFFCURVE",
"538 736 QCURVE {name = at02;}",
"555 736 OFFCURVE",
"585 712 OFFCURVE",
"589 686 QCURVE",
"590 635 OFFCURVE",
"595 518 OFFCURVE",
"601 395 OFFCURVE",
"605 270 OFFCURVE",
"605 209 QCURVE",
"605 145 OFFCURVE",
"601 41 OFFCURVE",
"580 -47 OFFCURVE",
"537 -126 OFFCURVE",
"498 -164 QCURVE",
"475 -187 OFFCURVE",
"412 -222 OFFCURVE",
"380 -222 QCURVE {name = av01;}",
"353 -222 OFFCURVE",
"325 -193 OFFCURVE",
"325 -174 QCURVE",
"325 -158 OFFCURVE",
"347 -129 OFFCURVE",
"371 -123 QCURVE {name = sv01;}",
"416 -115 OFFCURVE",
"471 -50 OFFCURVE",
"485 -2 QCURVE {name = ab02;}",
"482 0 OFFCURVE",
"477 7 QCURVE",
"457 53 OFFCURVE",
"405 138 OFFCURVE",
"379 180 QCURVE",
"335 250 OFFCURVE",
"246 386 OFFCURVE",
"200 454 QCURVE",
"180 482 LINE {name = sv02;}",
"176 429 OFFCURVE",
"174 326 OFFCURVE",
"174 273 QCURVE",
"174 213 OFFCURVE",
"175 93 OFFCURVE",
"176 33 QCURVE",
"172 8 OFFCURVE",
"144 -17 OFFCURVE",
"127 -17 QCURVE {name = ab01;}",
"112 -17 OFFCURVE",
"84 3 OFFCURVE",
"76 25 QCURVE",
"75 84 OFFCURVE",
"74 201 OFFCURVE",
"74 260 QCURVE",
"74 307 OFFCURVE",
"76 400 OFFCURVE",
"78 447 QCURVE",
"80 491 OFFCURVE",
"89 576 OFFCURVE",
"93 620 QCURVE",
"80 643 LINE",
"78 645 OFFCURVE",
"74 649 OFFCURVE",
"72 651 QCURVE",
"64 660 OFFCURVE",
"58 680 OFFCURVE",
"58 689 QCURVE",
"58 709 OFFCURVE",
"85 736 OFFCURVE",
"106 736 QCURVE",
"121 736 OFFCURVE",
"134 729 QCURVE",
"142 731 OFFCURVE {name = at03;}",
"146 731 QCURVE {name = at01;}",
"163 731 OFFCURVE",
"191 706 OFFCURVE",
"196 681 QCURVE",
"194 639 LINE",
"200 628 LINE",
"217 599 OFFCURVE",
"266 534 OFFCURVE",
"284 508 QCURVE",
"330 440 OFFCURVE",
"418 304 OFFCURVE",
"462 235 QCURVE",
"508 162 LINE {name = sv03;}",
"508 181 LINE",
"508 231 OFFCURVE",
"503 318 OFFCURVE",
"502 346 QCURVE",
"498 439 OFFCURVE",
"491 603 OFFCURVE",
"489 678 QCURVE"
);
}
);
width = 678;
},
{
anchors = (
{
name = bottom;
position = "{353, -196}";
},
{
name = top;
position = "{325, 725}";
}
);
background = {
paths = (
{
closed = 1;
nodes = (
"583 704 OFFCURVE",
"561 720 OFFCURVE",
"536 720 CURVE SMOOTH",
"511 720 OFFCURVE",
"484 702 OFFCURVE",
"486 668 CURVE SMOOTH",
"499 482 OFFCURVE",
"508 287 OFFCURVE",
"504 119 CURVE",
"390 282 OFFCURVE",
"278 466 OFFCURVE",
"200 685 CURVE SMOOTH",
"188 718 OFFCURVE",
"170 728 OFFCURVE",
"147 728 CURVE SMOOTH",
"121 728 OFFCURVE",
"100 715 OFFCURVE",
"97 660 CURVE SMOOTH",
"87 449 OFFCURVE",
"76 238 OFFCURVE",
"76 32 CURVE SMOOTH",
"76 -9 OFFCURVE",
"101 -26 OFFCURVE",
"126 -26 CURVE SMOOTH",
"153 -26 OFFCURVE",
"177 -8 OFFCURVE",
"178 28 CURVE SMOOTH",
"181 200 OFFCURVE",
"181 338 OFFCURVE",
"183 484 CURVE",
"267 283 OFFCURVE",
"373 125 OFFCURVE",
"471 1 CURVE SMOOTH",
"474 -3 OFFCURVE",
"477 -7 OFFCURVE",
"480 -10 CURVE",
"456 -81 OFFCURVE",
"419 -113 OFFCURVE",
"353 -150 CURVE SMOOTH",
"307 -176 OFFCURVE",
"325 -239 OFFCURVE",
"406 -218 CURVE SMOOTH",
"485 -198 OFFCURVE",
"583 -104 OFFCURVE",
"599 53 CURVE SMOOTH",
"618 240 OFFCURVE",
"601 504 OFFCURVE",
"586 668 CURVE SMOOTH"
);
}
);
};
hints = (
{
horizontal = 1;
origin = "{0, 19}";
type = Anchor;
},
{
horizontal = 1;
origin = "{0, 19}";
target = "{0, 9}";
type = Align;
options = 4;
},
{
horizontal = 1;
origin = "{0, 0}";
type = Anchor;
},
{
horizontal = 1;
origin = "{0, 28}";
type = Anchor;
},
{
horizontal = 1;
origin = "{0, 39}";
type = Anchor;
},
{
horizontal = 1;
origin = "{0, 19}";
target = "{0, 39}";
other1 = "{0, 34}";
type = Interpolate;
options = 4;
},
{
horizontal = 1;
origin = "{0, 19}";
target = "{0, 28}";
other1 = "{0, 12}";
type = Interpolate;
options = 4;
}
);
layerId = "92936CB7-D294-4857-B41D-63B9425360A1";
paths = (
{
closed = 1;
nodes = (
"379 -225 OFFCURVE {name = av01;}",
"340 -216 OFFCURVE",
"325 -189 OFFCURVE",
"337 -159 OFFCURVE",
"353 -150 QCURVE",
"383 -133 OFFCURVE",
"422 -104 OFFCURVE",
"450 -73 OFFCURVE",
"472 -35 OFFCURVE",
"480 -10 QCURVE {name = ab02;}",
"381 114 OFFCURVE",
"238 352 OFFCURVE",
"183 484 QCURVE {name = sv03;}",
"183 451 OFFCURVE",
"182 377 OFFCURVE",
"180 196 OFFCURVE",
"179 81 OFFCURVE",
"178 28 QCURVE",
"177 3 OFFCURVE",
"148 -26 OFFCURVE",
"104 -26 OFFCURVE",
"76 5 OFFCURVE",
"76 32 QCURVE",
"76 220 OFFCURVE",
"96 642 OFFCURVE",
"97 660 QCURVE",
"99 695 OFFCURVE",
"123 728 OFFCURVE",
"147 728 QCURVE {name = at02;}",
"167 728 OFFCURVE",
"192 707 OFFCURVE",
"200 685 QCURVE",
"249 548 OFFCURVE",
"395 275 OFFCURVE",
"504 119 QCURVE {name = sv01;}",
"507 228 OFFCURVE",
"498 501 OFFCURVE",
"486 668 QCURVE",
"485 691 OFFCURVE",
"515 720 OFFCURVE",
"557 720 OFFCURVE",
"584 693 OFFCURVE",
"586 668 QCURVE",
"594 577 OFFCURVE",
"605 401 OFFCURVE",
"608 243 OFFCURVE",
"605 108 OFFCURVE",
"594 2 OFFCURVE",
"560 -88 OFFCURVE",
"506 -161 OFFCURVE",
"439 -210 OFFCURVE",
"406 -218 QCURVE"
);
}
);
userData = {
com.typemytype.robofont.mark = (
0.656,
1,
0.6,
1
);
};
width = 678;
}
);
unicode = 014A;
},
{
glyphname = Ntilde;
layers = (
{
color = 6;
components = (
{
name = N;
},
{
name = tildecomb.case;
transform = "{1, 0, 0, 1, 709, 10}";
}
);
layerId = master01;
width = 660;
},
{
layerId = "8E39700C-2F6D-4A17-B4B3-161F49A69C4C";
paths = (
{
closed = 1;
nodes = (
"49 620 OFFCURVE",
"49 629 QCURVE",
"49 651 OFFCURVE",
"76 678 OFFCURVE",
"94 678 QCURVE",
"107 678 OFFCURVE",
"135 665 OFFCURVE",
"144 648 QCURVE",
"147 649 OFFCURVE",
"152 649 QCURVE {name = av02;}",
"169 649 OFFCURVE",
"197 624 OFFCURVE",
"201 599 QCURVE",
"201 561 LINE {name = sv01;}",
"233 508 OFFCURVE",
"294 401 OFFCURVE",
"355 294 OFFCURVE",
"419 189 OFFCURVE",
"455 138 QCURVE {name = sv02;}",
"474 235 OFFCURVE",
"483 431 OFFCURVE",
"483 530 QCURVE",
"483 649 LINE",
"483 678 OFFCURVE",
"513 707 OFFCURVE",
"532 707 QCURVE {name = av01;}",
"549 707 OFFCURVE",
"579 683 OFFCURVE",
"583 657 QCURVE",
"583 586 LINE",
"583 492 OFFCURVE",
"577 306 OFFCURVE",
"566 212 QCURVE",
"563 189 OFFCURVE",
"558 145 OFFCURVE",
"553 122 QCURVE",
"548 97 OFFCURVE",
"543 64 OFFCURVE",
"534 40 OFFCURVE",
"515 21 OFFCURVE",
"496 9 QCURVE",
"482 2 OFFCURVE",
"469 2 QCURVE {name = ab02;}",
"453 2 OFFCURVE",
"435 14 QCURVE",
"360 87 OFFCURVE",
"247 269 OFFCURVE",
"195 365 QCURVE {name = sv03;}",
"191 282 OFFCURVE",
"185 118 OFFCURVE",
"185 35 QCURVE",
"181 9 OFFCURVE",
"151 -15 OFFCURVE",
"134 -15 QCURVE {name = ab01;}",
"115 -15 OFFCURVE",
"85 14 OFFCURVE",
"85 43 QCURVE",
"85 166 OFFCURVE",
"97 409 OFFCURVE",
"100 533 QCURVE",
"89 551 OFFCURVE",
"66 587 OFFCURVE",
"54 605 QCURVE"
);
},
{
closed = 1;
nodes = (
"183 692 OFFCURVE",
"156 681 OFFCURVE",
"145 681 QCURVE {name = sv05;}",
"126 681 OFFCURVE",
"99 708 OFFCURVE",
"99 730 QCURVE",
"99 743 OFFCURVE",
"107 761 QCURVE",
"120 790 OFFCURVE",
"153 803 OFFCURVE",
"177 803 QCURVE {name = sv06;}",
"206 803 OFFCURVE",
"270 785 OFFCURVE",
"308 775 QCURVE",
"324 770 OFFCURVE",
"361 762 OFFCURVE",
"374 762 QCURVE {name = dv02;}",
"388 762 OFFCURVE",
"391 785 OFFCURVE",
"393 794 QCURVE",
"401 816 OFFCURVE",
"429 836 OFFCURVE",
"444 836 QCURVE {name = sv07;}",
"462 836 OFFCURVE",
"491 809 OFFCURVE",
"491 783 QCURVE",
"491 781 OFFCURVE",
"489 763 OFFCURVE",
"485 739 OFFCURVE",
"476 714 OFFCURVE",
"470 706 QCURVE",
"451 682 OFFCURVE",
"401 664 OFFCURVE",
"373 664 QCURVE {name = dv01;}",
"347 664 OFFCURVE",
"297 674 OFFCURVE",
"275 681 QCURVE",
"254 687 OFFCURVE",
"212 704 OFFCURVE",
"189 704 QCURVE {name = sv04;}"
);
}
);
width = 660;
},
{
color = 6;
components = (
{
name = N;
},
{
name = tildecomb.case;
transform = "{1, 0, 0, 1, 709, 10}";
}
);
layerId = "92936CB7-D294-4857-B41D-63B9425360A1";
userData = {
com.typemytype.robofont.mark = (
0.6,
0.986,
1,
1
);
};
width = 660;
}
);
unicode = 00D1;
},
{
color = 4;
glyphname = O;
layers = (
{
anchors = (
{
name = bottom;
position = "{330, 10}";
},
{
name = top;
position = "{371, 700}";
}
);
layerId = master01;
paths = (
{
closed = 1;
nodes = (
"180 715 OFFCURVE",
"41 556 OFFCURVE",
"35 356 CURVE SMOOTH",
"29 130 OFFCURVE",
"155 -7 OFFCURVE",
"347 -7 CURVE SMOOTH",
"535 -7 OFFCURVE",
"685 144 OFFCURVE",
"696 333 CURVE SMOOTH",
"704 465 OFFCURVE",
"637 592 OFFCURVE",
"532 637 CURVE",
"503 680 OFFCURVE",
"434 715 OFFCURVE",
"349 715 CURVE SMOOTH"
);
},
{
closed = 1;
nodes = (
"578 194 OFFCURVE",
"477 89 OFFCURVE",
"341 89 CURVE SMOOTH",
"225 89 OFFCURVE",
"146 176 OFFCURVE",
"145 350 CURVE SMOOTH",
"144 492 OFFCURVE",
"234 620 OFFCURVE",
"361 620 CURVE SMOOTH",
"385 620 OFFCURVE",
"410 614 OFFCURVE",
"431 601 CURVE SMOOTH",
"447 592 OFFCURVE",
"464 586 OFFCURVE",
"476 584 CURVE",
"481 553 OFFCURVE",
"527 528 OFFCURVE",
"553 486 CURVE SMOOTH",
"583 437 OFFCURVE",
"590 393 OFFCURVE",
"587 339 CURVE SMOOTH"
);
}
);
userData = {
com.typemytype.robofont.mark = (
0.619,
1,
0.6,
1
);
};
width = 730;
},
{
anchors = (
{
name = bottom;
position = "{330, 10}";
},
{
name = top;
position = "{371, 700}";
}
);
layerId = "8E39700C-2F6D-4A17-B4B3-161F49A69C4C";
paths = (
{
closed = 1;
nodes = (
"508 672 OFFCURVE",
"526 655 OFFCURVE",
"529 644 QCURVE",
"534 642 OFFCURVE",
"545 638 OFFCURVE",
"547 636 QCURVE",
"571 619 OFFCURVE",
"625 571 OFFCURVE",
"651 527 QCURVE",
"672 491 OFFCURVE",
"697 403 OFFCURVE",
"697 349 QCURVE",
"697 306 OFFCURVE",
"657 187 OFFCURVE",
"605 118 QCURVE",
"560 58 OFFCURVE",
"425 -7 OFFCURVE",
"329 -7 QCURVE {name = ab01;}",
"288 -7 OFFCURVE",
"232 -1 OFFCURVE",
"187 18 OFFCURVE",
"148 52 OFFCURVE",
"124 80 QCURVE",
"73 140 OFFCURVE",
"35 283 OFFCURVE",
"35 352 QCURVE",
"35 388 OFFCURVE",
"51 468 OFFCURVE",
"86 546 OFFCURVE",
"140 618 OFFCURVE",
"179 647 QCURVE",
"193 657 OFFCURVE",
"234 682 OFFCURVE",
"285 703 OFFCURVE",
"344 717 OFFCURVE",
"374 717 QCURVE {name = av01;}",
"411 717 OFFCURVE",
"473 695 OFFCURVE",
"493 682 QCURVE"
);
},
{
closed = 1;
nodes = (
"472 564 OFFCURVE",
"464 582 OFFCURVE",
"463 587 QCURVE",
"453 588 OFFCURVE",
"432 594 OFFCURVE",
"422 599 QCURVE",
"403 608 OFFCURVE",
"379 614 OFFCURVE",
"361 614 QCURVE {name = sv01;}",
"345 614 OFFCURVE",
"275 594 OFFCURVE",
"234 562 QCURVE",
"191 528 OFFCURVE",
"138 420 OFFCURVE",
"138 350 QCURVE",
"138 315 OFFCURVE",
"150 243 OFFCURVE",
"177 177 OFFCURVE",
"218 120 OFFCURVE",
"247 102 QCURVE",
"251 99 OFFCURVE",
"273 95 OFFCURVE",
"299 93 OFFCURVE",
"325 92 OFFCURVE",
"333 92 QCURVE {name = sv02;}",
"389 92 OFFCURVE",
"495 137 OFFCURVE",
"533 190 QCURVE",
"558 225 OFFCURVE",
"594 314 OFFCURVE",
"594 359 QCURVE",
"594 391 OFFCURVE",
"569 467 OFFCURVE",
"546 502 QCURVE",
"541 510 OFFCURVE",
"529 522 OFFCURVE",
"513 534 OFFCURVE",
"493 548 OFFCURVE",
"480 559 QCURVE"
);
}
);
width = 730;
},
{
anchors = (
{
name = bottom;
position = "{330, 10}";
},
{
name = top;
position = "{371, 700}";
}
);
background = {
paths = (
{
closed = 1;
nodes = (
"180 715 OFFCURVE",
"41 556 OFFCURVE",
"35 356 CURVE SMOOTH",
"29 130 OFFCURVE",
"155 -7 OFFCURVE",
"347 -7 CURVE SMOOTH",
"535 -7 OFFCURVE",
"685 144 OFFCURVE",
"696 333 CURVE SMOOTH",
"704 465 OFFCURVE",
"637 592 OFFCURVE",
"532 637 CURVE",
"503 680 OFFCURVE",
"434 715 OFFCURVE",
"349 715 CURVE SMOOTH"
);
},
{
closed = 1;
nodes = (
"578 194 OFFCURVE",
"477 89 OFFCURVE",
"341 89 CURVE SMOOTH",
"225 89 OFFCURVE",
"146 176 OFFCURVE",
"145 350 CURVE SMOOTH",
"144 492 OFFCURVE",
"234 620 OFFCURVE",
"361 620 CURVE SMOOTH",
"385 620 OFFCURVE",
"410 614 OFFCURVE",
"431 601 CURVE SMOOTH",
"447 592 OFFCURVE",
"464 586 OFFCURVE",
"476 584 CURVE",
"481 553 OFFCURVE",
"527 528 OFFCURVE",
"553 486 CURVE SMOOTH",
"583 437 OFFCURVE",
"590 393 OFFCURVE",
"587 339 CURVE SMOOTH"
);
}
);
};
hints = (
{
horizontal = 1;
origin = "{0, 4}";
target = "{1, 12}";
type = TTStem;
options = 4;
},
{
horizontal = 1;
origin = "{0, 14}";
target = "{1, 17}";
type = TTStem;
options = 4;
}
);
layerId = "92936CB7-D294-4857-B41D-63B9425360A1";
paths = (
{
closed = 1;
nodes = (
"200 -7 OFFCURVE",
"31 190 OFFCURVE",
"39 506 OFFCURVE",
"222 715 OFFCURVE",
"349 715 QCURVE {name = at01;}",
"409 715 OFFCURVE",
"509 672 OFFCURVE",
"532 637 QCURVE",
"584 615 OFFCURVE",
"662 521 OFFCURVE",
"700 397 OFFCURVE",
"696 333 QCURVE SMOOTH",
"688 190 OFFCURVE",
"487 -7 OFFCURVE",
"347 -7 QCURVE {name = ab01;}"
);
},
{
closed = 1;
nodes = (
"443 89 OFFCURVE",
"581 230 OFFCURVE",
"587 339 QCURVE SMOOTH",
"590 399 OFFCURVE",
"562 474 OFFCURVE",
"530 516 OFFCURVE",
"491 555 OFFCURVE",
"477 575 OFFCURVE",
"476 584 QCURVE",
"456 587 OFFCURVE",
"415 610 OFFCURVE",
"380 620 OFFCURVE",
"361 620 QCURVE {name = sv01;}",
"269 620 OFFCURVE",
"144 461 OFFCURVE",
"146 225 OFFCURVE",
"250 89 OFFCURVE",
"341 89 QCURVE {name = sv02;}"
);
}
);
userData = {
com.typemytype.robofont.mark = (
0.656,
1,
0.6,
1
);
};
width = 730;
}
);
leftKerningGroup = O;
rightKerningGroup = O;
unicode = 004F;
},
